<svg xmlns="http://www.w3.org/2000/svg" xmlns:xlink="http://www.w3.org/1999/xlink" width="500" zoomAndPan="magnify" viewBox="0 0 375 374.999991" height="500" preserveAspectRatio="xMidYMid meet" version="1.0"><defs><filter x="0%" y="0%" width="100%" height="100%" id="ccc567e932"><feColorMatrix values="0 0 0 0 1 0 0 0 0 1 0 0 0 0 1 0 0 0 1 0" color-interpolation-filters="sRGB"/></filter><g/><clipPath id="ec31537803"><path d="M 7 0 L 368 0 L 368 374.992188 L 7 374.992188 Z M 7 0 " clip-rule="nonzero"/></clipPath><clipPath id="ecea700829"><path d="M 157.121094 35.363281 L 218.007812 35.363281 L 218.007812 110.710938 L 157.121094 110.710938 Z M 157.121094 35.363281 " clip-rule="nonzero"/></clipPath><clipPath id="42720bff77"><path d="M 157.121094 75 L 161 75 L 161 80 L 157.121094 80 Z M 157.121094 75 " clip-rule="nonzero"/></clipPath><clipPath id="71ff969e64"><path d="M 169 77 L 218 77 L 218 110.710938 L 169 110.710938 Z M 169 77 " clip-rule="nonzero"/></clipPath><mask id="f83258156e"><g filter="url(#ccc567e932)"><rect x="-37.5" width="450" fill="#000000" y="-37.499999" height="449.999989" fill-opacity="0.4"/></g></mask><clipPath id="3f545b1f73"><path d="M 9 0.0390625 L 48.921875 0.0390625 L 48.921875 33.640625 L 9 33.640625 Z M 9 0.0390625 " clip-rule="nonzero"/></clipPath><clipPath id="ec2c52788f"><path d="M 0.199219 6 L 12 6 L 12 33 L 0.199219 33 Z M 0.199219 6 " clip-rule="nonzero"/></clipPath><clipPath id="5abee99ea8"><rect x="0" width="49" y="0" height="34"/></clipPath><mask id="b51d6cd42a"><g filter="url(#ccc567e932)"><rect x="-37.5" width="450" fill="#000000" y="-37.499999" height="449.999989" fill-opacity="0.4"/></g></mask><clipPath id="93542fe024"><path d="M 0.640625 24 L 48 24 L 48 37.601562 L 0.640625 37.601562 Z M 0.640625 24 " clip-rule="nonzero"/></clipPath><clipPath id="54629bcba9"><path d="M 12 0.398438 L 26 0.398438 L 26 12 L 12 12 Z M 12 0.398438 " clip-rule="nonzero"/></clipPath><clipPath id="830f7ccff9"><rect x="0" width="49" y="0" height="38"/></clipPath><clipPath id="7ca3f5c28f"><path d="M 158 79 L 211 79 L 211 110.710938 L 158 110.710938 Z M 158 79 " clip-rule="nonzero"/></clipPath><clipPath id="35b3b25cee"><path d="M 157.121094 71 L 218.007812 71 L 218.007812 87 L 157.121094 87 Z M 157.121094 71 " clip-rule="nonzero"/></clipPath><clipPath id="44a55f3fa1"><path d="M 183 35.363281 L 199 35.363281 L 199 51 L 183 51 Z M 183 35.363281 " clip-rule="nonzero"/></clipPath></defs><path fill="#ffffff" d="M 357.4375 187.460938 C 357.4375 168.46875 366.550781 148.285156 360.941406 131.117188 C 355.195312 113.386719 335.714844 102.386719 324.992188 87.597656 C 314.128906 72.671875 309.644531 50.808594 294.71875 39.945312 C 279.933594 29.152344 257.855469 31.605469 240.058594 25.859375 C 222.886719 20.324219 206.558594 5.1875 187.566406 5.1875 C 168.578125 5.1875 152.179688 20.324219 135.078125 25.859375 C 117.347656 31.605469 95.203125 29.222656 80.417969 39.945312 C 65.492188 50.808594 61.003906 72.671875 50.144531 87.597656 C 39.421875 102.457031 19.9375 113.386719 14.191406 131.117188 C 8.65625 148.285156 17.695312 168.46875 17.695312 187.460938 C 17.695312 206.453125 8.585938 226.636719 14.191406 243.804688 C 19.9375 261.535156 39.421875 272.535156 50.144531 287.324219 C 61.003906 302.25 65.492188 324.113281 80.417969 334.976562 C 95.203125 345.769531 117.277344 343.316406 135.078125 349.0625 C 152.25 354.597656 168.578125 369.734375 187.566406 369.734375 C 206.558594 369.734375 222.957031 354.597656 240.058594 349.0625 C 257.785156 343.316406 279.933594 345.699219 294.71875 334.976562 C 309.644531 324.113281 314.128906 302.25 324.992188 287.324219 C 335.785156 272.535156 355.195312 261.605469 360.941406 243.804688 C 366.550781 226.707031 357.4375 206.453125 357.4375 187.460938 Z M 357.4375 187.460938 " fill-opacity="1" fill-rule="nonzero"/><g clip-path="url(#ec31537803)"><path fill="#a1ccb9" d="M 187.566406 374.992188 C 174.394531 374.992188 162.898438 368.753906 151.757812 362.65625 C 145.449219 359.222656 139.421875 355.929688 133.46875 354.039062 C 127.089844 352.007812 120.152344 351.023438 112.792969 350.042969 C 100.390625 348.363281 87.566406 346.609375 77.402344 339.183594 C 67.101562 331.683594 61.496094 319.980469 56.03125 308.699219 C 52.804688 302.039062 49.792969 295.734375 45.9375 290.40625 C 42.15625 285.222656 37.109375 280.457031 31.851562 275.410156 C 22.671875 266.71875 13.210938 257.75 9.21875 245.417969 C 5.363281 233.644531 7.675781 221.027344 9.847656 208.835938 C 11.109375 201.6875 12.441406 194.328125 12.441406 187.460938 C 12.441406 180.59375 11.109375 173.234375 9.847656 166.085938 C 7.675781 153.894531 5.363281 141.277344 9.21875 129.503906 C 13.210938 117.171875 22.671875 108.203125 31.78125 99.582031 C 37.109375 94.535156 42.085938 89.769531 45.867188 84.585938 C 49.722656 79.257812 52.734375 72.953125 55.960938 66.292969 C 61.355469 55.011719 67.03125 43.308594 77.332031 35.808594 C 87.566406 28.382812 100.320312 26.628906 112.722656 24.949219 C 120.082031 23.96875 127.089844 22.984375 133.398438 20.953125 C 139.355469 18.992188 145.378906 15.769531 151.6875 12.332031 C 162.832031 6.308594 174.324219 0 187.496094 0 C 200.671875 0 212.164062 6.238281 223.308594 12.332031 C 229.617188 15.769531 235.640625 19.0625 241.597656 20.953125 C 247.90625 22.984375 254.914062 23.96875 262.273438 24.949219 C 274.675781 26.628906 287.5 28.382812 297.660156 35.808594 C 307.964844 43.308594 313.570312 55.011719 319.035156 66.292969 C 322.257812 72.953125 325.273438 79.257812 329.128906 84.585938 C 332.910156 89.769531 337.957031 94.535156 343.214844 99.582031 C 352.324219 108.273438 361.785156 117.242188 365.777344 129.503906 C 369.632812 141.277344 367.320312 153.894531 365.148438 166.085938 C 363.886719 173.234375 362.554688 180.59375 362.554688 187.460938 C 362.554688 194.328125 363.886719 201.6875 365.148438 208.835938 C 367.320312 221.027344 369.632812 233.644531 365.777344 245.417969 C 361.785156 257.75 352.324219 266.71875 343.214844 275.339844 C 337.886719 280.386719 332.910156 285.152344 329.128906 290.335938 C 325.273438 295.664062 322.257812 301.96875 319.035156 308.628906 C 313.640625 319.910156 307.964844 331.613281 297.660156 339.113281 C 287.429688 346.539062 274.675781 348.292969 262.273438 349.972656 C 254.914062 350.953125 247.90625 351.9375 241.597656 353.96875 C 235.640625 355.929688 229.617188 359.152344 223.308594 362.589844 C 212.304688 368.753906 200.8125 374.992188 187.566406 374.992188 Z M 187.566406 10.441406 C 177.054688 10.441406 167.175781 15.769531 156.734375 21.445312 C 150.285156 24.949219 143.558594 28.59375 136.691406 30.835938 C 129.472656 33.21875 121.695312 34.269531 114.125 35.25 C 102.492188 36.863281 91.558594 38.332031 83.5 44.21875 C 75.371094 50.175781 70.535156 60.199219 65.421875 70.78125 C 62.125 77.578125 58.761719 84.65625 54.347656 90.683594 C 50.003906 96.640625 44.398438 101.964844 39 107.152344 C 30.449219 115.28125 22.320312 122.988281 19.167969 132.730469 C 16.15625 141.980469 18.117188 152.773438 20.148438 164.195312 C 21.550781 171.761719 22.953125 179.613281 22.953125 187.460938 C 22.953125 195.238281 21.550781 203.089844 20.148438 210.726562 C 18.117188 222.148438 16.15625 232.941406 19.167969 242.191406 C 22.320312 251.933594 30.449219 259.640625 39 267.769531 C 44.398438 272.886719 50.003906 278.214844 54.347656 284.238281 C 58.761719 290.335938 62.125 297.34375 65.421875 304.140625 C 70.535156 314.722656 75.300781 324.746094 83.5 330.703125 C 91.558594 336.589844 102.492188 338.058594 114.125 339.671875 C 121.625 340.722656 129.402344 341.773438 136.691406 344.085938 C 143.628906 346.328125 150.285156 349.972656 156.734375 353.476562 C 167.175781 359.152344 177.054688 364.480469 187.566406 364.480469 C 198.078125 364.480469 207.960938 359.152344 218.402344 353.476562 C 224.851562 349.972656 231.578125 346.328125 238.445312 344.085938 C 245.664062 341.703125 253.441406 340.652344 261.011719 339.671875 C 272.644531 338.058594 283.574219 336.589844 291.636719 330.703125 C 299.765625 324.746094 304.601562 314.722656 309.714844 304.140625 C 313.007812 297.34375 316.371094 290.265625 320.789062 284.238281 C 325.132812 278.28125 330.738281 272.957031 336.136719 267.769531 C 344.683594 259.640625 352.8125 251.933594 355.96875 242.191406 C 358.980469 232.941406 357.019531 222.148438 354.988281 210.726562 C 353.585938 203.160156 352.183594 195.308594 352.183594 187.460938 C 352.183594 179.683594 353.585938 171.832031 354.988281 164.195312 C 357.019531 152.773438 358.980469 141.980469 355.96875 132.730469 C 352.8125 122.988281 344.683594 115.28125 336.136719 107.152344 C 330.738281 102.035156 325.132812 96.707031 320.789062 90.683594 C 316.371094 84.585938 313.007812 77.578125 309.714844 70.78125 C 304.601562 60.199219 299.835938 50.175781 291.636719 44.21875 C 283.574219 38.332031 272.574219 36.863281 261.011719 35.25 C 253.511719 34.199219 245.734375 33.148438 238.445312 30.835938 C 231.507812 28.59375 224.851562 24.949219 218.402344 21.445312 C 207.960938 15.835938 198.148438 10.441406 187.566406 10.441406 Z M 187.566406 10.441406 " fill-opacity="1" fill-rule="nonzero"/></g><g fill="#000000" fill-opacity="1"><g transform="translate(142.194137, 334.449268)"><g><path d="M 0.757812 0 L 3.09375 0 L 3.09375 -3.285156 L 5.347656 -3.285156 C 7.640625 -3.285156 9.167969 -4.589844 9.167969 -6.542969 C 9.167969 -8.480469 7.65625 -9.785156 5.375 -9.785156 L 0.757812 -9.785156 Z M 3.09375 -5.03125 L 3.09375 -8.054688 L 5.003906 -8.054688 C 6.117188 -8.054688 6.816406 -7.449219 6.816406 -6.542969 C 6.816406 -5.636719 6.101562 -5.03125 5.003906 -5.03125 Z M 3.09375 -5.03125 "/></g></g></g><g fill="#000000" fill-opacity="1"><g transform="translate(151.633711, 334.449268)"><g><path d="M 0.757812 0 L 3.105469 0 L 3.105469 -9.785156 L 0.757812 -9.785156 Z M 0.757812 0 "/></g></g></g><g fill="#000000" fill-opacity="1"><g transform="translate(155.494733, 334.449268)"><g><path d="M 0.757812 0 L 7.777344 0 L 7.777344 -1.882812 L 3.023438 -1.882812 L 3.023438 -4.179688 L 7.089844 -4.179688 L 7.089844 -5.839844 L 3.023438 -5.839844 L 3.023438 -7.917969 L 7.640625 -7.917969 L 7.640625 -9.785156 L 0.757812 -9.785156 Z M 0.757812 0 "/></g></g></g><g fill="#000000" fill-opacity="1"><g transform="translate(163.57402, 334.449268)"><g><path d="M 0.757812 0 L 4.78125 0 C 8.175781 0 10.074219 -1.746094 10.074219 -4.894531 C 10.074219 -8.039062 8.175781 -9.785156 4.78125 -9.785156 L 0.757812 -9.785156 Z M 3.039062 -1.882812 L 3.039062 -7.917969 L 4.78125 -7.917969 C 6.664062 -7.917969 7.722656 -6.84375 7.722656 -4.894531 C 7.722656 -2.953125 6.664062 -1.882812 4.78125 -1.882812 Z M 3.039062 -1.882812 "/></g></g></g><g fill="#000000" fill-opacity="1"><g transform="translate(174.057853, 334.449268)"><g><path d="M 0.0703125 0 L 2.527344 0 L 3.160156 -1.925781 L 6.925781 -1.925781 L 7.558594 0 L 10.019531 0 L 6.488281 -9.785156 L 3.613281 -9.785156 Z M 3.585938 -3.585938 L 5.03125 -7.929688 L 5.058594 -7.929688 L 6.5 -3.585938 Z M 3.585938 -3.585938 "/></g></g></g><g fill="#000000" fill-opacity="1"><g transform="translate(184.143217, 334.449268)"><g><path d="M 0.757812 0 L 4.78125 0 C 8.175781 0 10.074219 -1.746094 10.074219 -4.894531 C 10.074219 -8.039062 8.175781 -9.785156 4.78125 -9.785156 L 0.757812 -9.785156 Z M 3.039062 -1.882812 L 3.039062 -7.917969 L 4.78125 -7.917969 C 6.664062 -7.917969 7.722656 -6.84375 7.722656 -4.894531 C 7.722656 -2.953125 6.664062 -1.882812 4.78125 -1.882812 Z M 3.039062 -1.882812 "/></g></g></g><g fill="#000000" fill-opacity="1"><g transform="translate(194.62705, 334.449268)"><g><path d="M 0.757812 0 L 7.777344 0 L 7.777344 -1.882812 L 3.023438 -1.882812 L 3.023438 -4.179688 L 7.089844 -4.179688 L 7.089844 -5.839844 L 3.023438 -5.839844 L 3.023438 -7.917969 L 7.640625 -7.917969 L 7.640625 -9.785156 L 0.757812 -9.785156 Z M 0.757812 0 "/></g></g></g><g fill="#000000" fill-opacity="1"><g transform="translate(202.706336, 334.449268)"><g/></g></g><g fill="#000000" fill-opacity="1"><g transform="translate(205.74294, 334.449268)"><g><path d="M 0.550781 -3.011719 L 5.222656 -3.011719 L 5.222656 -4.4375 L 0.550781 -4.4375 Z M 0.550781 -3.011719 "/></g></g></g><g fill="#000000" fill-opacity="1"><g transform="translate(211.513867, 334.449268)"><g/></g></g><g fill="#000000" fill-opacity="1"><g transform="translate(214.550471, 334.449268)"><g><path d="M 8.066406 0.246094 C 8.851562 0.246094 9.578125 -0.0703125 10.058594 -0.550781 L 9.566406 -1.664062 C 9.386719 -1.429688 9.125 -1.265625 8.878906 -1.265625 C 8.589844 -1.265625 8.410156 -1.5 8.328125 -1.785156 L 8.011719 -2.941406 C 7.847656 -3.503906 7.574219 -3.890625 7.0625 -4.09375 L 7.0625 -4.109375 C 8.519531 -4.464844 9.386719 -5.46875 9.386719 -6.761719 C 9.386719 -8.632812 7.945312 -9.785156 5.621094 -9.785156 L 0.757812 -9.785156 L 0.757812 0 L 3.105469 0 L 3.105469 -3.695312 L 4.605469 -3.695312 C 5.167969 -3.695312 5.566406 -3.257812 5.730469 -2.679688 L 6.15625 -1.25 C 6.433594 -0.328125 7.089844 0.246094 8.066406 0.246094 Z M 3.105469 -5.304688 L 3.105469 -8.054688 L 5.320312 -8.054688 C 6.363281 -8.054688 7.035156 -7.503906 7.035156 -6.679688 C 7.035156 -5.839844 6.363281 -5.304688 5.320312 -5.304688 Z M 3.105469 -5.304688 "/></g></g></g><g fill="#000000" fill-opacity="1"><g transform="translate(224.677062, 334.449268)"><g><path d="M 3.902344 0.316406 C 6.128906 0.316406 7.492188 -0.878906 7.492188 -2.925781 L 7.492188 -9.785156 L 5.140625 -9.785156 L 5.125 -3.066406 C 5.125 -2.101562 4.660156 -1.554688 3.847656 -1.554688 C 2.980469 -1.554688 2.390625 -2.15625 2.226562 -3.1875 L 0.207031 -2.515625 C 0.496094 -0.726562 1.800781 0.316406 3.902344 0.316406 Z M 3.902344 0.316406 "/></g></g></g><g fill="#000000" fill-opacity="1"><g transform="translate(156.146241, 299.238734)"><g><path d="M 50.609375 9.5 C 50.578125 9.5 50.195312 9.441406 49.46875 9.328125 C 48.738281 9.222656 47.828125 8.9375 46.734375 8.46875 C 45.640625 8 44.460938 7.300781 43.203125 6.375 C 41.953125 5.457031 40.785156 4.179688 39.703125 2.546875 C 38.628906 0.921875 37.726562 -1.117188 37 -3.578125 C 36.28125 -6.035156 35.921875 -9.015625 35.921875 -12.515625 C 35.921875 -13.835938 35.992188 -15.414062 36.140625 -17.25 C 36.285156 -19.082031 36.484375 -21.039062 36.734375 -23.125 C 36.984375 -25.207031 37.257812 -27.363281 37.5625 -29.59375 C 37.863281 -31.820312 38.175781 -33.992188 38.5 -36.109375 C 38.820312 -38.222656 39.132812 -40.222656 39.4375 -42.109375 C 39.738281 -44.003906 39.992188 -45.660156 40.203125 -47.078125 C 39.921875 -45.929688 39.601562 -44.675781 39.25 -43.3125 C 38.90625 -41.957031 38.539062 -40.53125 38.15625 -39.03125 C 37.769531 -37.539062 37.378906 -36.003906 36.984375 -34.421875 C 36.585938 -32.835938 36.1875 -31.253906 35.78125 -29.671875 C 35.375 -28.035156 34.914062 -26.335938 34.40625 -24.578125 C 33.90625 -22.816406 33.34375 -21.078125 32.71875 -19.359375 C 32.101562 -17.648438 31.421875 -16.019531 30.671875 -14.46875 C 29.929688 -12.925781 29.101562 -11.566406 28.1875 -10.390625 C 27.28125 -9.210938 26.300781 -8.273438 25.25 -7.578125 C 24.195312 -6.890625 23.046875 -6.546875 21.796875 -6.546875 C 21.097656 -6.546875 20.4375 -6.675781 19.8125 -6.9375 C 19.1875 -7.207031 18.640625 -7.660156 18.171875 -8.296875 C 17.710938 -8.929688 17.34375 -9.78125 17.0625 -10.84375 C 16.789062 -11.90625 16.65625 -13.253906 16.65625 -14.890625 C 16.65625 -15.847656 16.695312 -17.015625 16.78125 -18.390625 C 16.863281 -19.773438 16.96875 -21.285156 17.09375 -22.921875 C 17.226562 -24.566406 17.382812 -26.3125 17.5625 -28.15625 C 17.75 -30.007812 17.9375 -31.875 18.125 -33.75 C 18.320312 -35.632812 18.515625 -37.5 18.703125 -39.34375 C 18.890625 -41.1875 19.066406 -42.945312 19.234375 -44.625 C 18.617188 -42.082031 17.878906 -38.914062 17.015625 -35.125 C 16.148438 -31.34375 15.191406 -27.101562 14.140625 -22.40625 C 13.242188 -18.445312 12.3125 -14.9375 11.34375 -11.875 C 10.375 -8.820312 9.414062 -6.148438 8.46875 -3.859375 C 7.519531 -1.578125 6.613281 0.347656 5.75 1.921875 C 4.882812 3.492188 4.125 4.765625 3.46875 5.734375 C 2.8125 6.703125 2.28125 7.410156 1.875 7.859375 C 1.46875 8.304688 1.265625 8.539062 1.265625 8.5625 L 0 7.875 C 0 7.851562 0.207031 7.472656 0.625 6.734375 C 1.050781 6.003906 1.597656 4.976562 2.265625 3.65625 C 2.929688 2.34375 3.695312 0.757812 4.5625 -1.09375 C 5.425781 -2.957031 6.3125 -5.015625 7.21875 -7.265625 C 8.132812 -9.515625 9.046875 -11.945312 9.953125 -14.5625 C 10.867188 -17.175781 11.695312 -19.910156 12.4375 -22.765625 C 13.519531 -26.796875 14.484375 -30.523438 15.328125 -33.953125 C 16.179688 -37.378906 16.910156 -40.34375 17.515625 -42.84375 C 18.117188 -45.351562 18.582031 -47.316406 18.90625 -48.734375 C 19.226562 -50.148438 19.390625 -50.867188 19.390625 -50.890625 L 20.78125 -50.75 C 20.78125 -50.695312 20.773438 -50.128906 20.765625 -49.046875 C 20.753906 -47.972656 20.742188 -46.570312 20.734375 -44.84375 C 20.722656 -43.125 20.710938 -41.175781 20.703125 -39 C 20.691406 -36.832031 20.675781 -34.644531 20.65625 -32.4375 C 20.644531 -30.226562 20.632812 -28.109375 20.625 -26.078125 C 20.613281 -24.054688 20.609375 -22.316406 20.609375 -20.859375 C 20.609375 -19.179688 20.671875 -17.648438 20.796875 -16.265625 C 20.929688 -14.890625 21.148438 -13.71875 21.453125 -12.75 C 21.753906 -11.78125 22.128906 -11.03125 22.578125 -10.5 C 23.035156 -9.96875 23.585938 -9.703125 24.234375 -9.703125 C 24.765625 -9.703125 25.394531 -10.054688 26.125 -10.765625 C 26.851562 -11.472656 27.65625 -12.625 28.53125 -14.21875 C 29.40625 -15.8125 30.328125 -17.90625 31.296875 -20.5 C 32.273438 -23.09375 33.28125 -26.28125 34.3125 -30.0625 C 34.664062 -31.363281 35.066406 -32.800781 35.515625 -34.375 C 35.960938 -35.957031 36.445312 -37.75 36.96875 -39.75 C 37.5 -41.757812 38.066406 -44 38.671875 -46.46875 C 39.285156 -48.9375 39.941406 -51.691406 40.640625 -54.734375 L 42.046875 -54.515625 C 41.566406 -48.765625 41.113281 -43.039062 40.6875 -37.34375 C 40.269531 -31.65625 40.0625 -25.929688 40.0625 -20.171875 C 40.0625 -15.835938 40.300781 -12.0625 40.78125 -8.84375 C 41.257812 -5.632812 41.96875 -2.894531 42.90625 -0.625 C 43.84375 1.632812 45 3.476562 46.375 4.90625 C 47.75 6.332031 49.347656 7.414062 51.171875 8.15625 Z M 50.609375 9.5 "/></g></g></g><g fill="#000000" fill-opacity="1"><g transform="translate(205.489987, 299.238734)"><g><path d="M 7.515625 -3.734375 C 6.003906 -3.734375 4.75 -4.34375 3.75 -5.5625 C 2.757812 -6.789062 2.265625 -8.640625 2.265625 -11.109375 C 2.265625 -12.742188 2.59375 -14.820312 3.25 -17.34375 C 3.914062 -19.875 5.0625 -22.738281 6.6875 -25.9375 L 8.015625 -25.578125 C 7.867188 -24.953125 7.632812 -24.097656 7.3125 -23.015625 C 6.988281 -21.941406 6.664062 -20.738281 6.34375 -19.40625 C 6.019531 -18.070312 5.738281 -16.679688 5.5 -15.234375 C 5.257812 -13.785156 5.140625 -12.390625 5.140625 -11.046875 C 5.140625 -9.910156 5.222656 -8.988281 5.390625 -8.28125 C 5.554688 -7.582031 5.773438 -7.035156 6.046875 -6.640625 C 6.328125 -6.242188 6.65625 -5.972656 7.03125 -5.828125 C 7.40625 -5.679688 7.804688 -5.609375 8.234375 -5.609375 C 8.929688 -5.609375 9.59375 -5.820312 10.21875 -6.25 C 10.84375 -6.6875 11.4375 -7.257812 12 -7.96875 C 12.5625 -8.675781 13.085938 -9.46875 13.578125 -10.34375 C 14.066406 -11.21875 14.507812 -12.097656 14.90625 -12.984375 C 15.300781 -13.867188 15.65625 -14.710938 15.96875 -15.515625 C 16.28125 -16.316406 16.53125 -17.007812 16.71875 -17.59375 L 18.125 -17.234375 C 17.863281 -16.503906 17.554688 -15.664062 17.203125 -14.71875 C 16.859375 -13.78125 16.460938 -12.804688 16.015625 -11.796875 C 15.578125 -10.785156 15.082031 -9.800781 14.53125 -8.84375 C 13.976562 -7.882812 13.351562 -7.023438 12.65625 -6.265625 C 11.957031 -5.515625 11.179688 -4.90625 10.328125 -4.4375 C 9.484375 -3.96875 8.546875 -3.734375 7.515625 -3.734375 Z M 13.34375 -37.265625 C 13.34375 -36.421875 13.019531 -35.769531 12.375 -35.3125 C 11.726562 -34.863281 10.910156 -34.640625 9.921875 -34.640625 C 9.421875 -34.640625 8.945312 -34.71875 8.5 -34.875 C 8.0625 -35.03125 7.679688 -35.234375 7.359375 -35.484375 C 7.035156 -35.734375 6.78125 -36.03125 6.59375 -36.375 C 6.414062 -36.726562 6.328125 -37.09375 6.328125 -37.46875 C 6.328125 -38.289062 6.644531 -38.953125 7.28125 -39.453125 C 7.914062 -39.953125 8.65625 -40.203125 9.5 -40.203125 C 10.09375 -40.203125 10.628906 -40.113281 11.109375 -39.9375 C 11.585938 -39.757812 11.992188 -39.523438 12.328125 -39.234375 C 12.671875 -38.953125 12.925781 -38.632812 13.09375 -38.28125 C 13.257812 -37.9375 13.34375 -37.597656 13.34375 -37.265625 Z M 11.40625 -37.265625 C 11.40625 -37.503906 11.300781 -37.722656 11.09375 -37.921875 C 10.894531 -38.128906 10.585938 -38.234375 10.171875 -38.234375 C 9.429688 -38.234375 9.0625 -37.957031 9.0625 -37.40625 C 9.0625 -37.144531 9.175781 -36.921875 9.40625 -36.734375 C 9.632812 -36.554688 9.941406 -36.46875 10.328125 -36.46875 C 10.679688 -36.46875 10.945312 -36.546875 11.125 -36.703125 C 11.3125 -36.859375 11.40625 -37.046875 11.40625 -37.265625 Z M 11.40625 -37.265625 "/></g></g></g><g fill="#000000" fill-opacity="1"><g transform="translate(117.621847, 173.49871)"><g><path d="M 14.671875 3.53125 C 12.828125 3.53125 11.132812 3.300781 9.59375 2.84375 C 8.0625 2.382812 6.75 1.722656 5.65625 0.859375 C 4.570312 -0.00390625 3.722656 -1.054688 3.109375 -2.296875 C 2.492188 -3.546875 2.1875 -4.960938 2.1875 -6.546875 C 2.1875 -8.171875 2.5625 -9.828125 3.3125 -11.515625 C 4.070312 -13.210938 5.175781 -14.78125 6.625 -16.21875 L 7.296875 -15.53125 C 6.554688 -14.570312 5.941406 -13.421875 5.453125 -12.078125 C 4.960938 -10.734375 4.71875 -9.304688 4.71875 -7.796875 C 4.71875 -6.578125 4.898438 -5.375 5.265625 -4.1875 C 5.640625 -3 6.222656 -1.9375 7.015625 -1 C 7.804688 -0.0703125 8.828125 0.675781 10.078125 1.25 C 11.335938 1.832031 12.867188 2.125 14.671875 2.125 C 14.816406 2.125 14.960938 2.109375 15.109375 2.078125 C 15.253906 2.054688 15.394531 2.046875 15.53125 2.046875 C 14.789062 -0.203125 14.125 -2.957031 13.53125 -6.21875 C 12.945312 -9.476562 12.65625 -13.269531 12.65625 -17.59375 C 12.65625 -21.613281 12.894531 -25.160156 13.375 -28.234375 C 13.851562 -31.304688 14.414062 -33.957031 15.0625 -36.1875 C 15.71875 -38.414062 16.382812 -40.253906 17.0625 -41.703125 C 17.75 -43.148438 18.296875 -44.269531 18.703125 -45.0625 L 19.75 -44.84375 C 19.53125 -43.8125 19.253906 -42.398438 18.921875 -40.609375 C 18.585938 -38.828125 18.253906 -36.632812 17.921875 -34.03125 C 17.597656 -31.4375 17.316406 -28.398438 17.078125 -24.921875 C 16.835938 -21.441406 16.71875 -17.507812 16.71875 -13.125 C 16.71875 -10.65625 16.789062 -8.164062 16.9375 -5.65625 C 17.082031 -3.15625 17.300781 -0.632812 17.59375 1.90625 C 20.488281 1.59375 23.191406 0.863281 25.703125 -0.28125 C 28.222656 -1.4375 30.519531 -2.890625 32.59375 -4.640625 C 34.675781 -6.390625 36.519531 -8.378906 38.125 -10.609375 C 39.726562 -12.835938 41.085938 -15.1875 42.203125 -17.65625 C 43.316406 -20.125 44.160156 -22.648438 44.734375 -25.234375 C 45.316406 -27.828125 45.609375 -30.363281 45.609375 -32.84375 C 45.609375 -36.101562 45.101562 -38.894531 44.09375 -41.21875 C 43.082031 -43.539062 41.773438 -45.4375 40.171875 -46.90625 C 38.566406 -48.382812 36.75 -49.460938 34.71875 -50.140625 C 32.695312 -50.828125 30.679688 -51.171875 28.671875 -51.171875 C 26.671875 -51.171875 24.820312 -51.039062 23.125 -50.78125 C 21.425781 -50.519531 19.863281 -50.171875 18.4375 -49.734375 C 17.007812 -49.304688 15.710938 -48.820312 14.546875 -48.28125 C 13.378906 -47.738281 12.34375 -47.179688 11.4375 -46.609375 C 9.28125 -45.265625 7.503906 -43.742188 6.109375 -42.046875 L 4.921875 -42.875 C 4.953125 -42.914062 5.175781 -43.1875 5.59375 -43.6875 C 6.007812 -44.195312 6.632812 -44.8125 7.46875 -45.53125 C 8.3125 -46.25 9.375 -47.015625 10.65625 -47.828125 C 11.945312 -48.648438 13.457031 -49.410156 15.1875 -50.109375 C 16.925781 -50.816406 18.914062 -51.40625 21.15625 -51.875 C 23.40625 -52.34375 25.910156 -52.578125 28.671875 -52.578125 C 31.972656 -52.578125 34.929688 -52.144531 37.546875 -51.28125 C 40.160156 -50.414062 42.367188 -49.140625 44.171875 -47.453125 C 45.984375 -45.765625 47.367188 -43.675781 48.328125 -41.1875 C 49.296875 -38.707031 49.78125 -35.851562 49.78125 -32.625 C 49.78125 -28.832031 49.285156 -25.347656 48.296875 -22.171875 C 47.316406 -18.992188 46 -16.113281 44.34375 -13.53125 C 42.6875 -10.957031 40.78125 -8.6875 38.625 -6.71875 C 36.46875 -4.757812 34.203125 -3.078125 31.828125 -1.671875 C 29.453125 -0.265625 27.050781 0.847656 24.625 1.671875 C 22.207031 2.492188 19.921875 3.039062 17.765625 3.3125 C 17.835938 3.757812 17.910156 4.1875 17.984375 4.59375 C 18.054688 5.007812 18.128906 5.441406 18.203125 5.890625 L 17.015625 6.046875 C 16.867188 5.660156 16.703125 5.25 16.515625 4.8125 C 16.335938 4.382812 16.15625 3.929688 15.96875 3.453125 C 15.75 3.503906 15.53125 3.53125 15.3125 3.53125 C 15.101562 3.53125 14.890625 3.53125 14.671875 3.53125 Z M 14.671875 3.53125 "/></g></g></g><g fill="#000000" fill-opacity="1"><g transform="translate(169.617341, 173.49871)"><g><path d="M 12.375 -3.234375 C 13.71875 -3.234375 15.003906 -3.722656 16.234375 -4.703125 C 17.472656 -5.691406 18.441406 -7.117188 19.140625 -8.984375 L 18.84375 -8.984375 C 17.351562 -8.984375 15.976562 -9.234375 14.71875 -9.734375 C 13.46875 -10.242188 12.378906 -10.945312 11.453125 -11.84375 C 10.523438 -12.75 9.796875 -13.828125 9.265625 -15.078125 C 8.742188 -16.335938 8.484375 -17.722656 8.484375 -19.234375 C 8.484375 -20.078125 8.597656 -20.929688 8.828125 -21.796875 C 9.054688 -22.660156 9.410156 -23.429688 9.890625 -24.109375 C 10.367188 -24.796875 10.988281 -25.351562 11.75 -25.78125 C 12.519531 -26.21875 13.4375 -26.4375 14.5 -26.4375 C 15.351562 -26.4375 16.203125 -26.257812 17.046875 -25.90625 C 17.890625 -25.5625 18.644531 -24.96875 19.3125 -24.125 C 19.976562 -23.289062 20.519531 -22.160156 20.9375 -20.734375 C 21.363281 -19.304688 21.578125 -17.503906 21.578125 -15.328125 C 21.578125 -14.503906 21.539062 -13.691406 21.46875 -12.890625 C 21.394531 -12.085938 21.265625 -11.300781 21.078125 -10.53125 C 22.015625 -10.707031 22.847656 -11.007812 23.578125 -11.4375 C 24.304688 -11.863281 24.953125 -12.382812 25.515625 -13 C 26.078125 -13.613281 26.570312 -14.304688 27 -15.078125 C 27.4375 -15.859375 27.835938 -16.695312 28.203125 -17.59375 L 29.59375 -17.234375 C 29.09375 -15.859375 28.507812 -14.691406 27.84375 -13.734375 C 27.1875 -12.773438 26.476562 -11.972656 25.71875 -11.328125 C 24.96875 -10.679688 24.179688 -10.179688 23.359375 -9.828125 C 22.535156 -9.484375 21.675781 -9.253906 20.78125 -9.140625 C 20.445312 -7.960938 20.003906 -6.859375 19.453125 -5.828125 C 18.898438 -4.796875 18.226562 -3.894531 17.4375 -3.125 C 16.644531 -2.363281 15.726562 -1.757812 14.6875 -1.3125 C 13.644531 -0.863281 12.476562 -0.640625 11.1875 -0.640625 C 10.101562 -0.640625 9.015625 -0.863281 7.921875 -1.3125 C 6.835938 -1.757812 5.859375 -2.441406 4.984375 -3.359375 C 4.109375 -4.285156 3.398438 -5.445312 2.859375 -6.84375 C 2.316406 -8.25 2.046875 -9.925781 2.046875 -11.875 C 2.046875 -13.144531 2.195312 -14.390625 2.5 -15.609375 C 2.800781 -16.828125 3.21875 -17.984375 3.75 -19.078125 C 4.289062 -20.171875 4.929688 -21.191406 5.671875 -22.140625 C 6.421875 -23.085938 7.226562 -23.90625 8.09375 -24.59375 L 8.625 -23.703125 C 8.070312 -23.203125 7.546875 -22.578125 7.046875 -21.828125 C 6.546875 -21.085938 6.09375 -20.265625 5.6875 -19.359375 C 5.28125 -18.460938 4.957031 -17.515625 4.71875 -16.515625 C 4.476562 -15.523438 4.359375 -14.539062 4.359375 -13.5625 C 4.359375 -11.613281 4.601562 -9.976562 5.09375 -8.65625 C 5.582031 -7.34375 6.207031 -6.285156 6.96875 -5.484375 C 7.738281 -4.679688 8.601562 -4.101562 9.5625 -3.75 C 10.519531 -3.40625 11.457031 -3.234375 12.375 -3.234375 Z M 14.421875 -25.03125 C 13.773438 -25.03125 13.175781 -24.890625 12.625 -24.609375 C 12.070312 -24.335938 11.59375 -23.960938 11.1875 -23.484375 C 10.78125 -23.003906 10.457031 -22.425781 10.21875 -21.75 C 9.976562 -21.082031 9.859375 -20.34375 9.859375 -19.53125 C 9.859375 -18.113281 10.097656 -16.84375 10.578125 -15.71875 C 11.054688 -14.59375 11.707031 -13.632812 12.53125 -12.84375 C 13.363281 -12.050781 14.328125 -11.441406 15.421875 -11.015625 C 16.523438 -10.597656 17.710938 -10.390625 18.984375 -10.390625 L 19.671875 -10.390625 C 19.859375 -11.140625 19.988281 -11.921875 20.0625 -12.734375 C 20.132812 -13.546875 20.171875 -14.429688 20.171875 -15.390625 C 20.128906 -17.234375 19.945312 -18.769531 19.625 -20 C 19.300781 -21.238281 18.882812 -22.226562 18.375 -22.96875 C 17.875 -23.71875 17.28125 -24.25 16.59375 -24.5625 C 15.914062 -24.875 15.191406 -25.03125 14.421875 -25.03125 Z M 14.421875 -25.03125 "/></g></g></g><g fill="#000000" fill-opacity="1"><g transform="translate(194.428469, 173.49871)"><g><path d="M 12.015625 -18.703125 C 12.015625 -20.140625 12.351562 -21.382812 13.03125 -22.4375 C 13.71875 -23.5 14.601562 -24.519531 15.6875 -25.5 C 15.34375 -25.71875 14.976562 -25.878906 14.59375 -25.984375 C 14.21875 -26.085938 13.847656 -26.140625 13.484375 -26.140625 C 12.691406 -26.140625 11.847656 -25.941406 10.953125 -25.546875 C 10.054688 -25.148438 9.226562 -24.484375 8.46875 -23.546875 C 7.71875 -22.617188 7.085938 -21.367188 6.578125 -19.796875 C 6.078125 -18.222656 5.828125 -16.265625 5.828125 -13.921875 C 5.828125 -11.972656 6.0625 -10.300781 6.53125 -8.90625 C 7 -7.519531 7.640625 -6.378906 8.453125 -5.484375 C 9.265625 -4.585938 10.207031 -3.925781 11.28125 -3.5 C 12.363281 -3.082031 13.519531 -2.875 14.75 -2.875 C 16.207031 -2.875 17.507812 -3.25 18.65625 -4 C 19.8125 -4.757812 20.867188 -5.804688 21.828125 -7.140625 C 22.785156 -8.472656 23.675781 -10.03125 24.5 -11.8125 C 25.332031 -13.601562 26.15625 -15.53125 26.96875 -17.59375 L 28.34375 -17.234375 C 27.863281 -16.054688 27.363281 -14.84375 26.84375 -13.59375 C 26.332031 -12.34375 25.769531 -11.113281 25.15625 -9.90625 C 24.539062 -8.695312 23.867188 -7.550781 23.140625 -6.46875 C 22.410156 -5.394531 21.570312 -4.445312 20.625 -3.625 C 19.675781 -2.8125 18.613281 -2.164062 17.4375 -1.6875 C 16.269531 -1.207031 14.953125 -0.96875 13.484375 -0.96875 C 11.992188 -0.96875 10.582031 -1.210938 9.25 -1.703125 C 7.925781 -2.203125 6.757812 -2.945312 5.75 -3.9375 C 4.75 -4.9375 3.945312 -6.191406 3.34375 -7.703125 C 2.75 -9.210938 2.453125 -10.984375 2.453125 -13.015625 C 2.453125 -15.078125 2.789062 -16.992188 3.46875 -18.765625 C 4.15625 -20.546875 5.023438 -22.082031 6.078125 -23.375 C 7.128906 -24.664062 8.289062 -25.679688 9.5625 -26.421875 C 10.832031 -27.171875 12.046875 -27.546875 13.203125 -27.546875 C 14.546875 -27.546875 15.742188 -27.195312 16.796875 -26.5 C 16.984375 -26.644531 17.164062 -26.796875 17.34375 -26.953125 C 17.53125 -27.109375 17.71875 -27.285156 17.90625 -27.484375 L 18.703125 -26.359375 C 18.554688 -26.210938 18.410156 -26.078125 18.265625 -25.953125 C 18.117188 -25.835938 17.976562 -25.710938 17.84375 -25.578125 C 18.269531 -25.046875 18.617188 -24.421875 18.890625 -23.703125 C 19.171875 -22.984375 19.3125 -22.179688 19.3125 -21.296875 C 19.3125 -20.304688 19.195312 -19.429688 18.96875 -18.671875 C 18.738281 -17.921875 18.425781 -17.28125 18.03125 -16.75 C 17.632812 -16.226562 17.1875 -15.832031 16.6875 -15.5625 C 16.1875 -15.300781 15.660156 -15.171875 15.109375 -15.171875 C 14.816406 -15.171875 14.488281 -15.238281 14.125 -15.375 C 13.769531 -15.507812 13.4375 -15.710938 13.125 -15.984375 C 12.8125 -16.265625 12.546875 -16.625 12.328125 -17.0625 C 12.117188 -17.507812 12.015625 -18.054688 12.015625 -18.703125 Z M 17.84375 -21.296875 C 17.84375 -21.984375 17.738281 -22.601562 17.53125 -23.15625 C 17.332031 -23.707031 17.0625 -24.1875 16.71875 -24.59375 C 15.832031 -23.832031 15.070312 -22.976562 14.4375 -22.03125 C 13.800781 -21.082031 13.484375 -19.972656 13.484375 -18.703125 C 13.484375 -18.023438 13.648438 -17.5 13.984375 -17.125 C 14.328125 -16.757812 14.722656 -16.578125 15.171875 -16.578125 C 15.703125 -16.578125 16.140625 -16.742188 16.484375 -17.078125 C 16.835938 -17.421875 17.109375 -17.835938 17.296875 -18.328125 C 17.492188 -18.816406 17.632812 -19.332031 17.71875 -19.875 C 17.800781 -20.414062 17.84375 -20.890625 17.84375 -21.296875 Z M 17.84375 -21.296875 "/></g></g></g><g fill="#000000" fill-opacity="1"><g transform="translate(217.98107, 173.49871)"><g><path d="M 11.25 -0.5 C 10.03125 -0.5 8.859375 -0.710938 7.734375 -1.140625 C 6.609375 -1.578125 5.617188 -2.234375 4.765625 -3.109375 C 3.910156 -3.984375 3.234375 -5.078125 2.734375 -6.390625 C 2.234375 -7.710938 1.984375 -9.265625 1.984375 -11.046875 C 1.984375 -13.203125 2.289062 -15.125 2.90625 -16.8125 C 3.53125 -18.5 4.328125 -19.925781 5.296875 -21.09375 C 6.273438 -22.257812 7.363281 -23.144531 8.5625 -23.75 C 9.757812 -24.363281 10.929688 -24.671875 12.078125 -24.671875 C 13.566406 -24.671875 14.75 -24.175781 15.625 -23.1875 C 16.5 -22.207031 16.9375 -20.941406 16.9375 -19.390625 C 16.9375 -18.046875 16.679688 -16.828125 16.171875 -15.734375 C 15.671875 -14.640625 15.007812 -13.703125 14.1875 -12.921875 C 13.363281 -12.148438 12.414062 -11.546875 11.34375 -11.109375 C 10.28125 -10.679688 9.171875 -10.46875 8.015625 -10.46875 C 7.460938 -10.46875 6.941406 -10.492188 6.453125 -10.546875 C 5.960938 -10.609375 5.523438 -10.675781 5.140625 -10.75 C 5.285156 -9.269531 5.570312 -7.988281 6 -6.90625 C 6.4375 -5.820312 6.976562 -4.929688 7.625 -4.234375 C 8.269531 -3.546875 8.992188 -3.03125 9.796875 -2.6875 C 10.597656 -2.351562 11.429688 -2.1875 12.296875 -2.1875 C 13.378906 -2.1875 14.375 -2.453125 15.28125 -2.984375 C 16.195312 -3.515625 17.035156 -4.203125 17.796875 -5.046875 C 18.566406 -5.898438 19.269531 -6.878906 19.90625 -7.984375 C 20.539062 -9.085938 21.109375 -10.207031 21.609375 -11.34375 C 22.117188 -12.488281 22.570312 -13.601562 22.96875 -14.6875 C 23.363281 -15.78125 23.71875 -16.75 24.03125 -17.59375 L 25.421875 -17.234375 C 25.109375 -16.441406 24.742188 -15.476562 24.328125 -14.34375 C 23.910156 -13.21875 23.425781 -12.035156 22.875 -10.796875 C 22.320312 -9.566406 21.671875 -8.332031 20.921875 -7.09375 C 20.179688 -5.863281 19.34375 -4.765625 18.40625 -3.796875 C 17.476562 -2.828125 16.421875 -2.035156 15.234375 -1.421875 C 14.046875 -0.804688 12.71875 -0.5 11.25 -0.5 Z M 12.15625 -23.265625 C 11.269531 -23.265625 10.398438 -22.984375 9.546875 -22.421875 C 8.691406 -21.859375 7.929688 -21.082031 7.265625 -20.09375 C 6.597656 -19.113281 6.050781 -17.953125 5.625 -16.609375 C 5.207031 -15.273438 5 -13.835938 5 -12.296875 C 5.3125 -12.179688 5.75 -12.082031 6.3125 -12 C 6.875 -11.914062 7.5625 -11.875 8.375 -11.875 C 9.238281 -11.875 10.097656 -12.054688 10.953125 -12.421875 C 11.804688 -12.796875 12.570312 -13.3125 13.25 -13.96875 C 13.9375 -14.632812 14.488281 -15.421875 14.90625 -16.328125 C 15.320312 -17.234375 15.53125 -18.226562 15.53125 -19.3125 C 15.53125 -19.84375 15.457031 -20.347656 15.3125 -20.828125 C 15.175781 -21.304688 14.960938 -21.722656 14.671875 -22.078125 C 14.378906 -22.441406 14.023438 -22.726562 13.609375 -22.9375 C 13.191406 -23.15625 12.707031 -23.265625 12.15625 -23.265625 Z M 12.15625 -23.265625 "/></g></g></g><g fill="#000000" fill-opacity="1"><g transform="translate(238.585101, 173.49871)"><g><path d="M 5.96875 -20.3125 C 5.707031 -19.625 5.445312 -18.941406 5.1875 -18.265625 C 4.9375 -17.597656 4.660156 -16.925781 4.359375 -16.25 C 4.066406 -15.582031 3.71875 -14.925781 3.3125 -14.28125 C 2.90625 -13.632812 2.410156 -12.972656 1.828125 -12.296875 L 1.546875 -12.59375 C 2.171875 -14.101562 2.722656 -15.644531 3.203125 -17.21875 C 3.679688 -18.800781 4.160156 -20.578125 4.640625 -22.546875 C 4.515625 -22.878906 4.40625 -23.164062 4.3125 -23.40625 C 4.21875 -23.644531 4.132812 -23.867188 4.0625 -24.078125 C 3.988281 -24.285156 3.925781 -24.5 3.875 -24.71875 C 3.832031 -24.945312 3.8125 -25.207031 3.8125 -25.5 C 3.8125 -25.882812 3.863281 -26.3125 3.96875 -26.78125 C 4.082031 -27.25 4.238281 -27.6875 4.4375 -28.09375 C 4.644531 -28.5 4.878906 -28.835938 5.140625 -29.109375 C 5.398438 -29.390625 5.675781 -29.53125 5.96875 -29.53125 C 6.300781 -29.53125 6.566406 -29.453125 6.765625 -29.296875 C 6.972656 -29.140625 7.132812 -28.941406 7.25 -28.703125 C 7.375 -28.460938 7.460938 -28.207031 7.515625 -27.9375 C 7.566406 -27.675781 7.59375 -27.425781 7.59375 -27.1875 C 7.59375 -26.832031 7.550781 -26.421875 7.46875 -25.953125 C 7.382812 -25.484375 7.285156 -25.023438 7.171875 -24.578125 C 7.066406 -24.140625 6.972656 -23.75 6.890625 -23.40625 C 6.804688 -23.070312 6.765625 -22.859375 6.765625 -22.765625 C 6.953125 -22.117188 7.28125 -21.457031 7.75 -20.78125 C 8.21875 -20.113281 8.75 -19.429688 9.34375 -18.734375 C 9.945312 -18.035156 10.578125 -17.304688 11.234375 -16.546875 C 11.898438 -15.796875 12.5 -15 13.03125 -14.15625 C 13.570312 -13.320312 14.015625 -12.429688 14.359375 -11.484375 C 14.710938 -10.535156 14.890625 -9.535156 14.890625 -8.484375 C 14.890625 -6.972656 14.664062 -5.75 14.21875 -4.8125 C 13.78125 -3.882812 13.1875 -3.164062 12.4375 -2.65625 C 13.519531 -3.09375 14.535156 -3.863281 15.484375 -4.96875 C 16.429688 -6.070312 17.304688 -7.332031 18.109375 -8.75 C 18.910156 -10.175781 19.648438 -11.671875 20.328125 -13.234375 C 21.015625 -14.796875 21.625 -16.25 22.15625 -17.59375 L 23.5625 -17.234375 C 22.738281 -15.140625 21.867188 -13.097656 20.953125 -11.109375 C 20.046875 -9.117188 19.015625 -7.34375 17.859375 -5.78125 C 16.710938 -4.226562 15.414062 -2.972656 13.96875 -2.015625 C 12.519531 -1.054688 10.859375 -0.578125 8.984375 -0.578125 C 8.484375 -0.578125 7.972656 -0.617188 7.453125 -0.703125 C 6.941406 -0.785156 6.441406 -0.914062 5.953125 -1.09375 C 5.460938 -1.269531 5 -1.515625 4.5625 -1.828125 C 4.132812 -2.140625 3.765625 -2.515625 3.453125 -2.953125 L 4.640625 -3.734375 C 4.859375 -3.398438 5.191406 -3.085938 5.640625 -2.796875 C 6.097656 -2.515625 6.695312 -2.375 7.4375 -2.375 C 8.164062 -2.375 8.796875 -2.519531 9.328125 -2.8125 C 9.867188 -3.113281 10.320312 -3.519531 10.6875 -4.03125 C 11.0625 -4.550781 11.335938 -5.160156 11.515625 -5.859375 C 11.703125 -6.554688 11.796875 -7.300781 11.796875 -8.09375 C 11.796875 -9.71875 11.5625 -11.117188 11.09375 -12.296875 C 10.625 -13.472656 10.070312 -14.519531 9.4375 -15.4375 C 8.800781 -16.363281 8.15625 -17.210938 7.5 -17.984375 C 6.84375 -18.753906 6.332031 -19.53125 5.96875 -20.3125 Z M 5.96875 -20.3125 "/></g></g></g><g fill="#000000" fill-opacity="1"><g transform="translate(257.362289, 173.49871)"><g/></g></g><g fill="#000000" fill-opacity="1"><g transform="translate(159.353286, 234.539398)"><g><path d="M 14.0625 -25.5 C 15.113281 -25.5 16.015625 -25.359375 16.765625 -25.078125 C 17.523438 -24.804688 18.144531 -24.523438 18.625 -24.234375 C 18.789062 -27.378906 19.066406 -30.164062 19.453125 -32.59375 C 19.835938 -35.03125 20.285156 -37.15625 20.796875 -38.96875 C 21.316406 -40.78125 21.875 -42.300781 22.46875 -43.53125 C 23.070312 -44.769531 23.6875 -45.765625 24.3125 -46.515625 C 24.9375 -47.273438 25.539062 -47.816406 26.125 -48.140625 C 26.71875 -48.460938 27.265625 -48.625 27.765625 -48.625 C 28.847656 -48.625 29.671875 -48.164062 30.234375 -47.25 C 30.796875 -46.34375 31.078125 -45.003906 31.078125 -43.234375 C 31.078125 -42.296875 30.972656 -41.097656 30.765625 -39.640625 C 30.566406 -38.191406 30.269531 -36.570312 29.875 -34.78125 C 29.476562 -33 28.992188 -31.085938 28.421875 -29.046875 C 27.859375 -27.015625 27.210938 -24.96875 26.484375 -22.90625 C 25.753906 -20.84375 24.957031 -18.804688 24.09375 -16.796875 C 23.226562 -14.785156 22.296875 -12.890625 21.296875 -11.109375 C 21.390625 -9.742188 21.535156 -8.640625 21.734375 -7.796875 C 21.941406 -6.960938 22.203125 -6.3125 22.515625 -5.84375 C 22.828125 -5.375 23.1875 -5.054688 23.59375 -4.890625 C 24 -4.722656 24.453125 -4.640625 24.953125 -4.640625 C 25.648438 -4.640625 26.320312 -4.875 26.96875 -5.34375 C 27.613281 -5.8125 28.269531 -6.5625 28.9375 -7.59375 C 29.613281 -8.625 30.3125 -9.957031 31.03125 -11.59375 C 31.75 -13.238281 32.53125 -15.238281 33.375 -17.59375 L 34.78125 -17.234375 C 34.082031 -15.378906 33.382812 -13.582031 32.6875 -11.84375 C 32 -10.113281 31.25 -8.566406 30.4375 -7.203125 C 29.632812 -5.847656 28.753906 -4.765625 27.796875 -3.953125 C 26.835938 -3.140625 25.75 -2.734375 24.53125 -2.734375 C 23.019531 -2.734375 21.84375 -3.179688 21 -4.078125 C 20.164062 -4.984375 19.546875 -6.222656 19.140625 -7.796875 C 17.742188 -5.765625 16.25 -4.140625 14.65625 -2.921875 C 13.0625 -1.710938 11.390625 -1.109375 9.640625 -1.109375 C 8.648438 -1.109375 7.703125 -1.296875 6.796875 -1.671875 C 5.890625 -2.046875 5.085938 -2.617188 4.390625 -3.390625 C 3.691406 -4.171875 3.125 -5.164062 2.6875 -6.375 C 2.257812 -7.59375 2.046875 -9.050781 2.046875 -10.75 C 2.046875 -12.53125 2.328125 -14.296875 2.890625 -16.046875 C 3.453125 -17.796875 4.253906 -19.367188 5.296875 -20.765625 C 6.347656 -22.171875 7.609375 -23.3125 9.078125 -24.1875 C 10.554688 -25.0625 12.21875 -25.5 14.0625 -25.5 Z M 10.890625 -3.171875 C 12.234375 -3.171875 13.582031 -3.757812 14.9375 -4.9375 C 16.289062 -6.125 17.59375 -7.691406 18.84375 -9.640625 C 18.695312 -10.765625 18.597656 -11.960938 18.546875 -13.234375 C 18.503906 -14.503906 18.484375 -15.859375 18.484375 -17.296875 C 18.484375 -18.210938 18.484375 -19.117188 18.484375 -20.015625 C 18.484375 -20.910156 18.507812 -21.78125 18.5625 -22.625 C 18.4375 -22.71875 18.257812 -22.847656 18.03125 -23.015625 C 17.800781 -23.179688 17.515625 -23.347656 17.171875 -23.515625 C 16.828125 -23.679688 16.429688 -23.816406 15.984375 -23.921875 C 15.546875 -24.035156 15.050781 -24.09375 14.5 -24.09375 C 13.675781 -24.09375 12.75 -23.863281 11.71875 -23.40625 C 10.6875 -22.957031 9.707031 -22.222656 8.78125 -21.203125 C 7.863281 -20.179688 7.09375 -18.851562 6.46875 -17.21875 C 5.84375 -15.59375 5.53125 -13.601562 5.53125 -11.25 C 5.53125 -10.125 5.65625 -9.070312 5.90625 -8.09375 C 6.164062 -7.113281 6.53125 -6.253906 7 -5.515625 C 7.46875 -4.785156 8.03125 -4.210938 8.6875 -3.796875 C 9.34375 -3.378906 10.078125 -3.171875 10.890625 -3.171875 Z M 29.671875 -43.234375 C 29.671875 -43.585938 29.648438 -43.992188 29.609375 -44.453125 C 29.578125 -44.910156 29.5 -45.335938 29.375 -45.734375 C 29.257812 -46.128906 29.085938 -46.460938 28.859375 -46.734375 C 28.628906 -47.015625 28.3125 -47.15625 27.90625 -47.15625 C 26.925781 -47.15625 26.019531 -46.335938 25.1875 -44.703125 C 24.363281 -43.078125 23.648438 -40.828125 23.046875 -37.953125 C 22.453125 -35.085938 21.984375 -31.722656 21.640625 -27.859375 C 21.304688 -24.003906 21.140625 -19.847656 21.140625 -15.390625 L 21.140625 -13.78125 C 21.960938 -15.382812 22.742188 -17.097656 23.484375 -18.921875 C 24.222656 -20.742188 24.910156 -22.578125 25.546875 -24.421875 C 26.179688 -26.265625 26.75 -28.097656 27.25 -29.921875 C 27.757812 -31.742188 28.191406 -33.472656 28.546875 -35.109375 C 28.910156 -36.753906 29.1875 -38.269531 29.375 -39.65625 C 29.570312 -41.050781 29.671875 -42.242188 29.671875 -43.234375 Z M 29.671875 -43.234375 "/></g></g></g><g fill="#000000" fill-opacity="1"><g transform="translate(189.344397, 234.539398)"><g><path d="M 31.078125 -17.234375 C 30.085938 -14.566406 29.191406 -12.332031 28.390625 -10.53125 C 27.585938 -8.738281 26.804688 -7.289062 26.046875 -6.1875 C 25.296875 -5.082031 24.546875 -4.289062 23.796875 -3.8125 C 23.054688 -3.332031 22.242188 -3.09375 21.359375 -3.09375 C 20.285156 -3.09375 19.363281 -3.46875 18.59375 -4.21875 C 17.820312 -4.976562 17.34375 -6.148438 17.15625 -7.734375 C 16.382812 -6.078125 15.390625 -4.726562 14.171875 -3.6875 C 12.953125 -2.644531 11.414062 -2.125 9.5625 -2.125 C 8.582031 -2.125 7.640625 -2.300781 6.734375 -2.65625 C 5.835938 -3.019531 5.039062 -3.578125 4.34375 -4.328125 C 3.65625 -5.085938 3.097656 -6.039062 2.671875 -7.1875 C 2.253906 -8.34375 2.046875 -9.695312 2.046875 -11.25 C 2.046875 -12.832031 2.242188 -14.316406 2.640625 -15.703125 C 3.035156 -17.097656 3.554688 -18.378906 4.203125 -19.546875 C 4.847656 -20.710938 5.597656 -21.75 6.453125 -22.65625 C 7.304688 -23.570312 8.1875 -24.335938 9.09375 -24.953125 C 10.007812 -25.578125 10.921875 -26.054688 11.828125 -26.390625 C 12.742188 -26.734375 13.582031 -26.90625 14.34375 -26.90625 C 15.019531 -26.90625 15.671875 -26.816406 16.296875 -26.640625 C 16.921875 -26.472656 17.476562 -26.203125 17.96875 -25.828125 C 18.457031 -25.460938 18.847656 -24.96875 19.140625 -24.34375 C 19.441406 -23.71875 19.59375 -22.941406 19.59375 -22.015625 C 19.59375 -20.910156 19.382812 -19.945312 18.96875 -19.125 C 18.550781 -18.3125 18.046875 -17.628906 17.453125 -17.078125 C 16.867188 -16.523438 16.269531 -16.082031 15.65625 -15.75 C 15.050781 -15.414062 14.566406 -15.175781 14.203125 -15.03125 L 13.78125 -16.4375 C 13.84375 -16.4375 14.109375 -16.53125 14.578125 -16.71875 C 15.046875 -16.914062 15.535156 -17.234375 16.046875 -17.671875 C 16.566406 -18.117188 17.039062 -18.6875 17.46875 -19.375 C 17.90625 -20.070312 18.125 -20.925781 18.125 -21.9375 C 18.125 -23.09375 17.800781 -23.972656 17.15625 -24.578125 C 16.507812 -25.191406 15.679688 -25.5 14.671875 -25.5 C 13.898438 -25.5 13 -25.222656 11.96875 -24.671875 C 10.945312 -24.117188 9.960938 -23.253906 9.015625 -22.078125 C 8.066406 -20.898438 7.257812 -19.410156 6.59375 -17.609375 C 5.9375 -15.816406 5.609375 -13.675781 5.609375 -11.1875 C 5.609375 -8.71875 6.046875 -6.832031 6.921875 -5.53125 C 7.796875 -4.238281 8.976562 -3.59375 10.46875 -3.59375 C 11.207031 -3.59375 11.914062 -3.800781 12.59375 -4.21875 C 13.28125 -4.644531 13.910156 -5.203125 14.484375 -5.890625 C 15.066406 -6.585938 15.582031 -7.394531 16.03125 -8.3125 C 16.488281 -9.238281 16.890625 -10.195312 17.234375 -11.1875 C 17.234375 -11.957031 17.320312 -12.863281 17.5 -13.90625 C 17.675781 -14.945312 17.957031 -16.003906 18.34375 -17.078125 L 20.53125 -16.359375 C 20.414062 -16.046875 20.296875 -15.640625 20.171875 -15.140625 C 20.054688 -14.640625 19.941406 -14.085938 19.828125 -13.484375 C 19.722656 -12.890625 19.632812 -12.273438 19.5625 -11.640625 C 19.488281 -11.003906 19.453125 -10.382812 19.453125 -9.78125 C 19.453125 -7.914062 19.640625 -6.628906 20.015625 -5.921875 C 20.390625 -5.210938 21.03125 -4.859375 21.9375 -4.859375 C 22.46875 -4.859375 22.988281 -5.046875 23.5 -5.421875 C 24.019531 -5.804688 24.578125 -6.476562 25.171875 -7.4375 C 25.773438 -8.40625 26.4375 -9.707031 27.15625 -11.34375 C 27.875 -12.988281 28.710938 -15.070312 29.671875 -17.59375 Z M 31.078125 -17.234375 "/></g></g></g><g fill="#000000" fill-opacity="1"><g transform="translate(215.632964, 234.539398)"><g/></g></g><g clip-path="url(#ecea700829)"><path fill="#ffffff" d="M 217.976562 77.113281 C 217.679688 76.820312 217.382812 76.527344 217.085938 76.230469 C 216.761719 75.90625 216.976562 75.714844 216.992188 75.332031 C 217 75.144531 216.992188 74.976562 216.898438 74.808594 C 216.757812 74.550781 216.417969 74.253906 216.898438 73.996094 C 217.171875 73.851562 217.117188 73.882812 217.371094 73.679688 C 217.433594 73.632812 217.40625 73.539062 217.351562 73.503906 C 216.289062 72.800781 215.070312 72.3125 214.152344 71.445312 C 213.804688 71.125 213.382812 71.546875 213.050781 71.738281 C 213.027344 71.710938 213.003906 71.679688 212.980469 71.652344 C 212.335938 70.921875 211.527344 70.375 210.589844 70.136719 C 210.339844 69.964844 210.070312 69.839844 209.78125 69.800781 C 209.441406 69.75 209.089844 69.765625 208.746094 69.78125 C 208.566406 69.789062 208.390625 69.800781 208.214844 69.816406 C 208.171875 69.820312 208.128906 69.824219 208.089844 69.824219 C 208.074219 69.769531 208.019531 69.726562 207.949219 69.75 C 207.867188 69.78125 207.773438 69.800781 207.707031 69.863281 C 208.503906 68.792969 208.949219 67.523438 208.738281 66.085938 C 208.300781 63.113281 204.253906 62.785156 202.332031 61.191406 C 199.855469 59.132812 202.535156 54.046875 199.070312 52.605469 C 198.710938 52.457031 198.3125 52.425781 197.929688 52.410156 C 197.144531 52.378906 197.34375 52.097656 197.121094 51.410156 C 196.816406 50.457031 196.09375 49.703125 195.339844 49.070312 C 193.765625 47.753906 191.761719 46.804688 191.214844 44.820312 C 194.195312 45.277344 201.136719 45.769531 198.253906 42.34375 C 196.75 40.363281 192.90625 42.269531 191.085938 44.074219 C 191.082031 44 191.078125 43.925781 191.074219 43.851562 C 192.78125 40.675781 193.640625 35.582031 190.777344 35.378906 C 187.914062 36.476562 188.421875 40.550781 190.042969 44.046875 C 190.039062 44.046875 190.03125 44.042969 190.027344 44.042969 C 189.503906 43.0625 188.617188 41.65625 187.601562 40.644531 C 186.441406 39.46875 185.121094 38.800781 184.042969 39.902344 C 183.441406 40.449219 183.207031 40.925781 183.230469 41.34375 C 183.113281 43.320312 188.011719 43.882812 189.847656 44.457031 C 189.84375 44.476562 189.839844 44.492188 189.839844 44.511719 C 189.816406 44.539062 189.789062 44.566406 189.765625 44.59375 C 188.675781 44.585938 187.066406 45.082031 185.96875 45.898438 C 185.945312 45.914062 185.925781 45.929688 185.902344 45.945312 C 185.886719 45.960938 185.871094 45.972656 185.851562 45.988281 C 185.730469 46.082031 185.617188 46.175781 185.519531 46.277344 C 185.179688 46.609375 184.929688 46.980469 184.820312 47.382812 C 183.785156 47.714844 182.742188 48 181.789062 48.320312 C 179.066406 49.226562 176.445312 50.632812 176.390625 53.8125 C 176.390625 53.886719 176.449219 53.925781 176.507812 53.925781 L 176.503906 54.5625 C 175.960938 54.59375 175.429688 54.675781 174.917969 54.828125 C 172.882812 55.429688 171.082031 57.703125 170.214844 59.53125 C 169.984375 60.019531 169.65625 60.90625 170.125 61.371094 C 170.558594 61.804688 171.238281 61.777344 171.867188 61.644531 C 169.628906 63.25 169.679688 66.519531 167.632812 68.371094 C 167.550781 68.441406 167.617188 68.566406 167.714844 68.570312 C 167.941406 68.574219 168.164062 68.605469 168.386719 68.640625 L 168.335938 69.433594 C 166.675781 69.351562 165.605469 70.859375 165.078125 72.253906 C 165.0625 72.300781 165.046875 72.347656 165.03125 72.394531 C 164.265625 72.535156 163.382812 72.9375 162.570312 73.5625 C 162.492188 73.582031 162.421875 73.605469 162.351562 73.632812 C 162.300781 73.644531 162.238281 73.667969 162.109375 73.710938 C 161.875 73.789062 161.628906 73.746094 161.394531 73.75 C 161.375 73.742188 161.355469 73.734375 161.335938 73.726562 L 161.15625 73.785156 C 161.144531 73.789062 161.136719 73.789062 161.125 73.792969 C 160.824219 73.890625 160.523438 73.992188 160.222656 74.089844 C 160.175781 74.105469 160.132812 74.148438 160.136719 74.199219 C 160.152344 74.367188 160.375 75.492188 160.363281 75.796875 C 159.980469 75.757812 159.558594 75.699219 159.25 75.824219 C 159.074219 75.851562 158.914062 75.917969 158.785156 76.046875 C 158.609375 76.21875 158.589844 76.707031 158.738281 76.929688 C 158.109375 77.28125 157.515625 77.714844 157.136719 78.332031 C 157.097656 78.398438 157.136719 78.476562 157.203125 78.5 C 157.628906 78.636719 157.871094 78.546875 158.230469 78.300781 C 158.363281 78.085938 158.347656 78.148438 158.1875 78.488281 C 158.121094 78.621094 158.058594 78.75 157.992188 78.882812 C 157.882812 79.101562 157.769531 79.316406 157.726562 79.558594 C 157.71875 79.617188 157.742188 79.679688 157.808594 79.695312 C 157.878906 79.714844 157.953125 79.734375 158.03125 79.757812 C 158.023438 79.785156 158.023438 79.8125 158.039062 79.84375 C 161.734375 86.613281 161.933594 94.6875 165.503906 101.515625 C 166.859375 104.105469 168.832031 106.285156 171.511719 107.441406 C 171.53125 107.484375 171.574219 107.5 171.621094 107.488281 C 171.910156 107.609375 172.203125 107.722656 172.507812 107.820312 C 174.976562 108.601562 177.660156 108.980469 180.199219 109.488281 C 182.972656 110.042969 185.777344 110.492188 188.609375 110.625 C 193.0625 110.832031 197.707031 109.875 202.003906 108.796875 C 204.132812 108.265625 206.289062 107.628906 208.226562 106.585938 C 208.894531 106.230469 209.539062 105.773438 210.03125 105.195312 C 210.304688 104.871094 210.414062 104.523438 210.457031 104.160156 C 210.460938 104.152344 210.457031 104.144531 210.457031 104.132812 C 211.125 94.773438 215.980469 86.417969 217.792969 77.324219 C 217.792969 77.324219 217.792969 77.324219 217.792969 77.320312 C 217.792969 77.316406 217.878906 77.308594 217.921875 77.300781 C 218.007812 77.289062 218.03125 77.167969 217.976562 77.113281 Z M 217.976562 77.113281 " fill-opacity="1" fill-rule="nonzero"/></g><path fill="#fa82b2" d="M 162.628906 73.707031 C 163.824219 72.902344 163.808594 72.636719 165.070312 72.585938 L 165.082031 72.253906 C 163.492188 79.273438 174.433594 79.789062 176.828125 80.054688 C 190.554688 81.097656 192.828125 82.160156 203.394531 79.167969 C 205.636719 78.5625 215.867188 74.585938 210.113281 70.152344 C 211.449219 70.300781 212.417969 71.140625 213.089844 71.953125 C 213.792969 72.792969 214.179688 73.601562 214.332031 73.601562 C 216.691406 75.996094 215.78125 76.296875 215.179688 78.691406 L 215.179688 78.707031 C 214.90625 78.691406 214.613281 78.691406 214.277344 78.691406 C 214.875 82.878906 213.066406 79.585938 211.558594 80.789062 C 210.953125 81.085938 210.953125 82.878906 210.046875 83.183594 C 209.445312 83.183594 207.332031 82.585938 207.027344 82.585938 C 206.730469 82.878906 203.710938 84.679688 204.015625 84.679688 C 203.710938 84.679688 201.597656 84.378906 201.597656 84.378906 C 199.183594 84.980469 197.976562 83.183594 196.167969 85.867188 C 195.980469 85.667969 195.328125 84.980469 195.5625 84.980469 L 195.257812 84.980469 C 193.75 84.679688 193.148438 85.875 191.640625 85.875 C 190.734375 85.875 187.714844 85.273438 187.410156 85.273438 C 186.207031 84.980469 184.390625 84.679688 182.886719 84.679688 C 181.976562 84.679688 181.378906 86.167969 180.472656 86.167969 C 179.867188 86.167969 178.964844 84.378906 178.964844 84.378906 C 177.753906 84.378906 175.945312 84.679688 174.433594 84.679688 C 172.625 84.980469 172.625 81.980469 169.300781 84.679688 C 169 84.078125 168.703125 83.183594 168.703125 82.878906 C 168.398438 82.878906 167.492188 83.480469 167.492188 83.480469 C 165.683594 82.878906 166.886719 82.585938 165.078125 82.878906 C 164.472656 82.585938 164.777344 81.980469 164.472656 81.378906 C 163.875 81.378906 163.269531 81.683594 162.664062 81.378906 C 162.964844 80.789062 162.664062 79.890625 162.664062 78.992188 C 162.058594 79.289062 160.855469 79.585938 160.25 79.890625 C 160.25 79.890625 160.25 79.585938 160.25 79.289062 C 160.125 79.339844 160.007812 79.386719 159.90625 79.425781 C 159.601562 78.175781 159.847656 77 160.429688 75.992188 C 160.472656 75.996094 160.511719 75.996094 160.550781 75.996094 C 160.550781 75.957031 160.546875 75.890625 160.53125 75.816406 C 161.046875 74.988281 161.789062 74.265625 162.628906 73.707031 Z M 162.628906 73.707031 " fill-opacity="1" fill-rule="nonzero"/><path fill="#97cfb6" d="M 171.78125 107.207031 C 162.636719 103.488281 163.089844 88.640625 158.316406 80.015625 L 158.480469 79.53125 C 159.101562 79.683594 159.152344 79.632812 160.085938 79.25 C 160.1875 79.210938 160.300781 79.164062 160.425781 79.113281 C 160.425781 79.410156 160.425781 79.714844 160.425781 79.714844 C 161.03125 79.410156 162.238281 79.113281 162.839844 78.816406 C 162.839844 79.714844 163.144531 80.613281 162.839844 81.203125 C 163.445312 81.507812 164.050781 81.203125 164.652344 81.203125 C 164.953125 81.804688 164.652344 82.410156 165.257812 82.703125 C 167.066406 82.410156 165.859375 82.703125 167.671875 83.304688 C 167.671875 83.304688 168.578125 82.703125 168.878906 82.703125 C 168.878906 83.007812 169.175781 83.902344 169.480469 84.503906 L 170.085938 85.402344 C 171.78125 91.65625 174.816406 102.007812 174.816406 107.09375 L 174.625 107.984375 C 174.417969 107.9375 174.210938 107.894531 174.011719 107.851562 C 173.210938 107.707031 172.46875 107.488281 171.78125 107.207031 Z M 171.78125 107.207031 " fill-opacity="1" fill-rule="nonzero"/><path fill="#97cfb6" d="M 160.710938 75.640625 C 160.648438 75.195312 160.425781 74.28125 160.425781 74.027344 L 161.335938 73.726562 C 161.925781 74.019531 162.226562 73.546875 162.804688 73.53125 C 161.964844 74.089844 161.222656 74.8125 160.710938 75.640625 Z M 160.710938 75.640625 " fill-opacity="1" fill-rule="nonzero"/><g clip-path="url(#42720bff77)"><path fill="#97cfb6" d="M 160.609375 75.816406 C 160.023438 76.824219 159.777344 78 160.085938 79.25 C 159.152344 79.632812 159.101562 79.683594 158.480469 79.53125 C 158.355469 79.496094 158.199219 79.453125 158.011719 79.410156 C 158.011719 79.113281 158.617188 78.21875 158.617188 77.917969 C 158.316406 77.917969 158.011719 78.515625 157.410156 78.21875 C 157.691406 77.65625 158.511719 77.085938 159.113281 76.78125 C 159.140625 76.78125 159.183594 76.761719 159.222656 76.71875 C 159.1875 76.734375 159.152344 76.753906 159.113281 76.78125 C 158.921875 76.78125 158.921875 76.121094 158.921875 76.121094 C 159.203125 75.566406 160.015625 75.785156 160.609375 75.816406 Z M 160.609375 75.816406 " fill-opacity="1" fill-rule="nonzero"/></g><path fill="#97cfb6" d="M 214.574219 72.105469 C 215.480469 72.402344 216.386719 73.007812 217.289062 73.601562 C 216.988281 73.902344 216.691406 73.902344 216.386719 74.203125 C 216.988281 75.101562 216.988281 75.101562 216.691406 75.996094 C 216.988281 76.296875 217.59375 76.894531 217.894531 77.191406 L 217.648438 77.230469 L 216.085938 77.496094 C 216.085938 77.796875 216.691406 78.691406 216.386719 78.992188 C 216.011719 78.800781 215.625 78.730469 215.179688 78.707031 L 215.179688 78.691406 C 215.78125 76.296875 216.691406 75.996094 214.332031 73.601562 C 214.179688 73.601562 213.792969 72.792969 213.089844 71.953125 C 213.6875 71.597656 213.796875 71.066406 214.574219 72.105469 Z M 214.574219 72.105469 " fill-opacity="1" fill-rule="nonzero"/><path fill="#fa82b2" d="M 181.847656 75.621094 C 184.359375 70.015625 177.136719 73.75 174.941406 73.75 C 172.113281 73.75 166.773438 71.257812 170.855469 68.140625 C 169.304688 68.910156 169.242188 68.625 168.394531 68.5 C 168.214844 68.472656 167.996094 68.453125 167.710938 68.453125 C 169.910156 66.585938 169.601562 62.539062 172.738281 61.285156 C 166.773438 63.15625 172.113281 55.992188 174.625 55.058594 C 175.238281 54.816406 175.867188 54.695312 176.503906 54.640625 C 179.113281 54.449219 181.894531 55.558594 184.675781 55.058594 C 190.160156 53.550781 189.140625 49.398438 189.9375 44.597656 C 190.144531 44.347656 190.339844 44.074219 190.507812 43.789062 L 190.953125 43.847656 C 190.953125 48.207031 196.921875 48.207031 197.238281 52.566406 C 202.578125 51.941406 200.0625 59.109375 201.949219 60.976562 C 203.835938 63.15625 210.429688 63.15625 208.230469 68.761719 C 208.0625 69.125 207.859375 69.472656 207.617188 69.800781 C 203.320312 75.683594 187.796875 76.210938 181.847656 75.621094 Z M 181.847656 75.621094 " fill-opacity="1" fill-rule="nonzero"/><g clip-path="url(#71ff969e64)"><g mask="url(#f83258156e)"><g transform="matrix(1, 0, 0, 1, 169, 77)"><g clip-path="url(#5abee99ea8)"><g clip-path="url(#3f545b1f73)"><path fill="#97cfb6" d="M 26.5625 7.980469 C 26.328125 7.980469 26.980469 8.667969 27.167969 8.867188 C 28.976562 6.183594 30.1875 7.980469 32.601562 7.378906 C 32.601562 7.378906 34.710938 7.679688 35.015625 7.679688 C 34.710938 7.679688 37.730469 5.878906 38.027344 5.585938 C 38.332031 5.585938 40.449219 6.183594 41.046875 6.183594 C 41.953125 5.878906 41.953125 4.085938 42.558594 3.789062 C 44.066406 2.585938 45.875 5.878906 45.277344 1.691406 C 45.613281 1.691406 45.90625 1.691406 46.179688 1.707031 C 46.625 1.730469 47.011719 1.800781 47.386719 1.992188 C 47.691406 1.691406 47.085938 0.796875 47.085938 0.496094 L 48.648438 0.230469 L 48.691406 0.496094 C 46.882812 9.472656 41.953125 17.855469 41.351562 27.132812 C 41.351562 27.253906 41.351562 27.363281 41.351562 27.433594 C 40.144531 31.027344 26.5625 33.121094 23.242188 33.421875 C 19.136719 33.847656 14.410156 33.046875 9.953125 32.125 L 10.066406 31.609375 C 10.109375 30.789062 10.136719 29.769531 10.136719 28.597656 L 11.488281 28.609375 C 11.550781 22.992188 11.742188 15.226562 11.472656 10.375 L 11.472656 9.167969 C 12.378906 9.167969 12.980469 7.679688 13.886719 7.679688 C 15.394531 7.679688 17.207031 7.980469 18.414062 8.273438 C 18.714844 8.273438 21.734375 8.875 22.640625 8.875 C 24.148438 8.875 24.753906 7.679688 26.261719 7.980469 Z M 26.5625 7.980469 " fill-opacity="1" fill-rule="nonzero"/></g><g clip-path="url(#ec2c52788f)"><path fill="#97cfb6" d="M 10.066406 31.609375 L 9.953125 32.125 C 8.40625 31.804688 6.890625 31.464844 5.449219 31.160156 L 5.640625 30.269531 C 5.640625 25.183594 2.605469 14.832031 0.90625 8.578125 L 0.300781 7.679688 C 3.625 4.980469 3.625 7.980469 5.433594 7.679688 C 6.945312 7.679688 8.753906 7.378906 9.964844 7.378906 C 9.964844 7.378906 10.867188 9.167969 11.472656 9.167969 L 11.472656 10.375 C 11.742188 15.226562 11.550781 22.992188 11.488281 28.609375 L 10.136719 28.597656 C 10.136719 29.769531 10.109375 30.789062 10.066406 31.609375 Z M 10.066406 31.609375 " fill-opacity="1" fill-rule="nonzero"/></g></g></g></g></g><g mask="url(#b51d6cd42a)"><g transform="matrix(1, 0, 0, 1, 164, 44)"><g clip-path="url(#830f7ccff9)"><g clip-path="url(#93542fe024)"><path fill="#fa82b2" d="M 43.800781 25.9375 C 43.605469 26.054688 45.929688 25.617188 46.492188 26.171875 C 48.117188 27.789062 48.195312 29.207031 47.441406 30.421875 C 45.867188 32.953125 40.660156 34.582031 38.324219 35.210938 C 27.332031 38.328125 27.109375 37.261719 12.824219 36.175781 C 10.332031 35.898438 4.488281 34.875 2.050781 32.714844 C 1.71875 32.429688 1.449219 32.117188 1.261719 31.785156 C 0.0195312 29.625 1.855469 25.320312 4.332031 25.550781 L 4.394531 24.5 C 5.242188 24.625 5.304688 24.910156 6.855469 24.140625 C 2.773438 27.257812 8.113281 29.75 10.941406 29.75 C 13.136719 29.75 20.359375 26.015625 17.847656 31.621094 C 23.796875 32.210938 39.320312 31.683594 43.617188 25.800781 Z M 43.800781 25.9375 " fill-opacity="1" fill-rule="nonzero"/></g><g clip-path="url(#54629bcba9)"><path fill="#fa82b2" d="M 12.503906 10.640625 L 12.507812 9.8125 C 12.507812 3.4375 22.296875 4.882812 25.9375 0.59375 C 25.140625 5.398438 26.160156 9.546875 20.675781 11.058594 C 17.894531 11.558594 15.113281 10.449219 12.503906 10.640625 Z M 12.503906 10.640625 " fill-opacity="1" fill-rule="nonzero"/></g><path fill="#fa82b2" d="M 36.0625 17.285156 C 30.410156 22.585938 23.5 20.40625 16.59375 21.335938 C 19.414062 19.777344 35.75 16.046875 34.179688 11.992188 C 38.367188 14.011719 36.0625 17.285156 36.0625 17.285156 Z M 36.0625 17.285156 " fill-opacity="1" fill-rule="nonzero"/></g></g></g><path fill="#000000" d="M 210.464844 104.132812 C 211.128906 94.773438 215.929688 86.417969 217.804688 77.324219 C 217.832031 77.183594 217.613281 77.121094 217.585938 77.265625 C 215.707031 86.378906 210.902344 94.75 210.238281 104.132812 C 210.226562 104.277344 210.453125 104.277344 210.464844 104.132812 Z M 210.464844 104.132812 " fill-opacity="1" fill-rule="nonzero"/><g clip-path="url(#7ca3f5c28f)"><path fill="#000000" d="M 158.039062 79.84375 C 161.734375 86.613281 161.933594 94.6875 165.503906 101.515625 C 167.023438 104.417969 169.316406 106.808594 172.507812 107.820312 C 174.976562 108.601562 177.664062 108.980469 180.199219 109.488281 C 182.972656 110.042969 185.777344 110.492188 188.609375 110.625 C 193.066406 110.832031 197.710938 109.875 202.007812 108.796875 C 204.132812 108.265625 206.289062 107.628906 208.226562 106.585938 C 208.894531 106.230469 209.539062 105.773438 210.03125 105.195312 C 210.609375 104.511719 210.464844 103.707031 210.464844 102.90625 C 210.464844 102.707031 210.238281 102.707031 210.238281 102.90625 C 210.238281 103.707031 210.347656 104.472656 209.789062 105.132812 C 209.339844 105.664062 208.714844 106.050781 208.113281 106.386719 C 206.550781 107.257812 204.789062 107.796875 203.070312 108.28125 C 199.757812 109.207031 196.328125 109.839844 192.90625 110.234375 C 187.492188 110.863281 182.085938 109.6875 176.820312 108.550781 C 174.667969 108.085938 172.445312 107.796875 170.5 106.710938 C 168.925781 105.835938 167.671875 104.5 166.667969 103.027344 C 164.332031 99.597656 163.289062 95.382812 162.234375 91.433594 C 161.171875 87.464844 160.222656 83.367188 158.238281 79.730469 C 158.167969 79.601562 157.972656 79.714844 158.039062 79.84375 Z M 158.039062 79.84375 " fill-opacity="1" fill-rule="nonzero"/></g><g clip-path="url(#35b3b25cee)"><path fill="#000000" d="M 162.667969 73.585938 C 162.339844 73.628906 162.410156 73.609375 162.109375 73.710938 C 161.785156 73.820312 161.429688 73.691406 161.128906 73.792969 C 160.824219 73.890625 160.523438 73.992188 160.222656 74.089844 C 160.175781 74.105469 160.132812 74.148438 160.136719 74.199219 C 160.152344 74.394531 160.449219 75.878906 160.34375 75.875 C 159.855469 75.851562 159.183594 75.648438 158.785156 76.046875 C 158.519531 76.308594 158.605469 77.289062 159.101562 76.992188 C 159.226562 76.914062 159.117188 76.730469 158.988281 76.796875 C 158.269531 77.171875 157.5625 77.632812 157.136719 78.332031 C 157.097656 78.398438 157.136719 78.476562 157.203125 78.5 C 157.628906 78.636719 157.871094 78.546875 158.230469 78.300781 C 158.363281 78.085938 158.347656 78.148438 158.1875 78.488281 C 158.121094 78.621094 158.058594 78.75 157.992188 78.882812 C 157.882812 79.101562 157.769531 79.316406 157.726562 79.558594 C 157.71875 79.617188 157.742188 79.679688 157.808594 79.695312 C 158.144531 79.78125 158.542969 79.941406 158.902344 79.890625 C 159.359375 79.824219 160.136719 79.1875 160.136719 79.886719 C 160.136719 79.976562 160.234375 80.019531 160.308594 79.984375 C 161.015625 79.664062 161.777344 79.472656 162.496094 79.1875 C 162.644531 79.128906 162.617188 81.1875 162.554688 81.351562 C 162.535156 81.414062 162.582031 81.472656 162.636719 81.492188 C 163.074219 81.644531 163.449219 81.628906 163.902344 81.558594 C 164.722656 81.433594 164.449219 82.324219 164.773438 82.792969 C 165.132812 83.304688 165.898438 82.71875 166.410156 83.085938 C 167.003906 83.515625 167.359375 83.679688 167.957031 83.324219 C 168.25 83.152344 168.554688 82.800781 168.644531 83.230469 C 168.753906 83.75 168.980469 84.257812 169.207031 84.734375 C 169.242188 84.804688 169.332031 84.796875 169.386719 84.753906 C 170.546875 83.84375 171.628906 83.261719 172.890625 84.238281 C 173.632812 84.8125 174.167969 84.804688 175.097656 84.773438 C 176 84.738281 176.902344 84.625 177.800781 84.546875 C 177.882812 84.542969 178.867188 84.4375 178.875 84.453125 C 178.945312 84.585938 179.019531 84.71875 179.09375 84.851562 C 179.359375 85.3125 179.972656 86.5 180.691406 86.257812 C 181.128906 86.113281 181.433594 85.824219 181.757812 85.503906 C 182.53125 84.746094 183.207031 84.769531 184.234375 84.855469 C 185.664062 84.972656 187.070312 85.3125 188.480469 85.550781 C 189.601562 85.738281 190.785156 86.03125 191.929688 85.96875 C 192.449219 85.941406 192.945312 85.6875 193.402344 85.460938 C 194.152344 85.089844 194.753906 85.085938 195.5625 85.085938 C 195.542969 85.015625 195.523438 84.949219 195.503906 84.878906 C 195.492188 84.882812 195.476562 84.890625 195.460938 84.898438 C 195.425781 84.914062 195.40625 84.957031 195.40625 84.996094 C 195.414062 85.410156 195.9375 85.648438 196.113281 85.972656 C 196.171875 85.929688 196.230469 85.882812 196.289062 85.835938 C 196.175781 85.722656 197.402344 84.742188 197.496094 84.683594 C 197.84375 84.472656 198.261719 84.441406 198.65625 84.453125 C 199.320312 84.464844 199.964844 84.621094 200.632812 84.617188 C 201.210938 84.617188 201.675781 84.5 202.253906 84.578125 C 202.835938 84.660156 203.425781 84.761719 204.011719 84.789062 C 204.148438 84.792969 204.15625 84.609375 204.042969 84.566406 C 204.25 84.640625 203.996094 84.765625 204.292969 84.542969 C 204.410156 84.457031 204.53125 84.378906 204.652344 84.296875 C 204.964844 84.082031 205.289062 83.878906 205.605469 83.675781 C 205.921875 83.472656 206.804688 82.652344 207.175781 82.710938 C 208.042969 82.851562 208.882812 83.132812 209.75 83.265625 C 210.339844 83.355469 210.632812 82.910156 210.863281 82.425781 C 211.242188 81.628906 211.351562 80.582031 212.480469 80.621094 C 212.988281 80.640625 213.429688 80.964844 213.933594 81.007812 C 214.28125 81.039062 214.421875 80.710938 214.476562 80.433594 C 214.550781 80.078125 214.5 79.691406 214.46875 79.335938 C 214.390625 78.402344 215.769531 78.839844 216.328125 79.085938 C 216.386719 79.109375 216.453125 79.105469 216.484375 79.046875 C 216.65625 78.75 216.410156 77.550781 216.140625 77.597656 C 216.738281 77.5 217.332031 77.398438 217.925781 77.300781 C 218.011719 77.285156 218.03125 77.167969 217.976562 77.113281 C 217.679688 76.820312 217.382812 76.527344 217.089844 76.230469 C 216.761719 75.90625 216.976562 75.714844 216.992188 75.332031 C 217 75.144531 216.992188 74.976562 216.898438 74.808594 C 216.761719 74.550781 216.417969 74.253906 216.898438 73.996094 C 217.171875 73.851562 217.117188 73.882812 217.371094 73.679688 C 217.433594 73.632812 217.40625 73.539062 217.351562 73.503906 C 216.289062 72.800781 215.070312 72.3125 214.152344 71.445312 C 213.765625 71.085938 213.28125 71.65625 212.9375 71.796875 C 212.804688 71.847656 212.863281 72.066406 212.996094 72.011719 C 213.234375 71.917969 213.4375 71.808594 213.644531 71.652344 C 214.085938 71.324219 214.261719 72.109375 214.546875 72.210938 C 215.183594 72.445312 215.753906 72.757812 216.328125 73.109375 C 216.488281 73.207031 217.308594 73.519531 216.78125 73.804688 C 216.507812 73.949219 216.5625 73.917969 216.308594 74.121094 C 216.269531 74.148438 216.261719 74.21875 216.289062 74.257812 C 216.703125 74.875 216.820312 75.242188 216.582031 75.964844 C 216.566406 76.003906 216.582031 76.046875 216.609375 76.074219 C 216.90625 76.367188 217.203125 76.664062 217.496094 76.957031 C 217.75 77.207031 217.96875 77.066406 217.507812 77.144531 C 217.023438 77.222656 216.539062 77.304688 216.054688 77.382812 C 215.988281 77.394531 215.96875 77.464844 215.976562 77.523438 C 215.996094 77.644531 216.472656 78.875 216.191406 78.78125 C 215.5625 78.578125 214.929688 78.578125 214.273438 78.578125 C 214.21875 78.578125 214.152344 78.628906 214.160156 78.691406 C 214.222656 79.160156 214.632812 80.988281 213.691406 80.738281 C 213.234375 80.617188 212.828125 80.410156 212.347656 80.390625 C 210.71875 80.332031 211.089844 83.117188 209.929688 83.0625 C 209.128906 83.023438 208.308594 82.730469 207.53125 82.554688 C 207.011719 82.4375 206.996094 82.492188 206.566406 82.78125 C 205.945312 83.203125 205.304688 83.597656 204.679688 84.007812 C 204.484375 84.136719 203.949219 84.378906 203.882812 84.640625 C 203.867188 84.703125 203.902344 84.757812 203.960938 84.777344 C 203.96875 84.78125 203.976562 84.78125 203.984375 84.785156 C 203.992188 84.710938 204.003906 84.636719 204.011719 84.5625 C 203.28125 84.53125 202.546875 84.394531 201.824219 84.296875 C 201.160156 84.203125 200.472656 84.421875 199.78125 84.351562 C 199.09375 84.28125 198.4375 84.144531 197.753906 84.332031 C 197.007812 84.535156 196.488281 85.222656 196.066406 85.816406 C 196.039062 85.859375 196.050781 85.917969 196.085938 85.953125 C 196.101562 85.96875 196.117188 85.980469 196.128906 85.996094 C 196.222656 86.089844 196.371094 85.972656 196.308594 85.859375 C 196.242188 85.742188 195.625 85.070312 195.621094 85.074219 C 195.726562 85.023438 195.667969 84.863281 195.5625 84.863281 C 194.890625 84.863281 194.382812 84.796875 193.738281 85.054688 C 192.925781 85.378906 192.285156 85.804688 191.359375 85.75 C 190.046875 85.667969 188.769531 85.316406 187.46875 85.164062 C 186.503906 85.054688 185.550781 84.777344 184.578125 84.664062 C 183.847656 84.578125 182.960938 84.394531 182.285156 84.757812 C 181.636719 85.101562 180.890625 86.558594 180.0625 85.8125 C 179.632812 85.425781 179.324219 84.832031 179.0625 84.320312 C 179.042969 84.285156 179 84.265625 178.964844 84.265625 C 177.449219 84.289062 175.949219 84.542969 174.4375 84.5625 C 173.632812 84.574219 173.230469 84.175781 172.605469 83.75 C 172.09375 83.402344 171.53125 83.378906 170.949219 83.550781 C 170.429688 83.703125 169.964844 84.042969 169.53125 84.355469 C 169.15625 84.628906 168.84375 83.171875 168.816406 82.878906 C 168.808594 82.800781 168.75 82.757812 168.671875 82.773438 C 168.3125 82.832031 167.992188 83.042969 167.683594 83.226562 C 167.234375 83.492188 166.746094 83.042969 166.375 82.769531 C 166.210938 82.648438 166.054688 82.648438 165.851562 82.65625 C 165.484375 82.675781 164.984375 82.917969 164.792969 82.324219 C 164.6875 81.996094 164.710938 81.683594 164.585938 81.351562 C 164.570312 81.308594 164.53125 81.265625 164.476562 81.269531 C 163.972656 81.304688 162.78125 81.707031 162.902344 80.914062 C 163 80.296875 162.800781 79.609375 162.78125 78.988281 C 162.777344 78.898438 162.6875 78.855469 162.609375 78.890625 C 162.054688 79.144531 161.46875 79.3125 160.894531 79.507812 C 160.308594 79.707031 160.363281 79.929688 160.363281 79.289062 C 160.363281 79.222656 160.292969 79.152344 160.222656 79.179688 C 159.574219 79.441406 159.039062 79.757812 158.328125 79.59375 C 157.773438 79.464844 158.082031 79.199219 158.289062 78.796875 C 158.398438 78.578125 158.507812 78.363281 158.550781 78.121094 C 158.566406 78.035156 158.5 77.960938 158.410156 77.980469 C 158.363281 77.996094 157.40625 78.304688 157.59375 78.074219 C 157.980469 77.597656 158.566406 77.269531 159.101562 76.992188 C 159.0625 76.925781 159.027344 76.863281 158.988281 76.796875 C 158.875 76.703125 158.832031 76.582031 158.859375 76.429688 C 158.820312 76.167969 159.007812 76.035156 159.421875 76.035156 C 159.789062 75.988281 160.1875 76.089844 160.554688 76.109375 C 160.613281 76.109375 160.671875 76.054688 160.667969 75.996094 C 160.644531 75.6875 160.269531 74.3125 160.421875 74.261719 C 160.769531 74.144531 161.050781 73.984375 161.40625 74.097656 C 161.773438 74.214844 162.125 73.855469 162.464844 73.8125 C 162.609375 73.792969 162.8125 73.570312 162.667969 73.585938 Z M 162.667969 73.585938 " fill-opacity="1" fill-rule="nonzero"/></g><path fill="#000000" d="M 190.839844 44.15625 C 190.925781 47.085938 193.324219 49.308594 194.527344 51.828125 C 195.988281 54.886719 193.773438 57 191.035156 58.007812 C 188.488281 58.941406 185.71875 59.222656 183.066406 59.726562 C 180.886719 60.140625 178.445312 60.632812 176.738281 62.140625 C 176.625 62.238281 176.792969 62.40625 176.90625 62.304688 C 178.863281 60.574219 181.8125 60.179688 184.300781 59.738281 C 186.917969 59.269531 189.636719 58.929688 192.078125 57.832031 C 194.003906 56.96875 195.558594 55.332031 195.203125 53.113281 C 194.667969 49.796875 191.179688 47.640625 191.074219 44.152344 C 191.070312 44.003906 190.835938 44.003906 190.839844 44.15625 Z M 190.839844 44.15625 " fill-opacity="1" fill-rule="nonzero"/><path fill="#000000" d="M 190.542969 43.472656 C 188.886719 46.605469 184.871094 47.292969 181.789062 48.320312 C 179.066406 49.226562 176.445312 50.632812 176.390625 53.8125 C 176.386719 53.960938 176.625 53.960938 176.628906 53.8125 C 176.691406 50.136719 180.285156 49.019531 183.253906 48.09375 C 186.027344 47.230469 189.292969 46.34375 190.746094 43.589844 C 190.816406 43.457031 190.613281 43.339844 190.542969 43.472656 Z M 190.542969 43.472656 " fill-opacity="1" fill-rule="nonzero"/><path fill="#000000" d="M 189.902344 44.125 C 189.367188 47.066406 189.882812 50.910156 187.714844 53.277344 C 184.34375 56.953125 179.027344 53.609375 174.917969 54.828125 C 172.882812 55.429688 171.082031 57.703125 170.214844 59.53125 C 169.984375 60.019531 169.65625 60.90625 170.125 61.371094 C 170.785156 62.03125 172.015625 61.625 172.773438 61.402344 C 172.742188 61.328125 172.710938 61.257812 172.679688 61.1875 C 169.59375 62.523438 169.902344 66.316406 167.632812 68.371094 C 167.550781 68.441406 167.617188 68.566406 167.714844 68.570312 C 168.257812 68.582031 168.765625 68.738281 169.304688 68.773438 C 169.855469 68.808594 170.441406 68.46875 170.914062 68.242188 C 170.867188 68.179688 170.820312 68.121094 170.773438 68.058594 C 169.339844 69.203125 168.671875 70.722656 170.144531 72.128906 C 171.355469 73.28125 173.488281 73.96875 175.152344 73.855469 C 176.628906 73.757812 178.082031 73.105469 179.527344 72.804688 C 180.234375 72.660156 181.125 72.492188 181.800781 72.832031 C 182.753906 73.3125 182.03125 74.902344 181.746094 75.558594 C 181.710938 75.644531 181.753906 75.726562 181.847656 75.734375 C 185.328125 76.070312 188.871094 75.957031 192.347656 75.625 C 196.199219 75.261719 200.152344 74.574219 203.679688 72.9375 C 206.335938 71.707031 209.21875 69.335938 208.738281 66.085938 C 208.300781 63.113281 204.257812 62.785156 202.332031 61.191406 C 199.855469 59.132812 202.535156 54.046875 199.070312 52.605469 C 198.710938 52.457031 198.3125 52.425781 197.929688 52.410156 C 197.144531 52.378906 197.347656 52.101562 197.125 51.410156 C 196.816406 50.457031 196.09375 49.703125 195.339844 49.070312 C 193.527344 47.554688 191.144531 46.53125 191.074219 43.84375 C 191.070312 43.691406 190.835938 43.691406 190.839844 43.84375 C 190.949219 48.082031 196.71875 48.46875 197.121094 52.566406 C 197.128906 52.625 197.171875 52.6875 197.238281 52.683594 C 201.503906 52.269531 200.574219 57.089844 201.234375 59.816406 C 201.878906 62.472656 205.632812 62.753906 207.457031 64.335938 C 209.003906 65.675781 208.710938 67.878906 207.710938 69.464844 C 206.796875 70.910156 205.265625 71.894531 203.753906 72.644531 C 200.042969 74.480469 195.691406 75.105469 191.601562 75.460938 C 188.785156 75.703125 185.9375 75.765625 183.113281 75.597656 C 182.894531 75.585938 182.671875 75.570312 182.453125 75.554688 C 182.234375 75.535156 181.984375 75.617188 182.070312 75.398438 C 182.292969 74.839844 182.488281 74.273438 182.488281 73.667969 C 182.492188 72.96875 181.996094 72.558594 181.347656 72.445312 C 179.382812 72.097656 177.269531 73.292969 175.359375 73.597656 C 173.972656 73.816406 172.351562 73.230469 171.164062 72.570312 C 170.445312 72.171875 169.773438 71.585938 169.535156 70.78125 C 169.222656 69.730469 170.207031 68.808594 170.9375 68.222656 C 171.050781 68.136719 170.910156 67.984375 170.796875 68.039062 C 169.792969 68.523438 169.257812 68.496094 168.222656 68.359375 C 167.746094 68.296875 168.214844 68.160156 168.449219 67.835938 C 168.726562 67.449219 168.957031 67.042969 169.167969 66.617188 C 170.132812 64.644531 170.570312 62.355469 172.800781 61.390625 C 172.925781 61.335938 172.835938 61.136719 172.710938 61.175781 C 171.859375 61.429688 169.933594 61.9375 170.164062 60.429688 C 170.324219 59.367188 171.152344 58.339844 171.820312 57.535156 C 172.523438 56.683594 173.359375 55.863281 174.332031 55.320312 C 176.222656 54.265625 178.71875 54.832031 180.730469 55.109375 C 183.6875 55.519531 187 55.238281 188.640625 52.410156 C 190.019531 50.035156 189.65625 46.800781 190.128906 44.1875 C 190.15625 44.039062 189.929688 43.976562 189.902344 44.125 Z M 189.902344 44.125 " fill-opacity="1" fill-rule="nonzero"/><path fill="#000000" d="M 196.015625 56.417969 C 196.640625 56.191406 197.3125 56.308594 197.964844 56.195312 C 198.273438 56.144531 198.179688 56.660156 198.105469 56.941406 C 197.910156 57.679688 197.199219 58.246094 196.613281 58.679688 C 194.933594 59.921875 192.886719 60.707031 190.953125 61.449219 C 188.828125 62.257812 186.664062 62.957031 184.503906 63.660156 C 183.078125 64.128906 181.546875 64.523438 180.21875 65.234375 C 180.085938 65.308594 180.203125 65.511719 180.335938 65.4375 C 181.761719 64.675781 183.421875 64.261719 184.949219 63.761719 C 187.195312 63.027344 189.441406 62.292969 191.640625 61.429688 C 193.441406 60.726562 195.339844 59.957031 196.882812 58.769531 C 197.746094 58.109375 198.707031 57.136719 198.292969 55.960938 C 198.273438 55.90625 198.210938 55.859375 198.148438 55.878906 C 197.433594 56.140625 196.667969 55.929688 195.949219 56.191406 C 195.808594 56.242188 195.871094 56.46875 196.015625 56.417969 Z M 196.015625 56.417969 " fill-opacity="1" fill-rule="nonzero"/><path fill="#000000" d="M 199.980469 61.203125 C 194.46875 66.230469 187.03125 64.355469 180.28125 65.21875 C 180.128906 65.238281 180.128906 65.472656 180.28125 65.453125 C 187.109375 64.578125 194.578125 66.449219 200.148438 61.367188 C 200.257812 61.265625 200.089844 61.101562 199.980469 61.203125 Z M 199.980469 61.203125 " fill-opacity="1" fill-rule="nonzero"/><path fill="#000000" d="M 203.4375 64.007812 C 198.207031 70.332031 188.921875 69.246094 182.101562 72.710938 C 181.96875 72.78125 182.085938 72.984375 182.222656 72.914062 C 189.0625 69.433594 198.351562 70.527344 203.605469 64.175781 C 203.699219 64.058594 203.535156 63.890625 203.4375 64.007812 Z M 203.4375 64.007812 " fill-opacity="1" fill-rule="nonzero"/><path fill="#000000" d="M 165.070312 72.386719 C 162.804688 72.777344 159.523438 75.496094 159.839844 79.414062 C 159.851562 79.5625 160.070312 79.5 160.058594 79.355469 C 159.773438 75.9375 162.988281 72.742188 165.082031 72.671875 " fill-opacity="1" fill-rule="nonzero"/><path fill="#000000" d="M 214.253906 73.679688 C 214.949219 74.402344 215.800781 75.222656 215.746094 76.300781 C 215.703125 77.089844 215.269531 77.902344 215.070312 78.660156 C 215.035156 78.800781 215.253906 78.859375 215.289062 78.71875 C 215.523438 77.832031 216.003906 76.921875 215.976562 75.988281 C 215.941406 75.019531 215.03125 74.164062 214.414062 73.523438 C 214.3125 73.417969 214.152344 73.574219 214.253906 73.679688 Z M 214.253906 73.679688 " fill-opacity="1" fill-rule="nonzero"/><path fill="#000000" d="M 160.746094 81.359375 C 161.339844 84.789062 162.484375 88.167969 163.488281 91.496094 C 164.601562 95.199219 165.753906 98.894531 166.988281 102.5625 C 167.035156 102.699219 167.253906 102.640625 167.207031 102.503906 C 166.003906 98.917969 164.878906 95.304688 163.78125 91.683594 C 162.75 88.277344 161.574219 84.816406 160.964844 81.300781 C 160.941406 81.160156 160.722656 81.21875 160.746094 81.359375 Z M 160.746094 81.359375 " fill-opacity="1" fill-rule="nonzero"/><path fill="#000000" d="M 163.171875 83.835938 C 164.242188 86.304688 164.585938 88.992188 165.292969 91.570312 C 165.710938 93.09375 166.261719 94.589844 166.703125 96.109375 C 167.222656 97.917969 167.722656 99.730469 168.246094 101.539062 C 168.558594 102.628906 168.816406 103.800781 169.308594 104.828125 C 169.371094 104.957031 169.566406 104.84375 169.503906 104.714844 C 168.988281 103.640625 168.730469 102.40625 168.402344 101.269531 C 167.882812 99.460938 167.378906 97.640625 166.859375 95.832031 C 166.410156 94.277344 165.851562 92.753906 165.425781 91.195312 C 164.742188 88.695312 164.402344 86.117188 163.367188 83.722656 C 163.308594 83.589844 163.113281 83.703125 163.171875 83.835938 Z M 163.171875 83.835938 " fill-opacity="1" fill-rule="nonzero"/><path fill="#000000" d="M 166.179688 84.707031 C 167.605469 88.28125 168.535156 92.046875 169.371094 95.792969 C 170.230469 99.636719 170.933594 103.515625 171.5 107.410156 C 171.519531 107.554688 171.738281 107.492188 171.71875 107.351562 C 171.167969 103.558594 170.476562 99.785156 169.65625 96.039062 C 168.816406 92.191406 167.859375 88.316406 166.398438 84.648438 C 166.34375 84.515625 166.125 84.570312 166.179688 84.707031 Z M 166.179688 84.707031 " fill-opacity="1" fill-rule="nonzero"/><path fill="#000000" d="M 169.800781 85.605469 C 170.808594 89.3125 171.855469 93.007812 172.769531 96.742188 C 173.605469 100.164062 174.503906 103.730469 174.527344 107.269531 C 174.53125 107.414062 174.757812 107.414062 174.753906 107.269531 C 174.730469 103.804688 173.863281 100.328125 173.058594 96.976562 C 172.136719 93.144531 171.054688 89.347656 170.019531 85.542969 C 169.980469 85.40625 169.761719 85.464844 169.800781 85.605469 Z M 169.800781 85.605469 " fill-opacity="1" fill-rule="nonzero"/><path fill="#000000" d="M 173.582031 87.027344 C 174.019531 90.289062 174.945312 93.445312 175.671875 96.648438 C 176.570312 100.582031 176.914062 104.542969 176.308594 108.546875 C 176.289062 108.691406 176.507812 108.75 176.527344 108.609375 C 177.078125 104.964844 176.867188 101.359375 176.144531 97.761719 C 175.421875 94.167969 174.296875 90.667969 173.808594 87.027344 C 173.789062 86.886719 173.5625 86.882812 173.582031 87.027344 Z M 173.582031 87.027344 " fill-opacity="1" fill-rule="nonzero"/><path fill="#000000" d="M 176.742188 86.503906 C 178.652344 93.613281 179.328125 101.257812 178.953125 108.605469 C 178.945312 108.75 179.171875 108.75 179.179688 108.605469 C 179.554688 101.242188 178.875 93.570312 176.960938 86.441406 C 176.921875 86.304688 176.703125 86.363281 176.742188 86.503906 Z M 176.742188 86.503906 " fill-opacity="1" fill-rule="nonzero"/><path fill="#000000" d="M 180.359375 87.371094 C 180.71875 94.03125 180.402344 100.71875 180.359375 107.382812 C 180.359375 107.527344 180.585938 107.527344 180.585938 107.382812 C 180.628906 100.71875 180.945312 94.03125 180.585938 87.371094 C 180.578125 87.226562 180.351562 87.226562 180.359375 87.371094 Z M 180.359375 87.371094 " fill-opacity="1" fill-rule="nonzero"/><path fill="#000000" d="M 182.621094 88.222656 C 183.226562 95.019531 182.1875 101.808594 182.167969 108.605469 C 182.167969 108.75 182.394531 108.75 182.394531 108.605469 C 182.414062 101.808594 183.453125 95.019531 182.851562 88.222656 C 182.835938 88.082031 182.609375 88.078125 182.621094 88.222656 Z M 182.621094 88.222656 " fill-opacity="1" fill-rule="nonzero"/><path fill="#000000" d="M 214.363281 73.492188 C 214.179688 73.445312 213.949219 72.933594 213.855469 72.792969 C 213.585938 72.394531 213.296875 72.011719 212.980469 71.652344 C 212.234375 70.804688 211.265625 70.207031 210.136719 70.046875 C 209.992188 70.027344 209.933594 70.246094 210.078125 70.265625 C 211.476562 70.460938 212.507812 71.339844 213.328125 72.433594 C 213.546875 72.726562 213.902344 73.609375 214.300781 73.710938 C 214.445312 73.746094 214.503906 73.527344 214.363281 73.492188 Z M 214.363281 73.492188 " fill-opacity="1" fill-rule="nonzero"/><path fill="#000000" d="M 185.332031 88.308594 C 185.332031 88.308594 185.332031 101.707031 185.332031 108.304688 C 185.332031 108.503906 185.535156 108.503906 185.535156 108.304688 C 185.535156 108.105469 185.332031 108.105469 185.332031 108.304688 C 185.332031 108.503906 185.535156 108.503906 185.535156 108.304688 C 185.535156 101.707031 185.535156 94.90625 185.535156 88.308594 C 185.535156 88.109375 185.332031 88.109375 185.332031 88.308594 C 185.332031 88.308594 185.332031 88.109375 185.332031 88.308594 Z M 185.332031 88.308594 " fill-opacity="1" fill-rule="nonzero"/><path fill="#000000" d="M 189.171875 88.792969 C 188.183594 93.089844 187.28125 97.507812 187.402344 101.929688 C 187.445312 103.449219 187.496094 104.96875 187.546875 106.488281 C 187.570312 107.066406 187.589844 107.644531 187.617188 108.226562 C 187.625 108.410156 187.582031 108.71875 187.671875 108.890625 C 187.714844 108.980469 187.855469 108.957031 187.878906 108.867188 C 187.898438 108.785156 187.886719 108.6875 187.886719 108.605469 C 187.890625 108.460938 187.660156 108.460938 187.660156 108.605469 C 187.660156 109.007812 187.867188 108.722656 187.851562 108.421875 C 187.824219 107.890625 187.808594 107.359375 187.789062 106.832031 C 187.730469 105.316406 187.683594 103.796875 187.640625 102.28125 C 187.511719 97.746094 188.375 93.265625 189.390625 88.851562 C 189.425781 88.710938 189.207031 88.652344 189.171875 88.792969 Z M 189.171875 88.792969 " fill-opacity="1" fill-rule="nonzero"/><path fill="#000000" d="M 191.890625 88.195312 C 190.515625 94.878906 191.507812 101.816406 191.023438 108.574219 C 191.011719 108.71875 191.238281 108.71875 191.25 108.574219 C 191.734375 101.835938 190.738281 94.917969 192.109375 88.253906 C 192.136719 88.113281 191.917969 88.050781 191.890625 88.195312 Z M 191.890625 88.195312 " fill-opacity="1" fill-rule="nonzero"/><path fill="#000000" d="M 194.746094 88.195312 C 193.660156 95.046875 194.335938 101.945312 194.351562 108.835938 C 194.351562 108.980469 194.578125 108.980469 194.578125 108.835938 C 194.5625 101.964844 193.878906 95.082031 194.964844 88.253906 C 194.988281 88.113281 194.769531 88.050781 194.746094 88.195312 Z M 194.746094 88.195312 " fill-opacity="1" fill-rule="nonzero"/><path fill="#000000" d="M 214.234375 82.480469 C 212.640625 86.011719 211.359375 89.683594 210.21875 93.382812 C 209.136719 96.886719 208.128906 100.484375 207.703125 104.132812 C 207.683594 104.277344 207.910156 104.273438 207.929688 104.132812 C 208.339844 100.605469 209.320312 97.128906 210.347656 93.738281 C 211.488281 89.953125 212.804688 86.199219 214.429688 82.59375 C 214.488281 82.460938 214.292969 82.347656 214.234375 82.480469 Z M 214.234375 82.480469 " fill-opacity="1" fill-rule="nonzero"/><path fill="#000000" d="M 209.996094 85.199219 C 208.003906 91.847656 206.71875 98.695312 205.414062 105.5 C 205.386719 105.644531 205.605469 105.703125 205.632812 105.5625 C 206.9375 98.757812 208.222656 91.90625 210.214844 85.261719 C 210.257812 85.121094 210.039062 85.0625 209.996094 85.199219 Z M 209.996094 85.199219 " fill-opacity="1" fill-rule="nonzero"/><path fill="#000000" d="M 207.582031 86.398438 C 206.15625 93.035156 203.445312 99.675781 203.394531 106.53125 C 203.390625 106.675781 203.617188 106.675781 203.621094 106.53125 C 203.671875 99.695312 206.378906 93.074219 207.800781 86.457031 C 207.832031 86.316406 207.613281 86.257812 207.582031 86.398438 Z M 207.582031 86.398438 " fill-opacity="1" fill-rule="nonzero"/><path fill="#000000" d="M 204.5625 87.027344 C 204.527344 90.71875 203.339844 94.324219 202.402344 97.867188 C 201.660156 100.679688 200.699219 103.882812 201.378906 106.800781 C 201.414062 106.941406 201.632812 106.882812 201.597656 106.738281 C 200.863281 103.582031 202.042969 100.085938 202.855469 97.050781 C 203.734375 93.777344 204.753906 90.441406 204.789062 87.027344 C 204.789062 86.882812 204.5625 86.882812 204.5625 87.027344 Z M 204.5625 87.027344 " fill-opacity="1" fill-rule="nonzero"/><path fill="#000000" d="M 202.390625 88.195312 C 201.046875 91.410156 200.257812 94.882812 199.554688 98.28125 C 198.925781 101.304688 198.207031 104.574219 198.417969 107.679688 C 198.429688 107.824219 198.65625 107.824219 198.644531 107.679688 C 198.429688 104.496094 199.183594 101.171875 199.828125 98.070312 C 200.515625 94.761719 201.304688 91.382812 202.609375 88.253906 C 202.667969 88.121094 202.445312 88.0625 202.390625 88.195312 Z M 202.390625 88.195312 " fill-opacity="1" fill-rule="nonzero"/><path fill="#000000" d="M 198.769531 88.195312 C 197.953125 91.582031 197.253906 95 196.71875 98.445312 C 196.203125 101.785156 195.808594 105.195312 196 108.578125 C 196.007812 108.722656 196.234375 108.722656 196.226562 108.578125 C 195.84375 101.796875 197.40625 94.8125 198.988281 88.253906 C 199.023438 88.113281 198.804688 88.054688 198.769531 88.195312 Z M 198.769531 88.195312 " fill-opacity="1" fill-rule="nonzero"/><path fill="#000000" d="M 168.40625 69.433594 C 166.707031 69.308594 165.613281 70.839844 165.082031 72.253906 C 164.492188 73.8125 164.644531 75.523438 165.867188 76.714844 C 167.214844 78.03125 169.277344 78.664062 171.046875 79.171875 C 172.929688 79.710938 174.878906 80.066406 176.828125 80.289062 C 176.976562 80.304688 176.976562 80.070312 176.828125 80.054688 C 173.636719 79.691406 170.238281 79.039062 167.394531 77.507812 C 165.84375 76.667969 164.882812 75.488281 165.003906 73.671875 C 165.117188 71.941406 166.375 69.515625 168.40625 69.667969 C 168.558594 69.679688 168.558594 69.445312 168.40625 69.433594 Z M 168.40625 69.433594 " fill-opacity="1" fill-rule="nonzero"/><path fill="#000000" d="M 207.949219 69.75 C 207.867188 69.78125 207.773438 69.800781 207.707031 69.863281 C 207.636719 69.929688 207.683594 70.027344 207.757812 70.058594 C 208.101562 70.203125 208.78125 70.007812 209.148438 70.003906 C 210.347656 69.980469 210.960938 70.683594 211.488281 71.691406 C 212.378906 73.402344 211.117188 74.949219 209.78125 75.933594 C 206.976562 78.007812 203.28125 78.855469 199.960938 79.738281 C 196.675781 80.609375 193.386719 81.226562 189.976562 81.132812 C 185.585938 81.011719 181.203125 80.390625 176.828125 80.054688 C 176.675781 80.042969 176.675781 80.277344 176.828125 80.289062 C 181.324219 80.632812 185.835938 81.277344 190.351562 81.375 C 193.839844 81.453125 197.222656 80.714844 200.574219 79.816406 C 203.804688 78.949219 207.398438 78.078125 210.085938 76 C 211.113281 75.203125 212.035156 74.175781 212.023438 72.808594 C 212.011719 71.625 211.019531 69.980469 209.78125 69.800781 C 209.441406 69.75 209.089844 69.765625 208.746094 69.78125 C 208.570312 69.789062 208.390625 69.800781 208.214844 69.816406 C 208.128906 69.824219 208.042969 69.828125 207.957031 69.835938 C 207.8125 69.820312 207.828125 69.867188 208.011719 69.976562 C 208.15625 69.925781 208.09375 69.699219 207.949219 69.75 Z M 207.949219 69.75 " fill-opacity="1" fill-rule="nonzero"/><g clip-path="url(#44a55f3fa1)"><path fill="#4b5fad" d="M 190.265625 44.855469 C 188.105469 55.128906 196.5625 49.851562 190.207031 44.394531 L 190.261719 45.128906 C 191.242188 43.210938 196.441406 39.960938 198.253906 42.34375 C 201.59375 46.316406 191.742188 45.023438 190.152344 44.617188 L 190.207031 44.394531 C 189.25 42.46875 186.179688 37.722656 184.042969 39.902344 C 180.59375 43.414062 189.128906 43.878906 190.378906 44.675781 L 190.261719 45.128906 C 189.226562 48.042969 187.363281 51.347656 185.90625 49.796875 C 182.355469 46.800781 187.960938 44.304688 190.152344 44.617188 L 190.207031 44.394531 C 188.460938 40.824219 187.816406 36.515625 190.777344 35.378906 C 194.070312 35.613281 192.441406 42.3125 190.261719 45.128906 " fill-opacity="1" fill-rule="nonzero"/><path fill="#000000" d="M 190.214844 44.84375 C 189.890625 46.449219 189.496094 48.453125 190.242188 50.011719 C 190.53125 50.617188 191.148438 50.957031 191.773438 50.609375 C 192.539062 50.183594 192.714844 49.125 192.660156 48.34375 C 192.550781 46.738281 191.402344 45.375 190.246094 44.355469 C 190.214844 44.328125 190.152344 44.34375 190.15625 44.394531 C 190.171875 44.636719 190.191406 44.882812 190.207031 45.128906 C 190.210938 45.175781 190.28125 45.203125 190.308594 45.152344 C 191.21875 43.496094 193.28125 42.3125 195.039062 41.765625 C 196.015625 41.464844 197.136719 41.417969 197.960938 42.101562 C 198.464844 42.519531 199.105469 43.433594 198.800781 44.117188 C 198.324219 45.1875 196.121094 45.085938 195.1875 45.089844 C 193.785156 45.097656 192.367188 44.953125 190.984375 44.730469 C 190.78125 44.695312 190.578125 44.660156 190.378906 44.617188 C 190.136719 44.566406 190.308594 44.554688 190.257812 44.378906 C 190.058594 43.65625 189.425781 42.886719 189.007812 42.273438 C 188.25 41.167969 187.035156 39.515625 185.5625 39.355469 C 184.570312 39.246094 183.273438 40.082031 183.183594 41.144531 C 183.101562 42.136719 184.175781 42.675781 184.945312 43.019531 C 186.273438 43.613281 187.726562 43.910156 189.128906 44.289062 C 189.378906 44.355469 189.628906 44.429688 189.875 44.511719 C 190.261719 44.640625 190.332031 44.644531 190.230469 45.042969 C 189.855469 46.484375 189.042969 48.023438 188.125 49.199219 C 187.769531 49.65625 187.292969 50.101562 186.691406 50.140625 C 186.246094 50.167969 185.835938 49.691406 185.570312 49.378906 C 185.15625 48.902344 184.917969 48.289062 184.933594 47.660156 C 184.976562 45.386719 188.5 44.875 190.152344 44.671875 C 190.175781 44.667969 190.195312 44.65625 190.203125 44.632812 C 190.359375 44.019531 189.773438 43.308594 189.554688 42.734375 C 189.160156 41.691406 188.898438 40.59375 188.800781 39.480469 C 188.714844 38.492188 188.84375 37.480469 189.34375 36.609375 C 189.878906 35.679688 190.960938 35.101562 191.863281 35.882812 C 193.023438 36.890625 192.597656 39.125 192.316406 40.398438 C 191.945312 42.0625 191.25 43.730469 190.214844 45.101562 C 190.175781 45.15625 190.265625 45.207031 190.308594 45.152344 C 191.398438 43.703125 192.078125 41.953125 192.46875 40.195312 C 192.757812 38.886719 192.957031 37.207031 192.140625 36.039062 C 191.40625 34.984375 190.191406 35.320312 189.496094 36.21875 C 188.359375 37.6875 188.601562 39.691406 189.019531 41.375 C 189.160156 41.941406 189.351562 42.496094 189.558594 43.042969 C 189.679688 43.359375 190.210938 44.179688 190.128906 44.492188 C 190.074219 44.699219 188.703125 44.792969 188.519531 44.828125 C 188.011719 44.933594 187.496094 45.078125 187.015625 45.28125 C 186.046875 45.6875 184.925781 46.390625 184.835938 47.546875 C 184.769531 48.402344 185.175781 49.1875 185.792969 49.765625 C 186.960938 50.863281 188 49.628906 188.683594 48.601562 C 189.460938 47.441406 190.082031 46.039062 190.429688 44.691406 C 190.433594 44.667969 190.425781 44.644531 190.40625 44.632812 C 188.34375 43.417969 185.300781 43.890625 183.574219 42.007812 C 182.980469 41.355469 183.425781 40.605469 183.933594 40.074219 C 184.78125 39.199219 185.816406 39.367188 186.75 39.984375 C 187.628906 40.570312 188.316406 41.476562 188.917969 42.328125 C 189.257812 42.808594 190.261719 43.984375 190.101562 44.605469 C 190.09375 44.632812 190.109375 44.664062 190.136719 44.667969 C 192.382812 45.21875 195.042969 45.449219 197.316406 45.027344 C 198.011719 44.898438 198.90625 44.601562 198.992188 43.796875 C 199.097656 42.789062 197.921875 41.757812 197.054688 41.523438 C 195.511719 41.109375 193.703125 42.085938 192.46875 42.890625 C 191.808594 43.320312 191.203125 43.839844 190.683594 44.425781 C 190.523438 44.609375 190.292969 44.839844 190.3125 45.074219 C 190.300781 44.910156 190.289062 44.746094 190.277344 44.582031 C 190.257812 44.316406 190.574219 44.792969 190.703125 44.921875 C 191.785156 45.964844 192.675781 47.410156 192.550781 48.957031 C 192.492188 49.714844 191.867188 51.003906 190.902344 50.578125 C 190.316406 50.320312 190.132812 49.523438 190.035156 48.96875 C 189.796875 47.625 190.050781 46.1875 190.320312 44.871094 C 190.332031 44.804688 190.230469 44.777344 190.214844 44.84375 Z M 190.214844 44.84375 " fill-opacity="1" fill-rule="nonzero"/></g></svg>