<svg xmlns="http://www.w3.org/2000/svg" xmlns:xlink="http://www.w3.org/1999/xlink" width="1129" zoomAndPan="magnify" viewBox="0 0 846.75 406.499988" height="542" preserveAspectRatio="xMidYMid meet" version="1.0"><defs><filter x="0%" y="0%" width="100%" height="100%" id="04c61ec704"><feColorMatrix values="0 0 0 0 1 0 0 0 0 1 0 0 0 0 1 0 0 0 1 0" color-interpolation-filters="sRGB"/></filter><g/><clipPath id="4ba2fb271b"><path d="M 0.394531 48 L 846.105469 48 L 846.105469 124 L 0.394531 124 Z M 0.394531 48 " clip-rule="nonzero"/></clipPath><clipPath id="95e07d3167"><path d="M 0.394531 331 L 846.105469 331 L 846.105469 406 L 0.394531 406 Z M 0.394531 331 " clip-rule="nonzero"/></clipPath><clipPath id="4ba8fc8ebc"><path d="M 375.753906 0 L 470.140625 0 L 470.140625 118.292969 L 375.753906 118.292969 Z M 375.753906 0 " clip-rule="nonzero"/></clipPath><clipPath id="c7d8188980"><path d="M 394 65 L 470 65 L 470 118.292969 L 394 118.292969 Z M 394 65 " clip-rule="nonzero"/></clipPath><mask id="17e76e140a"><g filter="url(#04c61ec704)"><rect x="-84.675" width="1016.1" fill="#000000" y="-40.649999" height="487.799986" fill-opacity="0.4"/></g></mask><clipPath id="098023c0ec"><path d="M 15 0.441406 L 75.976562 0.441406 L 75.976562 53.175781 L 15 53.175781 Z M 15 0.441406 " clip-rule="nonzero"/></clipPath><clipPath id="4991033ac4"><path d="M 0.46875 10 L 19 10 L 19 51 L 0.46875 51 Z M 0.46875 10 " clip-rule="nonzero"/></clipPath><clipPath id="6cbca291b1"><rect x="0" width="76" y="0" height="54"/></clipPath><mask id="58d7ed663a"><g filter="url(#04c61ec704)"><rect x="-84.675" width="1016.1" fill="#000000" y="-40.649999" height="487.799986" fill-opacity="0.4"/></g></mask><clipPath id="edee855414"><path d="M 0.519531 37 L 73.867188 37 L 73.867188 58.390625 L 0.519531 58.390625 Z M 0.519531 37 " clip-rule="nonzero"/></clipPath><clipPath id="d7f344ca27"><path d="M 18 0.382812 L 40 0.382812 L 40 18 L 18 18 Z M 18 0.382812 " clip-rule="nonzero"/></clipPath><clipPath id="7730e5df94"><rect x="0" width="74" y="0" height="59"/></clipPath><clipPath id="08e9414819"><path d="M 377 69 L 459 69 L 459 118.292969 L 377 118.292969 Z M 377 69 " clip-rule="nonzero"/></clipPath><clipPath id="af0cb17016"><path d="M 375.753906 56 L 470.140625 56 L 470.140625 80 L 375.753906 80 Z M 375.753906 56 " clip-rule="nonzero"/></clipPath></defs><g fill="#000000" fill-opacity="1"><g transform="translate(206.023156, 258.845467)"><g><path d="M 21.875 5.25 C 19.125 5.25 16.601562 4.910156 14.3125 4.234375 C 12.03125 3.554688 10.070312 2.570312 8.4375 1.28125 C 6.8125 0 5.539062 -1.566406 4.625 -3.421875 C 3.71875 -5.285156 3.265625 -7.398438 3.265625 -9.765625 C 3.265625 -12.191406 3.828125 -14.664062 4.953125 -17.1875 C 6.085938 -19.707031 7.722656 -22.039062 9.859375 -24.1875 L 10.890625 -23.15625 C 9.773438 -21.726562 8.851562 -20.015625 8.125 -18.015625 C 7.394531 -16.015625 7.03125 -13.890625 7.03125 -11.640625 C 7.03125 -9.816406 7.304688 -8.019531 7.859375 -6.25 C 8.410156 -4.476562 9.273438 -2.894531 10.453125 -1.5 C 11.628906 -0.101562 13.15625 1.019531 15.03125 1.875 C 16.914062 2.726562 19.195312 3.15625 21.875 3.15625 C 22.09375 3.15625 22.304688 3.140625 22.515625 3.109375 C 22.734375 3.078125 22.945312 3.0625 23.15625 3.0625 C 22.050781 -0.300781 21.0625 -4.410156 20.1875 -9.265625 C 19.3125 -14.128906 18.875 -19.78125 18.875 -26.21875 C 18.875 -32.226562 19.226562 -37.519531 19.9375 -42.09375 C 20.65625 -46.664062 21.5 -50.613281 22.46875 -53.9375 C 23.4375 -57.257812 24.425781 -60.003906 25.4375 -62.171875 C 26.457031 -64.335938 27.269531 -66.007812 27.875 -67.1875 L 29.4375 -66.859375 C 29.113281 -65.328125 28.703125 -63.226562 28.203125 -60.5625 C 27.703125 -57.894531 27.207031 -54.625 26.71875 -50.75 C 26.238281 -46.875 25.820312 -42.34375 25.46875 -37.15625 C 25.113281 -31.976562 24.9375 -26.117188 24.9375 -19.578125 C 24.9375 -15.890625 25.039062 -12.175781 25.25 -8.4375 C 25.46875 -4.707031 25.789062 -0.945312 26.21875 2.84375 C 30.539062 2.375 34.578125 1.285156 38.328125 -0.421875 C 42.085938 -2.140625 45.515625 -4.300781 48.609375 -6.90625 C 51.703125 -9.519531 54.441406 -12.488281 56.828125 -15.8125 C 59.222656 -19.132812 61.253906 -22.632812 62.921875 -26.3125 C 64.585938 -30 65.847656 -33.773438 66.703125 -37.640625 C 67.554688 -41.503906 67.984375 -45.273438 67.984375 -48.953125 C 67.984375 -53.816406 67.234375 -57.984375 65.734375 -61.453125 C 64.234375 -64.921875 62.285156 -67.753906 59.890625 -69.953125 C 57.492188 -72.148438 54.785156 -73.753906 51.765625 -74.765625 C 48.742188 -75.785156 45.734375 -76.296875 42.734375 -76.296875 C 39.765625 -76.296875 37.007812 -76.097656 34.46875 -75.703125 C 31.9375 -75.316406 29.609375 -74.800781 27.484375 -74.15625 C 25.359375 -73.507812 23.425781 -72.785156 21.6875 -71.984375 C 19.957031 -71.179688 18.410156 -70.347656 17.046875 -69.484375 C 13.828125 -67.484375 11.179688 -65.21875 9.109375 -62.6875 L 7.34375 -63.921875 C 7.382812 -63.984375 7.71875 -64.390625 8.34375 -65.140625 C 8.96875 -65.898438 9.90625 -66.8125 11.15625 -67.875 C 12.40625 -68.945312 13.984375 -70.09375 15.890625 -71.3125 C 17.804688 -72.53125 20.0625 -73.664062 22.65625 -74.71875 C 25.25 -75.769531 28.210938 -76.644531 31.546875 -77.34375 C 34.890625 -78.039062 38.617188 -78.390625 42.734375 -78.390625 C 47.671875 -78.390625 52.085938 -77.742188 55.984375 -76.453125 C 59.878906 -75.171875 63.175781 -73.269531 65.875 -70.75 C 68.570312 -68.226562 70.632812 -65.117188 72.0625 -61.421875 C 73.488281 -57.722656 74.203125 -53.457031 74.203125 -48.625 C 74.203125 -42.976562 73.46875 -37.785156 72 -33.046875 C 70.539062 -28.316406 68.578125 -24.03125 66.109375 -20.1875 C 63.640625 -16.34375 60.796875 -12.953125 57.578125 -10.015625 C 54.367188 -7.085938 50.992188 -4.578125 47.453125 -2.484375 C 43.910156 -0.398438 40.332031 1.253906 36.71875 2.484375 C 33.113281 3.722656 29.703125 4.539062 26.484375 4.9375 C 26.597656 5.613281 26.707031 6.253906 26.8125 6.859375 C 26.914062 7.472656 27.019531 8.117188 27.125 8.796875 L 25.359375 9.015625 C 25.148438 8.441406 24.910156 7.832031 24.640625 7.1875 C 24.367188 6.539062 24.09375 5.859375 23.8125 5.140625 C 23.488281 5.210938 23.164062 5.25 22.84375 5.25 C 22.519531 5.25 22.195312 5.25 21.875 5.25 Z M 21.875 5.25 "/></g></g></g><g fill="#000000" fill-opacity="1"><g transform="translate(283.555016, 258.845467)"><g><path d="M 18.4375 -4.828125 C 20.445312 -4.828125 22.367188 -5.554688 24.203125 -7.015625 C 26.046875 -8.484375 27.488281 -10.613281 28.53125 -13.40625 L 28.09375 -13.40625 C 25.875 -13.40625 23.828125 -13.78125 21.953125 -14.53125 C 20.078125 -15.28125 18.453125 -16.320312 17.078125 -17.65625 C 15.703125 -19 14.617188 -20.609375 13.828125 -22.484375 C 13.046875 -24.367188 12.65625 -26.4375 12.65625 -28.6875 C 12.65625 -29.9375 12.820312 -31.203125 13.15625 -32.484375 C 13.5 -33.773438 14.023438 -34.929688 14.734375 -35.953125 C 15.453125 -36.972656 16.382812 -37.800781 17.53125 -38.4375 C 18.675781 -39.082031 20.035156 -39.40625 21.609375 -39.40625 C 22.890625 -39.40625 24.15625 -39.144531 25.40625 -38.625 C 26.664062 -38.113281 27.796875 -37.234375 28.796875 -35.984375 C 29.796875 -34.734375 30.609375 -33.039062 31.234375 -30.90625 C 31.859375 -28.78125 32.171875 -26.09375 32.171875 -22.84375 C 32.171875 -21.625 32.113281 -20.414062 32 -19.21875 C 31.894531 -18.019531 31.703125 -16.847656 31.421875 -15.703125 C 32.816406 -15.953125 34.054688 -16.398438 35.140625 -17.046875 C 36.234375 -17.691406 37.195312 -18.46875 38.03125 -19.375 C 38.875 -20.289062 39.617188 -21.328125 40.265625 -22.484375 C 40.910156 -23.648438 41.5 -24.894531 42.03125 -26.21875 L 44.125 -25.6875 C 43.375 -23.644531 42.503906 -21.910156 41.515625 -20.484375 C 40.535156 -19.054688 39.484375 -17.859375 38.359375 -16.890625 C 37.234375 -15.921875 36.050781 -15.175781 34.8125 -14.65625 C 33.582031 -14.144531 32.304688 -13.800781 30.984375 -13.625 C 30.484375 -11.863281 29.820312 -10.210938 29 -8.671875 C 28.1875 -7.140625 27.1875 -5.800781 26 -4.65625 C 24.820312 -3.519531 23.457031 -2.617188 21.90625 -1.953125 C 20.351562 -1.296875 18.609375 -0.96875 16.671875 -0.96875 C 15.066406 -0.96875 13.453125 -1.296875 11.828125 -1.953125 C 10.203125 -2.617188 8.734375 -3.640625 7.421875 -5.015625 C 6.117188 -6.390625 5.066406 -8.117188 4.265625 -10.203125 C 3.460938 -12.296875 3.0625 -14.789062 3.0625 -17.6875 C 3.0625 -19.582031 3.28125 -21.441406 3.71875 -23.265625 C 4.164062 -25.085938 4.789062 -26.8125 5.59375 -28.4375 C 6.40625 -30.070312 7.363281 -31.59375 8.46875 -33 C 9.582031 -34.414062 10.78125 -35.640625 12.0625 -36.671875 L 12.875 -35.328125 C 12.050781 -34.578125 11.265625 -33.648438 10.515625 -32.546875 C 9.765625 -31.441406 9.082031 -30.21875 8.46875 -28.875 C 7.863281 -27.53125 7.378906 -26.113281 7.015625 -24.625 C 6.660156 -23.144531 6.484375 -21.675781 6.484375 -20.21875 C 6.484375 -17.320312 6.847656 -14.890625 7.578125 -12.921875 C 8.316406 -10.953125 9.257812 -9.367188 10.40625 -8.171875 C 11.550781 -6.972656 12.835938 -6.113281 14.265625 -5.59375 C 15.691406 -5.082031 17.082031 -4.828125 18.4375 -4.828125 Z M 21.5 -37.3125 C 20.53125 -37.3125 19.632812 -37.101562 18.8125 -36.6875 C 18 -36.28125 17.285156 -35.71875 16.671875 -35 C 16.066406 -34.289062 15.582031 -33.4375 15.21875 -32.4375 C 14.863281 -31.4375 14.6875 -30.328125 14.6875 -29.109375 C 14.6875 -27.003906 15.046875 -25.109375 15.765625 -23.421875 C 16.484375 -21.742188 17.457031 -20.316406 18.6875 -19.140625 C 19.914062 -17.960938 21.351562 -17.0625 23 -16.4375 C 24.644531 -15.8125 26.414062 -15.5 28.3125 -15.5 L 29.328125 -15.5 C 29.617188 -16.601562 29.816406 -17.757812 29.921875 -18.96875 C 30.023438 -20.1875 30.078125 -21.515625 30.078125 -22.953125 C 30.003906 -25.703125 29.726562 -27.992188 29.25 -29.828125 C 28.769531 -31.671875 28.15625 -33.144531 27.40625 -34.25 C 26.65625 -35.363281 25.769531 -36.148438 24.75 -36.609375 C 23.726562 -37.078125 22.644531 -37.3125 21.5 -37.3125 Z M 21.5 -37.3125 "/></g></g></g><g fill="#000000" fill-opacity="1"><g transform="translate(320.551547, 258.845467)"><g><path d="M 17.90625 -27.875 C 17.90625 -30.019531 18.414062 -31.878906 19.4375 -33.453125 C 20.457031 -35.023438 21.769531 -36.546875 23.375 -38.015625 C 22.875 -38.335938 22.335938 -38.578125 21.765625 -38.734375 C 21.191406 -38.898438 20.640625 -38.984375 20.109375 -38.984375 C 18.929688 -38.984375 17.671875 -38.6875 16.328125 -38.09375 C 14.984375 -37.507812 13.75 -36.519531 12.625 -35.125 C 11.5 -33.726562 10.5625 -31.859375 9.8125 -29.515625 C 9.0625 -27.171875 8.6875 -24.25 8.6875 -20.75 C 8.6875 -17.851562 9.035156 -15.367188 9.734375 -13.296875 C 10.429688 -11.222656 11.382812 -9.515625 12.59375 -8.171875 C 13.8125 -6.835938 15.222656 -5.859375 16.828125 -5.234375 C 18.441406 -4.609375 20.160156 -4.296875 21.984375 -4.296875 C 24.160156 -4.296875 26.109375 -4.859375 27.828125 -5.984375 C 29.546875 -7.109375 31.117188 -8.660156 32.546875 -10.640625 C 33.972656 -12.628906 35.300781 -14.953125 36.53125 -17.609375 C 37.769531 -20.273438 39 -23.144531 40.21875 -26.21875 L 42.25 -25.6875 C 41.539062 -23.9375 40.800781 -22.128906 40.03125 -20.265625 C 39.257812 -18.410156 38.414062 -16.578125 37.5 -14.765625 C 36.59375 -12.960938 35.59375 -11.253906 34.5 -9.640625 C 33.414062 -8.035156 32.164062 -6.625 30.75 -5.40625 C 29.332031 -4.195312 27.75 -3.234375 26 -2.515625 C 24.25 -1.804688 22.285156 -1.453125 20.109375 -1.453125 C 17.890625 -1.453125 15.785156 -1.816406 13.796875 -2.546875 C 11.816406 -3.273438 10.078125 -4.378906 8.578125 -5.859375 C 7.078125 -7.347656 5.878906 -9.21875 4.984375 -11.46875 C 4.085938 -13.726562 3.640625 -16.375 3.640625 -19.40625 C 3.640625 -22.476562 4.148438 -25.335938 5.171875 -27.984375 C 6.191406 -30.628906 7.488281 -32.914062 9.0625 -34.84375 C 10.632812 -36.78125 12.367188 -38.300781 14.265625 -39.40625 C 16.160156 -40.519531 17.960938 -41.078125 19.671875 -41.078125 C 21.679688 -41.078125 23.472656 -40.554688 25.046875 -39.515625 C 25.328125 -39.734375 25.601562 -39.957031 25.875 -40.1875 C 26.144531 -40.414062 26.421875 -40.675781 26.703125 -40.96875 L 27.875 -39.296875 C 27.664062 -39.085938 27.453125 -38.890625 27.234375 -38.703125 C 27.023438 -38.523438 26.8125 -38.332031 26.59375 -38.125 C 27.238281 -37.332031 27.765625 -36.398438 28.171875 -35.328125 C 28.585938 -34.265625 28.796875 -33.070312 28.796875 -31.75 C 28.796875 -30.28125 28.625 -28.984375 28.28125 -27.859375 C 27.945312 -26.734375 27.484375 -25.773438 26.890625 -24.984375 C 26.296875 -24.203125 25.625 -23.613281 24.875 -23.21875 C 24.125 -22.820312 23.335938 -22.625 22.515625 -22.625 C 22.085938 -22.625 21.601562 -22.722656 21.0625 -22.921875 C 20.53125 -23.117188 20.03125 -23.421875 19.5625 -23.828125 C 19.101562 -24.242188 18.710938 -24.78125 18.390625 -25.4375 C 18.066406 -26.101562 17.90625 -26.914062 17.90625 -27.875 Z M 26.59375 -31.75 C 26.59375 -32.78125 26.441406 -33.707031 26.140625 -34.53125 C 25.835938 -35.351562 25.4375 -36.066406 24.9375 -36.671875 C 23.613281 -35.523438 22.476562 -34.242188 21.53125 -32.828125 C 20.582031 -31.421875 20.109375 -29.769531 20.109375 -27.875 C 20.109375 -26.875 20.359375 -26.097656 20.859375 -25.546875 C 21.359375 -24.992188 21.945312 -24.71875 22.625 -24.71875 C 23.414062 -24.71875 24.066406 -24.96875 24.578125 -25.46875 C 25.097656 -25.96875 25.5 -26.582031 25.78125 -27.3125 C 26.070312 -28.050781 26.28125 -28.820312 26.40625 -29.625 C 26.53125 -30.425781 26.59375 -31.132812 26.59375 -31.75 Z M 26.59375 -31.75 "/></g></g></g><g fill="#000000" fill-opacity="1"><g transform="translate(355.671443, 258.845467)"><g><path d="M 16.78125 -0.75 C 14.957031 -0.75 13.207031 -1.070312 11.53125 -1.71875 C 9.851562 -2.363281 8.378906 -3.335938 7.109375 -4.640625 C 5.835938 -5.941406 4.828125 -7.578125 4.078125 -9.546875 C 3.328125 -11.515625 2.953125 -13.820312 2.953125 -16.46875 C 2.953125 -19.675781 3.414062 -22.539062 4.34375 -25.0625 C 5.269531 -27.582031 6.457031 -29.707031 7.90625 -31.4375 C 9.351562 -33.175781 10.96875 -34.5 12.75 -35.40625 C 14.539062 -36.320312 16.296875 -36.78125 18.015625 -36.78125 C 20.234375 -36.78125 21.992188 -36.046875 23.296875 -34.578125 C 24.597656 -33.117188 25.25 -31.226562 25.25 -28.90625 C 25.25 -26.894531 24.875 -25.078125 24.125 -23.453125 C 23.375 -21.828125 22.378906 -20.429688 21.140625 -19.265625 C 19.910156 -18.109375 18.5 -17.207031 16.90625 -16.5625 C 15.320312 -15.925781 13.671875 -15.609375 11.953125 -15.609375 C 11.128906 -15.609375 10.351562 -15.648438 9.625 -15.734375 C 8.894531 -15.828125 8.242188 -15.925781 7.671875 -16.03125 C 7.878906 -13.8125 8.304688 -11.894531 8.953125 -10.28125 C 9.597656 -8.675781 10.398438 -7.351562 11.359375 -6.3125 C 12.328125 -5.28125 13.410156 -4.515625 14.609375 -4.015625 C 15.804688 -3.515625 17.050781 -3.265625 18.34375 -3.265625 C 19.945312 -3.265625 21.425781 -3.65625 22.78125 -4.4375 C 24.144531 -5.226562 25.394531 -6.257812 26.53125 -7.53125 C 27.675781 -8.800781 28.722656 -10.257812 29.671875 -11.90625 C 30.617188 -13.550781 31.46875 -15.222656 32.21875 -16.921875 C 32.96875 -18.617188 33.640625 -20.28125 34.234375 -21.90625 C 34.828125 -23.53125 35.351562 -24.96875 35.8125 -26.21875 L 37.90625 -25.6875 C 37.445312 -24.507812 36.898438 -23.078125 36.265625 -21.390625 C 35.640625 -19.710938 34.914062 -17.953125 34.09375 -16.109375 C 33.28125 -14.265625 32.316406 -12.421875 31.203125 -10.578125 C 30.097656 -8.742188 28.847656 -7.101562 27.453125 -5.65625 C 26.054688 -4.207031 24.472656 -3.023438 22.703125 -2.109375 C 20.929688 -1.203125 18.957031 -0.75 16.78125 -0.75 Z M 18.125 -34.6875 C 16.800781 -34.6875 15.503906 -34.265625 14.234375 -33.421875 C 12.960938 -32.585938 11.828125 -31.4375 10.828125 -29.96875 C 9.828125 -28.507812 9.015625 -26.773438 8.390625 -24.765625 C 7.765625 -22.765625 7.453125 -20.625 7.453125 -18.34375 C 7.921875 -18.15625 8.570312 -18 9.40625 -17.875 C 10.25 -17.75 11.28125 -17.6875 12.5 -17.6875 C 13.78125 -17.6875 15.054688 -17.960938 16.328125 -18.515625 C 17.597656 -19.078125 18.738281 -19.847656 19.75 -20.828125 C 20.769531 -21.816406 21.59375 -22.988281 22.21875 -24.34375 C 22.84375 -25.695312 23.15625 -27.179688 23.15625 -28.796875 C 23.15625 -29.578125 23.046875 -30.328125 22.828125 -31.046875 C 22.617188 -31.765625 22.300781 -32.390625 21.875 -32.921875 C 21.445312 -33.460938 20.921875 -33.890625 20.296875 -34.203125 C 19.671875 -34.523438 18.945312 -34.6875 18.125 -34.6875 Z M 18.125 -34.6875 "/></g></g></g><g fill="#000000" fill-opacity="1"><g transform="translate(386.394649, 258.845467)"><g><path d="M 8.90625 -30.296875 C 8.507812 -29.253906 8.125 -28.234375 7.75 -27.234375 C 7.375 -26.234375 6.960938 -25.234375 6.515625 -24.234375 C 6.066406 -23.234375 5.535156 -22.25 4.921875 -21.28125 C 4.316406 -20.320312 3.585938 -19.34375 2.734375 -18.34375 L 2.3125 -18.765625 C 3.238281 -21.015625 4.054688 -23.316406 4.765625 -25.671875 C 5.484375 -28.035156 6.203125 -30.6875 6.921875 -33.625 C 6.742188 -34.125 6.582031 -34.550781 6.4375 -34.90625 C 6.289062 -35.257812 6.160156 -35.585938 6.046875 -35.890625 C 5.941406 -36.203125 5.851562 -36.523438 5.78125 -36.859375 C 5.71875 -37.203125 5.6875 -37.585938 5.6875 -38.015625 C 5.6875 -38.585938 5.765625 -39.222656 5.921875 -39.921875 C 6.085938 -40.617188 6.320312 -41.269531 6.625 -41.875 C 6.925781 -42.476562 7.269531 -42.984375 7.65625 -43.390625 C 8.050781 -43.804688 8.46875 -44.015625 8.90625 -44.015625 C 9.40625 -44.015625 9.804688 -43.898438 10.109375 -43.671875 C 10.410156 -43.441406 10.648438 -43.144531 10.828125 -42.78125 C 11.003906 -42.425781 11.128906 -42.050781 11.203125 -41.65625 C 11.273438 -41.269531 11.3125 -40.894531 11.3125 -40.53125 C 11.3125 -40 11.25 -39.382812 11.125 -38.6875 C 11 -37.988281 10.851562 -37.304688 10.6875 -36.640625 C 10.53125 -35.984375 10.390625 -35.40625 10.265625 -34.90625 C 10.140625 -34.40625 10.078125 -34.082031 10.078125 -33.9375 C 10.367188 -32.976562 10.859375 -31.992188 11.546875 -30.984375 C 12.242188 -29.984375 13.039062 -28.960938 13.9375 -27.921875 C 14.832031 -26.890625 15.769531 -25.8125 16.75 -24.6875 C 17.738281 -23.5625 18.632812 -22.375 19.4375 -21.125 C 20.238281 -19.875 20.898438 -18.539062 21.421875 -17.125 C 21.941406 -15.71875 22.203125 -14.226562 22.203125 -12.65625 C 22.203125 -10.40625 21.867188 -8.582031 21.203125 -7.1875 C 20.546875 -5.789062 19.660156 -4.71875 18.546875 -3.96875 C 20.160156 -4.613281 21.671875 -5.753906 23.078125 -7.390625 C 24.492188 -9.035156 25.800781 -10.921875 27 -13.046875 C 28.195312 -15.179688 29.300781 -17.410156 30.3125 -19.734375 C 31.332031 -22.054688 32.238281 -24.21875 33.03125 -26.21875 L 35.125 -25.6875 C 33.90625 -22.570312 32.613281 -19.53125 31.25 -16.5625 C 29.894531 -13.601562 28.359375 -10.957031 26.640625 -8.625 C 24.929688 -6.300781 22.992188 -4.425781 20.828125 -3 C 18.671875 -1.570312 16.195312 -0.859375 13.40625 -0.859375 C 12.65625 -0.859375 11.894531 -0.921875 11.125 -1.046875 C 10.351562 -1.171875 9.601562 -1.363281 8.875 -1.625 C 8.144531 -1.894531 7.457031 -2.265625 6.8125 -2.734375 C 6.164062 -3.203125 5.609375 -3.753906 5.140625 -4.390625 L 6.921875 -5.578125 C 7.242188 -5.078125 7.742188 -4.609375 8.421875 -4.171875 C 9.097656 -3.742188 9.988281 -3.53125 11.09375 -3.53125 C 12.164062 -3.53125 13.101562 -3.753906 13.90625 -4.203125 C 14.71875 -4.648438 15.398438 -5.257812 15.953125 -6.03125 C 16.503906 -6.800781 16.914062 -7.703125 17.1875 -8.734375 C 17.457031 -9.773438 17.59375 -10.882812 17.59375 -12.0625 C 17.59375 -14.488281 17.242188 -16.578125 16.546875 -18.328125 C 15.847656 -20.085938 15.023438 -21.65625 14.078125 -23.03125 C 13.128906 -24.40625 12.160156 -25.664062 11.171875 -26.8125 C 10.191406 -27.957031 9.4375 -29.117188 8.90625 -30.296875 Z M 8.90625 -30.296875 "/></g></g></g><g fill="#000000" fill-opacity="1"><g transform="translate(414.383328, 258.845467)"><g/></g></g><g fill="#000000" fill-opacity="1"><g transform="translate(438.565108, 258.845467)"><g><path d="M 20.96875 -38.015625 C 22.539062 -38.015625 23.890625 -37.804688 25.015625 -37.390625 C 26.140625 -36.984375 27.0625 -36.566406 27.78125 -36.140625 C 28.03125 -40.816406 28.4375 -44.96875 29 -48.59375 C 29.570312 -52.226562 30.242188 -55.394531 31.015625 -58.09375 C 31.785156 -60.789062 32.617188 -63.0625 33.515625 -64.90625 C 34.410156 -66.75 35.320312 -68.234375 36.25 -69.359375 C 37.175781 -70.484375 38.078125 -71.285156 38.953125 -71.765625 C 39.828125 -72.253906 40.640625 -72.5 41.390625 -72.5 C 43.003906 -72.5 44.226562 -71.816406 45.0625 -70.453125 C 45.90625 -69.097656 46.328125 -67.097656 46.328125 -64.453125 C 46.328125 -63.054688 46.175781 -61.273438 45.875 -59.109375 C 45.570312 -56.953125 45.125 -54.539062 44.53125 -51.875 C 43.9375 -49.207031 43.21875 -46.351562 42.375 -43.3125 C 41.539062 -40.28125 40.578125 -37.226562 39.484375 -34.15625 C 38.398438 -31.082031 37.210938 -28.039062 35.921875 -25.03125 C 34.640625 -22.03125 33.25 -19.207031 31.75 -16.5625 C 31.882812 -14.53125 32.101562 -12.890625 32.40625 -11.640625 C 32.71875 -10.390625 33.101562 -9.414062 33.5625 -8.71875 C 34.03125 -8.019531 34.566406 -7.546875 35.171875 -7.296875 C 35.773438 -7.046875 36.457031 -6.921875 37.21875 -6.921875 C 38.25 -6.921875 39.242188 -7.269531 40.203125 -7.96875 C 41.171875 -8.664062 42.15625 -9.78125 43.15625 -11.3125 C 44.164062 -12.851562 45.203125 -14.847656 46.265625 -17.296875 C 47.335938 -19.742188 48.503906 -22.71875 49.765625 -26.21875 L 51.84375 -25.6875 C 50.8125 -22.9375 49.773438 -20.265625 48.734375 -17.671875 C 47.703125 -15.078125 46.585938 -12.769531 45.390625 -10.75 C 44.191406 -8.726562 42.875 -7.109375 41.4375 -5.890625 C 40.007812 -4.679688 38.382812 -4.078125 36.5625 -4.078125 C 34.3125 -4.078125 32.5625 -4.742188 31.3125 -6.078125 C 30.0625 -7.421875 29.132812 -9.273438 28.53125 -11.640625 C 26.457031 -8.597656 24.226562 -6.171875 21.84375 -4.359375 C 19.46875 -2.554688 16.976562 -1.65625 14.375 -1.65625 C 12.90625 -1.65625 11.488281 -1.929688 10.125 -2.484375 C 8.769531 -3.046875 7.570312 -3.90625 6.53125 -5.0625 C 5.5 -6.226562 4.660156 -7.710938 4.015625 -9.515625 C 3.378906 -11.316406 3.0625 -13.488281 3.0625 -16.03125 C 3.0625 -18.675781 3.476562 -21.300781 4.3125 -23.90625 C 5.15625 -26.519531 6.351562 -28.875 7.90625 -30.96875 C 9.457031 -33.0625 11.332031 -34.757812 13.53125 -36.0625 C 15.738281 -37.363281 18.21875 -38.015625 20.96875 -38.015625 Z M 16.25 -4.71875 C 18.25 -4.71875 20.257812 -5.601562 22.28125 -7.375 C 24.300781 -9.144531 26.238281 -11.476562 28.09375 -14.375 C 27.882812 -16.050781 27.742188 -17.835938 27.671875 -19.734375 C 27.597656 -21.628906 27.5625 -23.648438 27.5625 -25.796875 C 27.5625 -27.148438 27.5625 -28.492188 27.5625 -29.828125 C 27.5625 -31.171875 27.597656 -32.472656 27.671875 -33.734375 C 27.492188 -33.867188 27.234375 -34.0625 26.890625 -34.3125 C 26.546875 -34.5625 26.113281 -34.8125 25.59375 -35.0625 C 25.082031 -35.3125 24.492188 -35.515625 23.828125 -35.671875 C 23.171875 -35.835938 22.429688 -35.921875 21.609375 -35.921875 C 20.390625 -35.921875 19.007812 -35.582031 17.46875 -34.90625 C 15.9375 -34.226562 14.484375 -33.128906 13.109375 -31.609375 C 11.734375 -30.085938 10.578125 -28.109375 9.640625 -25.671875 C 8.710938 -23.242188 8.25 -20.28125 8.25 -16.78125 C 8.25 -15.101562 8.4375 -13.53125 8.8125 -12.0625 C 9.195312 -10.59375 9.734375 -9.3125 10.421875 -8.21875 C 11.117188 -7.132812 11.957031 -6.28125 12.9375 -5.65625 C 13.925781 -5.03125 15.03125 -4.71875 16.25 -4.71875 Z M 44.234375 -64.453125 C 44.234375 -64.984375 44.207031 -65.585938 44.15625 -66.265625 C 44.101562 -66.953125 43.984375 -67.585938 43.796875 -68.171875 C 43.617188 -68.765625 43.359375 -69.265625 43.015625 -69.671875 C 42.679688 -70.085938 42.210938 -70.296875 41.609375 -70.296875 C 40.140625 -70.296875 38.785156 -69.078125 37.546875 -66.640625 C 36.316406 -64.210938 35.253906 -60.863281 34.359375 -56.59375 C 33.472656 -52.320312 32.78125 -47.304688 32.28125 -41.546875 C 31.78125 -35.796875 31.53125 -29.597656 31.53125 -22.953125 L 31.53125 -20.53125 C 32.738281 -22.925781 33.894531 -25.484375 35 -28.203125 C 36.113281 -30.921875 37.144531 -33.65625 38.09375 -36.40625 C 39.039062 -39.15625 39.890625 -41.890625 40.640625 -44.609375 C 41.390625 -47.328125 42.03125 -49.910156 42.5625 -52.359375 C 43.101562 -54.804688 43.515625 -57.066406 43.796875 -59.140625 C 44.085938 -61.210938 44.234375 -62.984375 44.234375 -64.453125 Z M 44.234375 -64.453125 "/></g></g></g><g fill="#000000" fill-opacity="1"><g transform="translate(483.282654, 258.845467)"><g><path d="M 46.328125 -25.6875 C 44.859375 -21.71875 43.523438 -18.390625 42.328125 -15.703125 C 41.128906 -13.023438 39.96875 -10.863281 38.84375 -9.21875 C 37.71875 -7.570312 36.597656 -6.390625 35.484375 -5.671875 C 34.378906 -4.960938 33.164062 -4.609375 31.84375 -4.609375 C 30.238281 -4.609375 28.863281 -5.171875 27.71875 -6.296875 C 26.570312 -7.421875 25.859375 -9.164062 25.578125 -11.53125 C 24.429688 -9.0625 22.945312 -7.046875 21.125 -5.484375 C 19.300781 -3.929688 17.015625 -3.15625 14.265625 -3.15625 C 12.796875 -3.15625 11.390625 -3.421875 10.046875 -3.953125 C 8.710938 -4.492188 7.523438 -5.328125 6.484375 -6.453125 C 5.453125 -7.585938 4.625 -9.007812 4 -10.71875 C 3.375 -12.4375 3.0625 -14.457031 3.0625 -16.78125 C 3.0625 -19.144531 3.351562 -21.363281 3.9375 -23.4375 C 4.53125 -25.507812 5.304688 -27.410156 6.265625 -29.140625 C 7.234375 -30.878906 8.351562 -32.425781 9.625 -33.78125 C 10.894531 -35.132812 12.207031 -36.273438 13.5625 -37.203125 C 14.925781 -38.140625 16.285156 -38.859375 17.640625 -39.359375 C 18.992188 -39.859375 20.242188 -40.109375 21.390625 -40.109375 C 22.390625 -40.109375 23.351562 -39.984375 24.28125 -39.734375 C 25.21875 -39.484375 26.050781 -39.078125 26.78125 -38.515625 C 27.507812 -37.960938 28.097656 -37.222656 28.546875 -36.296875 C 28.992188 -35.367188 29.21875 -34.207031 29.21875 -32.8125 C 29.21875 -31.164062 28.90625 -29.734375 28.28125 -28.515625 C 27.65625 -27.304688 26.90625 -26.289062 26.03125 -25.46875 C 25.15625 -24.644531 24.257812 -23.984375 23.34375 -23.484375 C 22.4375 -22.984375 21.710938 -22.625 21.171875 -22.40625 L 20.53125 -24.5 C 20.644531 -24.5 21.046875 -24.640625 21.734375 -24.921875 C 22.429688 -25.210938 23.164062 -25.6875 23.9375 -26.34375 C 24.707031 -27.007812 25.414062 -27.859375 26.0625 -28.890625 C 26.707031 -29.929688 27.03125 -31.203125 27.03125 -32.703125 C 27.03125 -34.421875 26.546875 -35.734375 25.578125 -36.640625 C 24.609375 -37.554688 23.375 -38.015625 21.875 -38.015625 C 20.726562 -38.015625 19.382812 -37.601562 17.84375 -36.78125 C 16.3125 -35.957031 14.835938 -34.671875 13.421875 -32.921875 C 12.015625 -31.171875 10.816406 -28.953125 9.828125 -26.265625 C 8.847656 -23.585938 8.359375 -20.390625 8.359375 -16.671875 C 8.359375 -12.992188 9.007812 -10.1875 10.3125 -8.25 C 11.625 -6.320312 13.390625 -5.359375 15.609375 -5.359375 C 16.710938 -5.359375 17.773438 -5.671875 18.796875 -6.296875 C 19.816406 -6.921875 20.753906 -7.75 21.609375 -8.78125 C 22.460938 -9.820312 23.226562 -11.03125 23.90625 -12.40625 C 24.59375 -13.789062 25.1875 -15.210938 25.6875 -16.671875 C 25.6875 -17.816406 25.816406 -19.164062 26.078125 -20.71875 C 26.347656 -22.28125 26.769531 -23.863281 27.34375 -25.46875 L 30.609375 -24.390625 C 30.429688 -23.929688 30.253906 -23.328125 30.078125 -22.578125 C 29.898438 -21.828125 29.726562 -21.003906 29.5625 -20.109375 C 29.40625 -19.210938 29.273438 -18.289062 29.171875 -17.34375 C 29.066406 -16.394531 29.015625 -15.472656 29.015625 -14.578125 C 29.015625 -11.796875 29.289062 -9.875 29.84375 -8.8125 C 30.394531 -7.757812 31.347656 -7.234375 32.703125 -7.234375 C 33.492188 -7.234375 34.269531 -7.519531 35.03125 -8.09375 C 35.800781 -8.664062 36.632812 -9.664062 37.53125 -11.09375 C 38.425781 -12.53125 39.410156 -14.472656 40.484375 -16.921875 C 41.554688 -19.367188 42.804688 -22.46875 44.234375 -26.21875 Z M 46.328125 -25.6875 "/></g></g></g><g fill="#000000" fill-opacity="1"><g transform="translate(522.477518, 258.845467)"><g/></g></g><g fill="#000000" fill-opacity="1"><g transform="translate(546.659319, 258.845467)"><g><path d="M 75.4375 14.15625 C 75.40625 14.15625 74.84375 14.070312 73.75 13.90625 C 72.664062 13.75 71.304688 13.320312 69.671875 12.625 C 68.046875 11.925781 66.296875 10.890625 64.421875 9.515625 C 62.546875 8.140625 60.800781 6.234375 59.1875 3.796875 C 57.582031 1.367188 56.242188 -1.671875 55.171875 -5.328125 C 54.097656 -8.992188 53.5625 -13.4375 53.5625 -18.65625 C 53.5625 -20.625 53.664062 -22.972656 53.875 -25.703125 C 54.09375 -28.441406 54.390625 -31.363281 54.765625 -34.46875 C 55.140625 -37.582031 55.550781 -40.800781 56 -44.125 C 56.445312 -47.445312 56.910156 -50.679688 57.390625 -53.828125 C 57.878906 -56.972656 58.347656 -59.957031 58.796875 -62.78125 C 59.242188 -65.613281 59.628906 -68.082031 59.953125 -70.1875 C 59.515625 -68.46875 59.035156 -66.597656 58.515625 -64.578125 C 58.003906 -62.566406 57.460938 -60.441406 56.890625 -58.203125 C 56.316406 -55.972656 55.734375 -53.675781 55.140625 -51.3125 C 54.554688 -48.957031 53.957031 -46.597656 53.34375 -44.234375 C 52.738281 -41.804688 52.0625 -39.273438 51.3125 -36.640625 C 50.5625 -34.015625 49.722656 -31.425781 48.796875 -28.875 C 47.867188 -26.320312 46.847656 -23.890625 45.734375 -21.578125 C 44.628906 -19.273438 43.394531 -17.25 42.03125 -15.5 C 40.675781 -13.75 39.210938 -12.351562 37.640625 -11.3125 C 36.066406 -10.28125 34.351562 -9.765625 32.5 -9.765625 C 31.457031 -9.765625 30.472656 -9.957031 29.546875 -10.34375 C 28.617188 -10.738281 27.804688 -11.410156 27.109375 -12.359375 C 26.410156 -13.304688 25.851562 -14.570312 25.4375 -16.15625 C 25.03125 -17.75 24.828125 -19.765625 24.828125 -22.203125 C 24.828125 -23.628906 24.890625 -25.367188 25.015625 -27.421875 C 25.140625 -29.484375 25.300781 -31.738281 25.5 -34.1875 C 25.695312 -36.632812 25.925781 -39.234375 26.1875 -41.984375 C 26.457031 -44.734375 26.734375 -47.507812 27.015625 -50.3125 C 27.304688 -53.125 27.59375 -55.90625 27.875 -58.65625 C 28.164062 -61.40625 28.4375 -64.035156 28.6875 -66.546875 C 27.757812 -62.753906 26.648438 -58.035156 25.359375 -52.390625 C 24.078125 -46.742188 22.648438 -40.414062 21.078125 -33.40625 C 19.753906 -27.507812 18.367188 -22.28125 16.921875 -17.71875 C 15.472656 -13.164062 14.039062 -9.179688 12.625 -5.765625 C 11.21875 -2.347656 9.867188 0.523438 8.578125 2.859375 C 7.296875 5.203125 6.160156 7.097656 5.171875 8.546875 C 4.191406 9.992188 3.394531 11.046875 2.78125 11.703125 C 2.175781 12.367188 1.875 12.722656 1.875 12.765625 L 0 11.75 C 0 11.707031 0.3125 11.140625 0.9375 10.046875 C 1.5625 8.960938 2.375 7.4375 3.375 5.46875 C 4.375 3.5 5.515625 1.128906 6.796875 -1.640625 C 8.085938 -4.410156 9.410156 -7.472656 10.765625 -10.828125 C 12.128906 -14.191406 13.488281 -17.820312 14.84375 -21.71875 C 16.207031 -25.613281 17.441406 -29.6875 18.546875 -33.9375 C 20.160156 -39.945312 21.597656 -45.503906 22.859375 -50.609375 C 24.128906 -55.722656 25.210938 -60.144531 26.109375 -63.875 C 27.003906 -67.613281 27.691406 -70.535156 28.171875 -72.640625 C 28.660156 -74.753906 28.90625 -75.832031 28.90625 -75.875 L 30.984375 -75.65625 C 30.984375 -75.582031 30.972656 -74.738281 30.953125 -73.125 C 30.941406 -71.519531 30.925781 -69.429688 30.90625 -66.859375 C 30.894531 -64.285156 30.878906 -61.378906 30.859375 -58.140625 C 30.835938 -54.910156 30.816406 -51.648438 30.796875 -48.359375 C 30.785156 -45.078125 30.769531 -41.925781 30.75 -38.90625 C 30.726562 -35.882812 30.71875 -33.28125 30.71875 -31.09375 C 30.71875 -28.59375 30.816406 -26.3125 31.015625 -24.25 C 31.210938 -22.195312 31.535156 -20.445312 31.984375 -19 C 32.429688 -17.5625 32.992188 -16.445312 33.671875 -15.65625 C 34.347656 -14.875 35.171875 -14.484375 36.140625 -14.484375 C 36.921875 -14.484375 37.859375 -15.007812 38.953125 -16.0625 C 40.046875 -17.113281 41.242188 -18.828125 42.546875 -21.203125 C 43.847656 -23.578125 45.222656 -26.695312 46.671875 -30.5625 C 48.117188 -34.425781 49.613281 -39.179688 51.15625 -44.828125 C 51.6875 -46.753906 52.28125 -48.894531 52.9375 -51.25 C 53.601562 -53.613281 54.328125 -56.285156 55.109375 -59.265625 C 55.898438 -62.253906 56.75 -65.585938 57.65625 -69.265625 C 58.570312 -72.953125 59.550781 -77.066406 60.59375 -81.609375 L 62.6875 -81.28125 C 61.96875 -72.707031 61.296875 -64.175781 60.671875 -55.6875 C 60.046875 -47.195312 59.734375 -38.660156 59.734375 -30.078125 C 59.734375 -23.609375 60.085938 -17.976562 60.796875 -13.1875 C 61.515625 -8.394531 62.570312 -4.3125 63.96875 -0.9375 C 65.363281 2.4375 67.085938 5.1875 69.140625 7.3125 C 71.191406 9.445312 73.578125 11.066406 76.296875 12.171875 Z M 75.4375 14.15625 "/></g></g></g><g fill="#000000" fill-opacity="1"><g transform="translate(620.223436, 258.845467)"><g><path d="M 11.203125 -5.578125 C 8.953125 -5.578125 7.082031 -6.488281 5.59375 -8.3125 C 4.113281 -10.132812 3.375 -12.882812 3.375 -16.5625 C 3.375 -19 3.863281 -22.101562 4.84375 -25.875 C 5.832031 -29.644531 7.539062 -33.90625 9.96875 -38.65625 L 11.953125 -38.125 C 11.742188 -37.195312 11.394531 -35.925781 10.90625 -34.3125 C 10.425781 -32.707031 9.941406 -30.910156 9.453125 -28.921875 C 8.972656 -26.941406 8.554688 -24.867188 8.203125 -22.703125 C 7.847656 -20.546875 7.671875 -18.46875 7.671875 -16.46875 C 7.671875 -14.78125 7.796875 -13.410156 8.046875 -12.359375 C 8.296875 -11.304688 8.625 -10.484375 9.03125 -9.890625 C 9.445312 -9.304688 9.929688 -8.90625 10.484375 -8.6875 C 11.035156 -8.46875 11.632812 -8.359375 12.28125 -8.359375 C 13.3125 -8.359375 14.289062 -8.679688 15.21875 -9.328125 C 16.15625 -9.972656 17.039062 -10.820312 17.875 -11.875 C 18.71875 -12.925781 19.503906 -14.101562 20.234375 -15.40625 C 20.972656 -16.71875 21.632812 -18.035156 22.21875 -19.359375 C 22.8125 -20.679688 23.335938 -21.941406 23.796875 -23.140625 C 24.265625 -24.335938 24.644531 -25.363281 24.9375 -26.21875 L 27.03125 -25.6875 C 26.632812 -24.613281 26.175781 -23.367188 25.65625 -21.953125 C 25.132812 -20.546875 24.539062 -19.085938 23.875 -17.578125 C 23.21875 -16.078125 22.476562 -14.613281 21.65625 -13.1875 C 20.832031 -11.757812 19.898438 -10.484375 18.859375 -9.359375 C 17.828125 -8.234375 16.675781 -7.320312 15.40625 -6.625 C 14.144531 -5.925781 12.742188 -5.578125 11.203125 -5.578125 Z M 19.890625 -55.546875 C 19.890625 -54.296875 19.40625 -53.332031 18.4375 -52.65625 C 17.476562 -51.976562 16.265625 -51.640625 14.796875 -51.640625 C 14.046875 -51.640625 13.335938 -51.753906 12.671875 -51.984375 C 12.015625 -52.210938 11.441406 -52.515625 10.953125 -52.890625 C 10.472656 -53.265625 10.097656 -53.710938 9.828125 -54.234375 C 9.566406 -54.753906 9.4375 -55.300781 9.4375 -55.875 C 9.4375 -57.082031 9.910156 -58.0625 10.859375 -58.8125 C 11.804688 -59.570312 12.90625 -59.953125 14.15625 -59.953125 C 15.050781 -59.953125 15.851562 -59.816406 16.5625 -59.546875 C 17.28125 -59.273438 17.890625 -58.925781 18.390625 -58.5 C 18.890625 -58.070312 19.265625 -57.597656 19.515625 -57.078125 C 19.765625 -56.554688 19.890625 -56.046875 19.890625 -55.546875 Z M 17 -55.546875 C 17 -55.898438 16.84375 -56.226562 16.53125 -56.53125 C 16.226562 -56.84375 15.773438 -57 15.171875 -57 C 14.066406 -57 13.515625 -56.585938 13.515625 -55.765625 C 13.515625 -55.367188 13.679688 -55.035156 14.015625 -54.765625 C 14.359375 -54.503906 14.816406 -54.375 15.390625 -54.375 C 15.921875 -54.375 16.320312 -54.488281 16.59375 -54.71875 C 16.863281 -54.945312 17 -55.222656 17 -55.546875 Z M 17 -55.546875 "/></g></g></g><g fill="#000000" fill-opacity="1"><g transform="translate(386.896316, 304.419837)"><g><path d="M 0.605469 0 L 2.46875 0 L 2.46875 -2.625 L 4.269531 -2.625 C 6.101562 -2.625 7.320312 -3.667969 7.320312 -5.226562 C 7.320312 -6.773438 6.113281 -7.816406 4.292969 -7.816406 L 0.605469 -7.816406 Z M 2.46875 -4.015625 L 2.46875 -6.433594 L 3.996094 -6.433594 C 4.882812 -6.433594 5.445312 -5.949219 5.445312 -5.226562 C 5.445312 -4.5 4.875 -4.015625 3.996094 -4.015625 Z M 2.46875 -4.015625 "/></g></g></g><g fill="#000000" fill-opacity="1"><g transform="translate(394.435465, 304.419837)"><g><path d="M 0.605469 0 L 2.480469 0 L 2.480469 -7.816406 L 0.605469 -7.816406 Z M 0.605469 0 "/></g></g></g><g fill="#000000" fill-opacity="1"><g transform="translate(397.519167, 304.419837)"><g><path d="M 0.605469 0 L 6.210938 0 L 6.210938 -1.503906 L 2.414062 -1.503906 L 2.414062 -3.335938 L 5.664062 -3.335938 L 5.664062 -4.664062 L 2.414062 -4.664062 L 2.414062 -6.324219 L 6.101562 -6.324219 L 6.101562 -7.816406 L 0.605469 -7.816406 Z M 0.605469 0 "/></g></g></g><g fill="#000000" fill-opacity="1"><g transform="translate(403.971889, 304.419837)"><g><path d="M 0.605469 0 L 3.820312 0 C 6.53125 0 8.046875 -1.394531 8.046875 -3.90625 C 8.046875 -6.421875 6.53125 -7.816406 3.820312 -7.816406 L 0.605469 -7.816406 Z M 2.425781 -1.503906 L 2.425781 -6.324219 L 3.820312 -6.324219 C 5.324219 -6.324219 6.167969 -5.464844 6.167969 -3.90625 C 6.167969 -2.359375 5.324219 -1.503906 3.820312 -1.503906 Z M 2.425781 -1.503906 "/></g></g></g><g fill="#000000" fill-opacity="1"><g transform="translate(412.345062, 304.419837)"><g><path d="M 0.0546875 0 L 2.019531 0 L 2.523438 -1.535156 L 5.53125 -1.535156 L 6.039062 0 L 8.003906 0 L 5.179688 -7.816406 L 2.886719 -7.816406 Z M 2.863281 -2.863281 L 4.015625 -6.332031 L 4.039062 -6.332031 L 5.191406 -2.863281 Z M 2.863281 -2.863281 "/></g></g></g><g fill="#000000" fill-opacity="1"><g transform="translate(420.399988, 304.419837)"><g><path d="M 0.605469 0 L 3.820312 0 C 6.53125 0 8.046875 -1.394531 8.046875 -3.90625 C 8.046875 -6.421875 6.53125 -7.816406 3.820312 -7.816406 L 0.605469 -7.816406 Z M 2.425781 -1.503906 L 2.425781 -6.324219 L 3.820312 -6.324219 C 5.324219 -6.324219 6.167969 -5.464844 6.167969 -3.90625 C 6.167969 -2.359375 5.324219 -1.503906 3.820312 -1.503906 Z M 2.425781 -1.503906 "/></g></g></g><g fill="#000000" fill-opacity="1"><g transform="translate(428.773162, 304.419837)"><g><path d="M 0.605469 0 L 6.210938 0 L 6.210938 -1.503906 L 2.414062 -1.503906 L 2.414062 -3.335938 L 5.664062 -3.335938 L 5.664062 -4.664062 L 2.414062 -4.664062 L 2.414062 -6.324219 L 6.101562 -6.324219 L 6.101562 -7.816406 L 0.605469 -7.816406 Z M 0.605469 0 "/></g></g></g><g fill="#000000" fill-opacity="1"><g transform="translate(435.225884, 304.419837)"><g/></g></g><g fill="#000000" fill-opacity="1"><g transform="translate(437.651143, 304.419837)"><g><path d="M 0.4375 -2.402344 L 4.171875 -2.402344 L 4.171875 -3.546875 L 0.4375 -3.546875 Z M 0.4375 -2.402344 "/></g></g></g><g fill="#000000" fill-opacity="1"><g transform="translate(442.260237, 304.419837)"><g/></g></g><g fill="#000000" fill-opacity="1"><g transform="translate(444.685496, 304.419837)"><g><path d="M 6.445312 0.199219 C 7.070312 0.199219 7.652344 -0.0546875 8.035156 -0.4375 L 7.640625 -1.328125 C 7.496094 -1.140625 7.289062 -1.011719 7.089844 -1.011719 C 6.859375 -1.011719 6.71875 -1.195312 6.652344 -1.425781 L 6.398438 -2.347656 C 6.269531 -2.800781 6.046875 -3.105469 5.640625 -3.269531 L 5.640625 -3.28125 C 6.804688 -3.566406 7.496094 -4.367188 7.496094 -5.402344 C 7.496094 -6.894531 6.34375 -7.816406 4.488281 -7.816406 L 0.605469 -7.816406 L 0.605469 0 L 2.480469 0 L 2.480469 -2.953125 L 3.675781 -2.953125 C 4.128906 -2.953125 4.445312 -2.601562 4.578125 -2.140625 L 4.917969 -1 C 5.136719 -0.261719 5.664062 0.199219 6.445312 0.199219 Z M 2.480469 -4.238281 L 2.480469 -6.433594 L 4.246094 -6.433594 C 5.082031 -6.433594 5.621094 -5.992188 5.621094 -5.335938 C 5.621094 -4.664062 5.082031 -4.238281 4.246094 -4.238281 Z M 2.480469 -4.238281 "/></g></g></g><g fill="#000000" fill-opacity="1"><g transform="translate(452.77335, 304.419837)"><g><path d="M 3.117188 0.253906 C 4.894531 0.253906 5.980469 -0.703125 5.980469 -2.339844 L 5.980469 -7.816406 L 4.105469 -7.816406 L 4.09375 -2.449219 C 4.09375 -1.679688 3.722656 -1.242188 3.074219 -1.242188 C 2.382812 -1.242188 1.910156 -1.722656 1.777344 -2.546875 L 0.164062 -2.007812 C 0.394531 -0.582031 1.4375 0.253906 3.117188 0.253906 Z M 3.117188 0.253906 "/></g></g></g><g clip-path="url(#4ba2fb271b)"><path stroke-linecap="butt" transform="matrix(0.749079, -0.000000000000000093, 0.000000000000000093, 0.749079, 0.395283, 48.234833)" fill="none" stroke-linejoin="miter" d="M -0.00100324 49.998316 L 1128.546958 49.998316 " stroke="#a1ccb9" stroke-width="100" stroke-opacity="1" stroke-miterlimit="4"/></g><g clip-path="url(#95e07d3167)"><path stroke-linecap="butt" transform="matrix(0.749079, 0, 0, 0.749079, 0.395283, 331.092728)" fill="none" stroke-linejoin="miter" d="M -0.00100324 50.000291 L 1148.95745 50.000291 " stroke="#a1ccb9" stroke-width="100" stroke-opacity="1" stroke-miterlimit="4"/></g><g clip-path="url(#4ba8fc8ebc)"><path fill="#ffffff" d="M 470.089844 65.546875 C 469.628906 65.085938 469.171875 64.625 468.710938 64.164062 C 468.203125 63.652344 468.539062 63.351562 468.566406 62.75 C 468.578125 62.457031 468.5625 62.195312 468.417969 61.929688 C 468.203125 61.527344 467.671875 61.058594 468.417969 60.65625 C 468.84375 60.425781 468.757812 60.472656 469.15625 60.160156 C 469.25 60.082031 469.203125 59.9375 469.117188 59.882812 C 467.472656 58.78125 465.585938 58.007812 464.160156 56.652344 C 463.625 56.144531 462.972656 56.808594 462.457031 57.109375 C 462.417969 57.0625 462.382812 57.015625 462.347656 56.972656 C 461.347656 55.828125 460.09375 54.96875 458.640625 54.597656 C 458.253906 54.324219 457.832031 54.132812 457.386719 54.066406 C 456.859375 53.988281 456.3125 54.011719 455.78125 54.035156 C 455.503906 54.046875 455.230469 54.070312 454.957031 54.09375 C 454.894531 54.097656 454.828125 54.101562 454.761719 54.105469 C 454.738281 54.019531 454.660156 53.949219 454.546875 53.988281 C 454.417969 54.035156 454.273438 54.070312 454.171875 54.164062 C 455.402344 52.484375 456.097656 50.496094 455.769531 48.234375 C 455.09375 43.570312 448.820312 43.054688 445.839844 40.550781 C 442 37.324219 446.152344 29.335938 440.78125 27.074219 C 440.226562 26.84375 439.605469 26.792969 439.015625 26.765625 C 437.800781 26.71875 438.109375 26.28125 437.765625 25.195312 C 437.285156 23.699219 436.167969 22.515625 435 21.527344 C 432.558594 19.457031 429.453125 17.96875 428.609375 14.851562 C 433.230469 15.570312 443.984375 16.34375 439.515625 10.964844 C 437.183594 7.855469 431.230469 10.851562 428.410156 13.679688 C 428.398438 13.566406 428.394531 13.449219 428.390625 13.332031 C 431.035156 8.347656 432.367188 0.351562 427.929688 0.0351562 C 423.488281 1.757812 424.277344 8.148438 426.792969 13.640625 C 426.78125 13.636719 426.773438 13.632812 426.765625 13.632812 C 425.957031 12.09375 424.582031 9.886719 423.007812 8.300781 C 421.203125 6.453125 419.160156 5.40625 417.488281 7.128906 C 416.558594 7.988281 416.191406 8.738281 416.226562 9.398438 C 416.046875 12.496094 423.640625 13.382812 426.484375 14.28125 C 426.480469 14.3125 426.476562 14.339844 426.472656 14.367188 C 426.4375 14.410156 426.398438 14.453125 426.363281 14.496094 C 424.667969 14.484375 422.175781 15.265625 420.472656 16.542969 C 420.4375 16.570312 420.40625 16.59375 420.375 16.621094 C 420.34375 16.640625 420.320312 16.664062 420.292969 16.683594 C 420.101562 16.832031 419.929688 16.984375 419.78125 17.136719 C 419.25 17.660156 418.863281 18.242188 418.691406 18.871094 C 417.089844 19.398438 415.472656 19.847656 413.992188 20.34375 C 409.773438 21.765625 405.714844 23.976562 405.628906 28.96875 C 405.625 29.085938 405.714844 29.144531 405.808594 29.144531 L 405.800781 30.144531 C 404.960938 30.195312 404.136719 30.324219 403.347656 30.5625 C 400.1875 31.507812 397.398438 35.078125 396.054688 37.949219 C 395.699219 38.714844 395.1875 40.105469 395.910156 40.835938 C 396.585938 41.515625 397.640625 41.472656 398.617188 41.265625 C 395.148438 43.78125 395.222656 48.914062 392.046875 51.820312 C 391.925781 51.933594 392.027344 52.132812 392.179688 52.136719 C 392.53125 52.144531 392.875 52.191406 393.21875 52.25 L 393.144531 53.492188 C 390.570312 53.363281 388.910156 55.730469 388.09375 57.917969 C 388.066406 57.992188 388.042969 58.066406 388.019531 58.140625 C 386.828125 58.359375 385.464844 58.992188 384.199219 59.976562 C 384.082031 60.003906 383.972656 60.042969 383.867188 60.082031 C 383.785156 60.105469 383.691406 60.136719 383.492188 60.203125 C 383.128906 60.328125 382.742188 60.261719 382.382812 60.269531 C 382.351562 60.257812 382.320312 60.246094 382.289062 60.230469 L 382.007812 60.324219 C 381.996094 60.328125 381.980469 60.328125 381.964844 60.332031 C 381.5 60.488281 381.03125 60.644531 380.5625 60.804688 C 380.492188 60.828125 380.425781 60.890625 380.433594 60.972656 C 380.453125 61.238281 380.796875 63 380.785156 63.480469 C 380.191406 63.417969 379.535156 63.328125 379.054688 63.523438 C 378.789062 63.566406 378.539062 63.667969 378.335938 63.875 C 378.0625 64.144531 378.03125 64.910156 378.265625 65.261719 C 377.289062 65.8125 376.367188 66.492188 375.777344 67.464844 C 375.71875 67.5625 375.777344 67.6875 375.882812 67.722656 C 376.542969 67.9375 376.921875 67.796875 377.480469 67.410156 C 377.683594 67.070312 377.660156 67.171875 377.40625 67.707031 C 377.308594 67.914062 377.207031 68.117188 377.105469 68.324219 C 376.933594 68.667969 376.761719 69.003906 376.695312 69.382812 C 376.679688 69.476562 376.71875 69.578125 376.820312 69.601562 C 376.929688 69.628906 377.046875 69.664062 377.167969 69.699219 C 377.15625 69.738281 377.15625 69.785156 377.183594 69.832031 C 382.910156 80.460938 383.21875 93.136719 388.753906 103.855469 C 390.851562 107.917969 393.914062 111.339844 398.0625 113.160156 C 398.09375 113.226562 398.164062 113.246094 398.230469 113.230469 C 398.679688 113.421875 399.136719 113.601562 399.609375 113.75 C 403.433594 114.976562 407.597656 115.574219 411.527344 116.371094 C 415.832031 117.242188 420.175781 117.949219 424.566406 118.15625 C 431.472656 118.480469 438.671875 116.976562 445.332031 115.285156 C 448.632812 114.449219 451.976562 113.449219 454.976562 111.816406 C 456.011719 111.253906 457.011719 110.542969 457.773438 109.632812 C 458.195312 109.125 458.367188 108.578125 458.433594 108.003906 C 458.4375 107.992188 458.4375 107.980469 458.4375 107.964844 C 459.464844 93.269531 466.992188 80.152344 469.804688 65.878906 C 469.804688 65.878906 469.804688 65.875 469.804688 65.875 C 469.804688 65.863281 469.941406 65.851562 470.003906 65.84375 C 470.140625 65.820312 470.175781 65.632812 470.089844 65.546875 Z M 470.089844 65.546875 " fill-opacity="1" fill-rule="nonzero"/></g><path fill="#fa82b2" d="M 384.296875 60.199219 C 386.148438 58.9375 386.125 58.519531 388.078125 58.441406 L 388.09375 57.917969 C 385.628906 68.9375 402.589844 69.746094 406.300781 70.164062 C 427.585938 71.804688 431.109375 73.472656 447.484375 68.773438 C 450.960938 67.820312 466.820312 61.578125 457.902344 54.621094 C 459.972656 54.855469 461.472656 56.171875 462.519531 57.445312 C 463.605469 58.761719 464.203125 60.035156 464.4375 60.035156 C 468.097656 63.792969 466.691406 64.265625 465.753906 68.023438 L 465.753906 68.046875 C 465.332031 68.023438 464.878906 68.023438 464.351562 68.023438 C 465.285156 74.597656 462.476562 69.429688 460.140625 71.320312 C 459.203125 71.78125 459.203125 74.597656 457.796875 75.078125 C 456.867188 75.078125 453.585938 74.136719 453.117188 74.136719 C 452.65625 74.597656 447.976562 77.425781 448.445312 77.425781 C 447.976562 77.425781 444.703125 76.953125 444.703125 76.953125 C 440.960938 77.894531 439.085938 75.078125 436.28125 79.292969 C 435.992188 78.976562 434.984375 77.894531 435.34375 77.894531 L 434.875 77.894531 C 432.539062 77.425781 431.601562 79.300781 429.265625 79.300781 C 427.859375 79.300781 423.179688 78.359375 422.710938 78.359375 C 420.84375 77.894531 418.03125 77.425781 415.695312 77.425781 C 414.289062 77.425781 413.359375 79.761719 411.953125 79.761719 C 411.015625 79.761719 409.617188 76.953125 409.617188 76.953125 C 407.742188 76.953125 404.9375 77.425781 402.59375 77.425781 C 399.789062 77.894531 399.789062 73.1875 394.640625 77.425781 C 394.171875 76.484375 393.710938 75.078125 393.710938 74.597656 C 393.238281 74.597656 391.832031 75.542969 391.832031 75.542969 C 389.027344 74.597656 390.894531 74.136719 388.089844 74.597656 C 387.152344 74.136719 387.621094 73.1875 387.152344 72.246094 C 386.222656 72.246094 385.285156 72.722656 384.347656 72.246094 C 384.816406 71.320312 384.347656 69.90625 384.347656 68.496094 C 383.410156 68.964844 381.542969 69.429688 380.605469 69.90625 C 380.605469 69.90625 380.605469 69.429688 380.605469 68.964844 C 380.410156 69.042969 380.230469 69.113281 380.074219 69.175781 C 379.597656 67.214844 379.980469 65.371094 380.886719 63.785156 C 380.949219 63.792969 381.011719 63.792969 381.074219 63.792969 C 381.074219 63.730469 381.066406 63.628906 381.042969 63.511719 C 381.84375 62.207031 382.992188 61.078125 384.296875 60.199219 Z M 384.296875 60.199219 " fill-opacity="1" fill-rule="nonzero"/><path fill="#97cfb6" d="M 398.484375 112.792969 C 384.304688 106.953125 385.007812 83.644531 377.609375 70.101562 L 377.867188 69.339844 C 378.828125 69.582031 378.90625 69.503906 380.351562 68.902344 C 380.507812 68.839844 380.6875 68.769531 380.882812 68.6875 C 380.882812 69.152344 380.882812 69.632812 380.882812 69.632812 C 381.820312 69.152344 383.6875 68.6875 384.625 68.21875 C 384.625 69.632812 385.09375 71.042969 384.625 71.96875 C 385.5625 72.449219 386.5 71.96875 387.429688 71.96875 C 387.898438 72.910156 387.429688 73.859375 388.367188 74.324219 C 391.171875 73.859375 389.304688 74.324219 392.109375 75.265625 C 392.109375 75.265625 393.515625 74.324219 393.984375 74.324219 C 393.984375 74.800781 394.445312 76.207031 394.914062 77.148438 L 395.851562 78.5625 C 398.484375 88.378906 403.1875 104.628906 403.1875 112.609375 L 402.890625 114.007812 C 402.570312 113.9375 402.25 113.867188 401.9375 113.804688 C 400.695312 113.574219 399.546875 113.230469 398.484375 112.792969 Z M 398.484375 112.792969 " fill-opacity="1" fill-rule="nonzero"/><path fill="#97cfb6" d="M 381.320312 63.234375 C 381.226562 62.535156 380.882812 61.101562 380.882812 60.699219 L 382.289062 60.230469 C 383.203125 60.691406 383.671875 59.949219 384.570312 59.921875 C 383.265625 60.800781 382.117188 61.933594 381.320312 63.234375 Z M 381.320312 63.234375 " fill-opacity="1" fill-rule="nonzero"/><path fill="#97cfb6" d="M 381.164062 63.511719 C 380.257812 65.09375 379.875 66.9375 380.351562 68.902344 C 378.90625 69.503906 378.828125 69.582031 377.867188 69.339844 C 377.671875 69.285156 377.429688 69.222656 377.140625 69.152344 C 377.140625 68.6875 378.078125 67.285156 378.078125 66.8125 C 377.609375 66.8125 377.140625 67.746094 376.203125 67.285156 C 376.640625 66.398438 377.914062 65.503906 378.84375 65.023438 C 378.890625 65.023438 378.953125 64.992188 379.015625 64.929688 C 378.960938 64.953125 378.90625 64.984375 378.84375 65.023438 C 378.546875 65.023438 378.546875 63.988281 378.546875 63.988281 C 378.984375 63.117188 380.242188 63.464844 381.164062 63.511719 Z M 381.164062 63.511719 " fill-opacity="1" fill-rule="nonzero"/><path fill="#97cfb6" d="M 464.816406 57.6875 C 466.222656 58.152344 467.628906 59.101562 469.027344 60.035156 C 468.558594 60.503906 468.097656 60.503906 467.628906 60.976562 C 468.558594 62.390625 468.558594 62.390625 468.097656 63.792969 C 468.558594 64.265625 469.496094 65.207031 469.964844 65.667969 L 469.582031 65.730469 L 467.160156 66.148438 C 467.160156 66.617188 468.097656 68.023438 467.628906 68.496094 C 467.042969 68.195312 466.449219 68.085938 465.753906 68.046875 L 465.753906 68.023438 C 466.691406 64.265625 468.097656 63.792969 464.441406 60.035156 C 464.207031 60.035156 463.605469 58.765625 462.519531 57.445312 C 463.441406 56.886719 463.613281 56.054688 464.816406 57.6875 Z M 464.816406 57.6875 " fill-opacity="1" fill-rule="nonzero"/><path fill="#fa82b2" d="M 414.085938 63.207031 C 417.980469 54.402344 406.785156 60.265625 403.378906 60.265625 C 398.996094 60.265625 390.71875 56.355469 397.042969 51.460938 C 394.644531 52.671875 394.546875 52.222656 393.230469 52.027344 C 392.953125 51.984375 392.613281 51.953125 392.171875 51.953125 C 395.582031 49.019531 395.101562 42.667969 399.960938 40.699219 C 390.71875 43.640625 398.996094 32.394531 402.890625 30.921875 C 403.839844 30.546875 404.816406 30.351562 405.800781 30.269531 C 409.851562 29.96875 414.160156 31.707031 418.46875 30.921875 C 426.972656 28.554688 425.386719 22.039062 426.625 14.5 C 426.949219 14.109375 427.25 13.683594 427.511719 13.234375 L 428.203125 13.324219 C 428.203125 20.167969 437.453125 20.167969 437.941406 27.011719 C 446.21875 26.03125 442.324219 37.285156 445.242188 40.21875 C 448.171875 43.640625 458.390625 43.640625 454.984375 52.433594 C 454.722656 53.007812 454.40625 53.554688 454.03125 54.066406 C 447.375 63.304688 423.304688 64.128906 414.085938 63.207031 Z M 414.085938 63.207031 " fill-opacity="1" fill-rule="nonzero"/><g clip-path="url(#c7d8188980)"><g mask="url(#17e76e140a)"><g transform="matrix(1, 0, 0, 1, 394, 65)"><g clip-path="url(#6cbca291b1)"><g clip-path="url(#098023c0ec)"><path fill="#97cfb6" d="M 41.34375 12.894531 C 40.984375 12.894531 41.992188 13.976562 42.28125 14.292969 C 45.085938 10.078125 46.960938 12.894531 50.703125 11.953125 C 50.703125 11.953125 53.976562 12.425781 54.445312 12.425781 C 53.976562 12.425781 58.65625 9.597656 59.117188 9.136719 C 59.585938 9.136719 62.867188 10.078125 63.800781 10.078125 C 65.207031 9.597656 65.207031 6.78125 66.144531 6.320312 C 68.480469 4.429688 71.285156 9.597656 70.355469 3.023438 C 70.878906 3.023438 71.332031 3.023438 71.753906 3.046875 C 72.449219 3.085938 73.042969 3.195312 73.628906 3.492188 C 74.097656 3.023438 73.160156 1.617188 73.160156 1.148438 L 75.582031 0.730469 L 75.652344 1.148438 C 72.847656 15.242188 65.207031 28.402344 64.269531 42.964844 C 64.269531 43.15625 64.269531 43.328125 64.269531 43.4375 C 62.402344 49.078125 41.34375 52.367188 36.195312 52.839844 C 29.835938 53.503906 22.507812 52.25 15.601562 50.796875 L 15.773438 49.988281 C 15.84375 48.703125 15.882812 47.101562 15.882812 45.265625 L 17.976562 45.28125 C 18.078125 36.460938 18.375 24.273438 17.953125 16.652344 L 17.953125 14.761719 C 19.359375 14.761719 20.289062 12.425781 21.695312 12.425781 C 24.03125 12.425781 26.84375 12.894531 28.710938 13.359375 C 29.179688 13.359375 33.859375 14.300781 35.265625 14.300781 C 37.601562 14.300781 38.539062 12.425781 40.875 12.894531 Z M 41.34375 12.894531 " fill-opacity="1" fill-rule="nonzero"/></g><g clip-path="url(#4991033ac4)"><path fill="#97cfb6" d="M 15.773438 49.988281 L 15.601562 50.796875 C 13.203125 50.296875 10.851562 49.761719 8.617188 49.285156 L 8.914062 47.886719 C 8.914062 39.90625 4.210938 23.65625 1.578125 13.835938 L 0.640625 12.425781 C 5.789062 8.1875 5.789062 12.894531 8.59375 12.425781 C 10.9375 12.425781 13.742188 11.953125 15.617188 11.953125 C 15.617188 11.953125 17.015625 14.761719 17.953125 14.761719 L 17.953125 16.652344 C 18.375 24.273438 18.078125 36.460938 17.976562 45.28125 L 15.882812 45.265625 C 15.882812 47.101562 15.84375 48.703125 15.773438 49.988281 Z M 15.773438 49.988281 " fill-opacity="1" fill-rule="nonzero"/></g></g></g></g></g><g mask="url(#58d7ed663a)"><g transform="matrix(1, 0, 0, 1, 387, 14)"><g clip-path="url(#7730e5df94)"><g clip-path="url(#edee855414)"><path fill="#fa82b2" d="M 67.316406 40.28125 C 67.015625 40.46875 70.617188 39.78125 71.488281 40.648438 C 74.007812 43.1875 74.132812 45.417969 72.960938 47.320312 C 70.519531 51.296875 62.449219 53.851562 58.828125 54.839844 C 41.785156 59.734375 41.445312 58.058594 19.296875 56.351562 C 15.433594 55.917969 6.378906 54.3125 2.597656 50.921875 C 2.085938 50.472656 1.667969 49.980469 1.375 49.460938 C -0.550781 46.070312 2.296875 39.316406 6.132812 39.675781 L 6.230469 38.027344 C 7.546875 38.222656 7.644531 38.671875 10.042969 37.464844 C 3.71875 42.355469 11.996094 46.265625 16.378906 46.265625 C 19.785156 46.265625 30.980469 40.402344 27.085938 49.207031 C 36.308594 50.128906 60.375 49.304688 67.03125 40.066406 Z M 67.316406 40.28125 " fill-opacity="1" fill-rule="nonzero"/></g><g clip-path="url(#d7f344ca27)"><path fill="#fa82b2" d="M 18.800781 16.269531 L 18.808594 14.972656 C 18.808594 4.960938 33.980469 7.230469 39.625 0.5 C 38.386719 8.039062 39.972656 14.554688 31.46875 16.921875 C 27.160156 17.707031 22.851562 15.96875 18.800781 16.269531 Z M 18.800781 16.269531 " fill-opacity="1" fill-rule="nonzero"/></g><path fill="#fa82b2" d="M 55.324219 26.699219 C 46.558594 35.019531 35.851562 31.597656 25.140625 33.0625 C 29.515625 30.609375 54.835938 24.753906 52.402344 18.394531 C 58.890625 21.5625 55.324219 26.699219 55.324219 26.699219 Z M 55.324219 26.699219 " fill-opacity="1" fill-rule="nonzero"/></g></g></g><path fill="#000000" d="M 458.445312 107.964844 C 459.476562 93.269531 466.917969 80.152344 469.824219 65.878906 C 469.867188 65.65625 469.527344 65.5625 469.484375 65.785156 C 466.570312 80.09375 459.125 93.238281 458.09375 107.964844 C 458.078125 108.191406 458.429688 108.191406 458.445312 107.964844 Z M 458.445312 107.964844 " fill-opacity="1" fill-rule="nonzero"/><g clip-path="url(#08e9414819)"><path fill="#000000" d="M 377.183594 69.832031 C 382.910156 80.460938 383.21875 93.136719 388.753906 103.855469 C 391.105469 108.410156 394.664062 112.164062 399.609375 113.75 C 403.433594 114.976562 407.597656 115.574219 411.53125 116.371094 C 415.832031 117.242188 420.175781 117.949219 424.566406 118.15625 C 431.472656 118.480469 438.671875 116.976562 445.335938 115.285156 C 448.632812 114.449219 451.976562 113.449219 454.980469 111.816406 C 456.011719 111.253906 457.015625 110.542969 457.773438 109.632812 C 458.671875 108.558594 458.445312 107.292969 458.445312 106.035156 C 458.445312 105.722656 458.09375 105.722656 458.09375 106.035156 C 458.09375 107.292969 458.261719 108.5 457.398438 109.53125 C 456.703125 110.367188 455.734375 110.972656 454.800781 111.5 C 452.375 112.867188 449.648438 113.71875 446.984375 114.472656 C 441.847656 115.929688 436.53125 116.925781 431.230469 117.542969 C 422.835938 118.527344 414.457031 116.683594 406.292969 114.898438 C 402.957031 114.167969 399.511719 113.714844 396.496094 112.011719 C 394.054688 110.636719 392.109375 108.539062 390.554688 106.226562 C 386.933594 100.84375 385.320312 94.226562 383.683594 88.027344 C 382.039062 81.800781 380.5625 75.363281 377.484375 69.65625 C 377.378906 69.457031 377.074219 69.632812 377.183594 69.832031 Z M 377.183594 69.832031 " fill-opacity="1" fill-rule="nonzero"/></g><g clip-path="url(#af0cb17016)"><path fill="#000000" d="M 384.351562 60.011719 C 383.847656 60.078125 383.957031 60.046875 383.492188 60.203125 C 382.984375 60.378906 382.4375 60.175781 381.964844 60.332031 C 381.5 60.488281 381.03125 60.644531 380.5625 60.804688 C 380.492188 60.828125 380.425781 60.890625 380.433594 60.972656 C 380.457031 61.28125 380.917969 63.609375 380.75 63.601562 C 379.996094 63.566406 378.953125 63.25 378.335938 63.875 C 377.925781 64.285156 378.058594 65.824219 378.828125 65.355469 C 379.019531 65.238281 378.851562 64.945312 378.648438 65.050781 C 377.535156 65.640625 376.441406 66.363281 375.78125 67.464844 C 375.71875 67.5625 375.777344 67.6875 375.882812 67.722656 C 376.542969 67.9375 376.921875 67.796875 377.480469 67.410156 C 377.683594 67.070312 377.660156 67.171875 377.40625 67.707031 C 377.308594 67.914062 377.207031 68.117188 377.105469 68.324219 C 376.933594 68.667969 376.761719 69.003906 376.695312 69.382812 C 376.679688 69.476562 376.71875 69.578125 376.820312 69.601562 C 377.339844 69.734375 377.964844 69.984375 378.515625 69.90625 C 379.226562 69.804688 380.433594 68.804688 380.433594 69.902344 C 380.433594 70.046875 380.582031 70.105469 380.699219 70.054688 C 381.796875 69.550781 382.972656 69.25 384.089844 68.804688 C 384.320312 68.710938 384.277344 71.941406 384.183594 72.203125 C 384.148438 72.296875 384.21875 72.390625 384.304688 72.421875 C 384.984375 72.65625 385.566406 72.632812 386.269531 72.523438 C 387.539062 72.332031 387.117188 73.726562 387.621094 74.460938 C 388.171875 75.265625 389.363281 74.351562 390.152344 74.925781 C 391.078125 75.601562 391.628906 75.859375 392.550781 75.300781 C 393.007812 75.023438 393.480469 74.472656 393.621094 75.152344 C 393.785156 75.964844 394.140625 76.761719 394.492188 77.507812 C 394.542969 77.621094 394.6875 77.609375 394.769531 77.542969 C 396.570312 76.113281 398.246094 75.199219 400.199219 76.730469 C 401.351562 77.632812 402.179688 77.621094 403.625 77.570312 C 405.023438 77.519531 406.417969 77.339844 407.8125 77.21875 C 407.941406 77.207031 409.464844 77.042969 409.480469 77.070312 C 409.585938 77.28125 409.703125 77.488281 409.816406 77.691406 C 410.226562 78.417969 411.179688 80.285156 412.292969 79.90625 C 412.976562 79.671875 413.445312 79.21875 413.949219 78.71875 C 415.144531 77.527344 416.191406 77.566406 417.785156 77.699219 C 420 77.882812 422.179688 78.417969 424.367188 78.792969 C 426.109375 79.089844 427.941406 79.546875 429.714844 79.453125 C 430.523438 79.410156 431.289062 79.011719 431.996094 78.652344 C 433.15625 78.066406 434.089844 78.066406 435.347656 78.066406 C 435.316406 77.957031 435.285156 77.847656 435.257812 77.734375 C 435.234375 77.746094 435.210938 77.757812 435.1875 77.769531 C 435.132812 77.792969 435.101562 77.863281 435.101562 77.921875 C 435.113281 78.570312 435.925781 78.949219 436.199219 79.457031 C 436.289062 79.386719 436.382812 79.3125 436.476562 79.242188 C 436.296875 79.0625 438.195312 77.523438 438.34375 77.433594 C 438.882812 77.101562 439.527344 77.054688 440.140625 77.066406 C 441.167969 77.089844 442.171875 77.332031 443.207031 77.328125 C 444.101562 77.328125 444.820312 77.144531 445.71875 77.269531 C 446.621094 77.394531 447.535156 77.554688 448.445312 77.59375 C 448.65625 77.605469 448.667969 77.3125 448.492188 77.25 C 448.8125 77.363281 448.421875 77.558594 448.882812 77.210938 C 449.0625 77.074219 449.25 76.949219 449.433594 76.824219 C 449.921875 76.488281 450.421875 76.167969 450.914062 75.847656 C 451.402344 75.53125 452.769531 74.242188 453.351562 74.335938 C 454.691406 74.554688 455.992188 74.996094 457.335938 75.203125 C 458.25 75.347656 458.707031 74.648438 459.0625 73.886719 C 459.652344 72.632812 459.820312 70.988281 461.566406 71.054688 C 462.359375 71.085938 463.042969 71.59375 463.824219 71.664062 C 464.363281 71.710938 464.582031 71.195312 464.667969 70.757812 C 464.777344 70.199219 464.699219 69.597656 464.652344 69.039062 C 464.527344 67.570312 466.667969 68.261719 467.539062 68.644531 C 467.625 68.683594 467.726562 68.671875 467.777344 68.582031 C 468.042969 68.117188 467.664062 66.234375 467.246094 66.304688 C 468.167969 66.152344 469.089844 65.996094 470.011719 65.84375 C 470.148438 65.820312 470.175781 65.632812 470.089844 65.546875 C 469.632812 65.085938 469.171875 64.625 468.714844 64.164062 C 468.203125 63.652344 468.539062 63.351562 468.566406 62.75 C 468.578125 62.457031 468.5625 62.195312 468.417969 61.929688 C 468.203125 61.527344 467.675781 61.058594 468.417969 60.65625 C 468.84375 60.425781 468.757812 60.472656 469.15625 60.160156 C 469.25 60.082031 469.203125 59.9375 469.121094 59.882812 C 467.472656 58.78125 465.585938 58.007812 464.160156 56.652344 C 463.5625 56.082031 462.8125 56.984375 462.277344 57.199219 C 462.070312 57.285156 462.160156 57.625 462.371094 57.539062 C 462.742188 57.390625 463.050781 57.21875 463.371094 56.976562 C 464.0625 56.457031 464.335938 57.691406 464.773438 57.855469 C 465.761719 58.21875 466.644531 58.710938 467.539062 59.261719 C 467.78125 59.414062 469.054688 59.910156 468.238281 60.351562 C 467.8125 60.582031 467.898438 60.53125 467.503906 60.847656 C 467.445312 60.894531 467.433594 61 467.476562 61.0625 C 468.117188 62.035156 468.296875 62.609375 467.925781 63.746094 C 467.90625 63.804688 467.929688 63.875 467.972656 63.917969 C 468.429688 64.378906 468.890625 64.839844 469.347656 65.300781 C 469.734375 65.691406 470.074219 65.476562 469.363281 65.59375 C 468.613281 65.722656 467.863281 65.847656 467.113281 65.972656 C 467.011719 65.988281 466.976562 66.101562 466.988281 66.1875 C 467.023438 66.382812 467.761719 68.308594 467.320312 68.167969 C 466.347656 67.847656 465.371094 67.847656 464.351562 67.84375 C 464.265625 67.84375 464.164062 67.925781 464.175781 68.023438 C 464.273438 68.757812 464.910156 71.628906 463.445312 71.238281 C 462.738281 71.046875 462.113281 70.722656 461.363281 70.695312 C 458.839844 70.601562 459.414062 74.972656 457.613281 74.882812 C 456.375 74.824219 455.105469 74.367188 453.898438 74.09375 C 453.09375 73.90625 453.066406 73.988281 452.402344 74.449219 C 451.441406 75.109375 450.449219 75.722656 449.480469 76.371094 C 449.175781 76.570312 448.347656 76.953125 448.242188 77.363281 C 448.21875 77.460938 448.273438 77.546875 448.367188 77.578125 C 448.378906 77.582031 448.386719 77.585938 448.398438 77.589844 C 448.414062 77.472656 448.429688 77.359375 448.445312 77.242188 C 447.3125 77.191406 446.175781 76.980469 445.054688 76.824219 C 444.023438 76.679688 442.960938 77.019531 441.886719 76.910156 C 440.820312 76.800781 439.800781 76.582031 438.746094 76.875 C 437.585938 77.195312 436.78125 78.277344 436.128906 79.210938 C 436.085938 79.273438 436.105469 79.371094 436.15625 79.425781 C 436.179688 79.449219 436.203125 79.46875 436.226562 79.492188 C 436.371094 79.636719 436.597656 79.453125 436.503906 79.277344 C 436.402344 79.089844 435.445312 78.039062 435.433594 78.042969 C 435.601562 77.964844 435.511719 77.714844 435.347656 77.714844 C 434.304688 77.714844 433.519531 77.609375 432.519531 78.011719 C 431.257812 78.523438 430.261719 79.195312 428.828125 79.101562 C 426.796875 78.972656 424.816406 78.421875 422.796875 78.1875 C 421.300781 78.015625 419.824219 77.582031 418.316406 77.402344 C 417.183594 77.265625 415.8125 76.976562 414.761719 77.546875 C 413.757812 78.089844 412.601562 80.378906 411.316406 79.203125 C 410.652344 78.59375 410.171875 77.664062 409.765625 76.859375 C 409.738281 76.808594 409.671875 76.773438 409.613281 76.773438 C 407.269531 76.8125 404.945312 77.210938 402.597656 77.242188 C 401.351562 77.261719 400.730469 76.636719 399.757812 75.964844 C 398.964844 75.417969 398.09375 75.378906 397.191406 75.648438 C 396.382812 75.890625 395.664062 76.425781 394.996094 76.917969 C 394.414062 77.347656 393.929688 75.058594 393.882812 74.601562 C 393.871094 74.480469 393.78125 74.410156 393.660156 74.429688 C 393.105469 74.527344 392.605469 74.855469 392.128906 75.144531 C 391.433594 75.5625 390.679688 74.859375 390.101562 74.425781 C 389.847656 74.238281 389.605469 74.234375 389.292969 74.25 C 388.722656 74.28125 387.945312 74.664062 387.652344 73.726562 C 387.488281 73.210938 387.523438 72.722656 387.328125 72.203125 C 387.300781 72.132812 387.242188 72.066406 387.160156 72.074219 C 386.378906 72.128906 384.527344 72.757812 384.71875 71.511719 C 384.867188 70.542969 384.5625 69.464844 384.527344 68.492188 C 384.523438 68.347656 384.382812 68.285156 384.261719 68.339844 C 383.40625 68.734375 382.496094 69 381.605469 69.308594 C 380.699219 69.621094 380.785156 69.96875 380.785156 68.960938 C 380.785156 68.855469 380.671875 68.746094 380.5625 68.792969 C 379.558594 69.199219 378.726562 69.699219 377.628906 69.441406 C 376.765625 69.242188 377.25 68.824219 377.5625 68.191406 C 377.734375 67.847656 377.90625 67.507812 377.972656 67.128906 C 377.996094 66.996094 377.894531 66.875 377.753906 66.910156 C 377.679688 66.929688 376.199219 67.417969 376.492188 67.054688 C 377.085938 66.308594 377.996094 65.796875 378.828125 65.355469 C 378.769531 65.253906 378.710938 65.152344 378.648438 65.050781 C 378.476562 64.902344 378.410156 64.710938 378.453125 64.476562 C 378.390625 64.0625 378.679688 63.859375 379.324219 63.855469 C 379.890625 63.78125 380.511719 63.941406 381.078125 63.96875 C 381.167969 63.972656 381.261719 63.886719 381.253906 63.792969 C 381.21875 63.3125 380.636719 61.148438 380.875 61.070312 C 381.414062 60.890625 381.847656 60.632812 382.398438 60.8125 C 382.96875 60.996094 383.515625 60.433594 384.039062 60.363281 C 384.261719 60.335938 384.578125 59.984375 384.351562 60.011719 Z M 384.351562 60.011719 " fill-opacity="1" fill-rule="nonzero"/></g><path fill="#000000" d="M 428.023438 13.808594 C 428.15625 18.410156 431.875 21.894531 433.738281 25.851562 C 436.003906 30.660156 432.570312 33.972656 428.328125 35.554688 C 424.378906 37.023438 420.085938 37.460938 415.972656 38.25 C 412.597656 38.902344 408.8125 39.671875 406.167969 42.039062 C 405.992188 42.199219 406.25 42.457031 406.425781 42.300781 C 409.460938 39.585938 414.035156 38.964844 417.886719 38.269531 C 421.941406 37.539062 426.15625 37.003906 429.945312 35.28125 C 432.929688 33.925781 435.339844 31.355469 434.785156 27.871094 C 433.960938 22.664062 428.550781 19.277344 428.390625 13.808594 C 428.382812 13.570312 428.015625 13.570312 428.023438 13.808594 Z M 428.023438 13.808594 " fill-opacity="1" fill-rule="nonzero"/><path fill="#000000" d="M 427.5625 12.738281 C 425 17.65625 418.773438 18.734375 413.992188 20.34375 C 409.773438 21.765625 405.714844 23.976562 405.628906 28.96875 C 405.625 29.203125 405.988281 29.203125 405.992188 28.96875 C 406.09375 23.199219 411.660156 21.445312 416.265625 19.992188 C 420.5625 18.636719 425.625 17.242188 427.878906 12.921875 C 427.988281 12.710938 427.671875 12.527344 427.5625 12.738281 Z M 427.5625 12.738281 " fill-opacity="1" fill-rule="nonzero"/><path fill="#000000" d="M 426.570312 13.757812 C 425.742188 18.375 426.542969 24.414062 423.183594 28.128906 C 417.957031 33.902344 409.714844 28.652344 403.347656 30.5625 C 400.191406 31.507812 397.398438 35.078125 396.054688 37.949219 C 395.699219 38.714844 395.191406 40.105469 395.910156 40.835938 C 396.933594 41.871094 398.847656 41.234375 400.015625 40.882812 C 399.96875 40.769531 399.921875 40.65625 399.875 40.546875 C 395.089844 42.644531 395.566406 48.601562 392.046875 51.820312 C 391.925781 51.933594 392.027344 52.132812 392.179688 52.136719 C 393.019531 52.15625 393.808594 52.402344 394.640625 52.453125 C 395.496094 52.507812 396.402344 51.980469 397.140625 51.621094 C 397.066406 51.523438 396.992188 51.429688 396.917969 51.332031 C 394.699219 53.132812 393.664062 55.515625 395.945312 57.722656 C 397.820312 59.53125 401.128906 60.609375 403.707031 60.433594 C 406 60.277344 408.25 59.257812 410.488281 58.785156 C 411.582031 58.554688 412.964844 58.289062 414.015625 58.824219 C 415.492188 59.578125 414.371094 62.078125 413.929688 63.105469 C 413.875 63.242188 413.941406 63.367188 414.089844 63.382812 C 419.484375 63.910156 424.972656 63.730469 430.359375 63.210938 C 436.332031 62.640625 442.460938 61.5625 447.925781 58.992188 C 452.042969 57.058594 456.511719 53.339844 455.769531 48.234375 C 455.09375 43.570312 448.820312 43.054688 445.84375 40.550781 C 442 37.324219 446.15625 29.335938 440.78125 27.078125 C 440.230469 26.84375 439.609375 26.792969 439.015625 26.769531 C 437.800781 26.71875 438.109375 26.28125 437.765625 25.195312 C 437.289062 23.699219 436.171875 22.515625 435.003906 21.527344 C 432.191406 19.148438 428.5 17.535156 428.390625 13.320312 C 428.382812 13.082031 428.019531 13.082031 428.023438 13.320312 C 428.195312 19.96875 437.140625 20.578125 437.761719 27.011719 C 437.769531 27.101562 437.839844 27.207031 437.945312 27.195312 C 444.554688 26.546875 443.117188 34.113281 444.136719 38.394531 C 445.136719 42.566406 450.957031 43.007812 453.78125 45.484375 C 456.183594 47.589844 455.730469 51.050781 454.179688 53.539062 C 452.761719 55.8125 450.382812 57.355469 448.042969 58.527344 C 442.289062 61.414062 435.546875 62.394531 429.207031 62.953125 C 424.839844 63.335938 420.425781 63.429688 416.046875 63.171875 C 415.707031 63.152344 415.367188 63.125 415.023438 63.097656 C 414.683594 63.074219 414.296875 63.199219 414.429688 62.859375 C 414.777344 61.980469 415.078125 61.089844 415.082031 60.136719 C 415.085938 59.039062 414.320312 58.398438 413.308594 58.21875 C 410.265625 57.675781 406.988281 59.550781 404.027344 60.027344 C 401.875 60.375 399.367188 59.453125 397.527344 58.414062 C 396.410156 57.789062 395.371094 56.871094 395 55.605469 C 394.515625 53.957031 396.042969 52.511719 397.175781 51.59375 C 397.347656 51.453125 397.128906 51.21875 396.957031 51.304688 C 395.398438 52.058594 394.570312 52.019531 392.96875 51.808594 C 392.226562 51.710938 392.957031 51.492188 393.316406 50.984375 C 393.75 50.375 394.105469 49.742188 394.429688 49.070312 C 395.925781 45.976562 396.605469 42.378906 400.0625 40.863281 C 400.253906 40.777344 400.117188 40.46875 399.921875 40.527344 C 398.605469 40.925781 395.617188 41.726562 395.972656 39.359375 C 396.226562 37.6875 397.511719 36.074219 398.539062 34.8125 C 399.632812 33.480469 400.925781 32.1875 402.433594 31.335938 C 405.363281 29.683594 409.238281 30.570312 412.351562 31.003906 C 416.9375 31.648438 422.074219 31.207031 424.617188 26.765625 C 426.753906 23.039062 426.1875 17.960938 426.921875 13.855469 C 426.964844 13.625 426.613281 13.527344 426.570312 13.757812 Z M 426.570312 13.757812 " fill-opacity="1" fill-rule="nonzero"/><path fill="#000000" d="M 436.046875 33.054688 C 437.015625 32.703125 438.058594 32.886719 439.066406 32.710938 C 439.546875 32.628906 439.402344 33.441406 439.289062 33.882812 C 438.988281 35.039062 437.882812 35.933594 436.976562 36.609375 C 434.375 38.558594 431.199219 39.792969 428.199219 40.953125 C 424.910156 42.230469 421.550781 43.320312 418.203125 44.429688 C 415.996094 45.160156 413.621094 45.785156 411.5625 46.902344 C 411.351562 47.015625 411.539062 47.332031 411.746094 47.21875 C 413.953125 46.019531 416.523438 45.371094 418.894531 44.589844 C 422.375 43.4375 425.855469 42.28125 429.265625 40.929688 C 432.058594 39.820312 435 38.613281 437.390625 36.753906 C 438.730469 35.714844 440.222656 34.191406 439.582031 32.34375 C 439.550781 32.253906 439.453125 32.179688 439.355469 32.214844 C 438.246094 32.621094 437.058594 32.296875 435.949219 32.703125 C 435.726562 32.78125 435.824219 33.136719 436.046875 33.054688 Z M 436.046875 33.054688 " fill-opacity="1" fill-rule="nonzero"/><path fill="#000000" d="M 442.195312 40.570312 C 433.652344 48.460938 422.121094 45.515625 411.65625 46.878906 C 411.425781 46.90625 411.421875 47.273438 411.65625 47.246094 C 422.242188 45.867188 433.820312 48.808594 442.453125 40.828125 C 442.625 40.667969 442.367188 40.410156 442.195312 40.570312 Z M 442.195312 40.570312 " fill-opacity="1" fill-rule="nonzero"/><path fill="#000000" d="M 447.550781 44.976562 C 439.449219 54.898438 425.050781 53.195312 414.480469 58.640625 C 414.273438 58.746094 414.457031 59.0625 414.667969 58.957031 C 425.273438 53.492188 439.667969 55.207031 447.8125 45.234375 C 447.960938 45.054688 447.703125 44.792969 447.550781 44.976562 Z M 447.550781 44.976562 " fill-opacity="1" fill-rule="nonzero"/><path fill="#000000" d="M 388.078125 58.128906 C 384.570312 58.738281 379.484375 63.007812 379.972656 69.164062 C 379.992188 69.390625 380.332031 69.296875 380.3125 69.070312 C 379.871094 63.699219 384.847656 58.6875 388.097656 58.574219 " fill-opacity="1" fill-rule="nonzero"/><path fill="#000000" d="M 464.316406 60.160156 C 465.398438 61.292969 466.71875 62.582031 466.632812 64.273438 C 466.570312 65.507812 465.894531 66.789062 465.585938 67.976562 C 465.527344 68.195312 465.867188 68.289062 465.925781 68.070312 C 466.289062 66.679688 467.035156 65.246094 466.988281 63.785156 C 466.9375 62.261719 465.527344 60.917969 464.566406 59.910156 C 464.410156 59.742188 464.160156 59.996094 464.316406 60.160156 Z M 464.316406 60.160156 " fill-opacity="1" fill-rule="nonzero"/><path fill="#000000" d="M 381.375 72.214844 C 382.296875 77.601562 384.070312 82.902344 385.625 88.125 C 387.355469 93.9375 389.140625 99.742188 391.050781 105.5 C 391.125 105.714844 391.460938 105.621094 391.390625 105.40625 C 389.523438 99.777344 387.78125 94.105469 386.082031 88.421875 C 384.480469 83.074219 382.65625 77.636719 381.714844 72.121094 C 381.675781 71.898438 381.335938 71.992188 381.375 72.214844 Z M 381.375 72.214844 " fill-opacity="1" fill-rule="nonzero"/><path fill="#000000" d="M 385.136719 76.101562 C 386.792969 79.980469 387.332031 84.195312 388.425781 88.242188 C 389.070312 90.636719 389.929688 92.980469 390.609375 95.367188 C 391.417969 98.207031 392.191406 101.054688 393 103.890625 C 393.484375 105.601562 393.882812 107.441406 394.648438 109.054688 C 394.746094 109.257812 395.046875 109.078125 394.949219 108.875 C 394.152344 107.191406 393.753906 105.253906 393.246094 103.46875 C 392.4375 100.625 391.660156 97.773438 390.847656 94.929688 C 390.15625 92.492188 389.289062 90.101562 388.628906 87.65625 C 387.570312 83.730469 387.046875 79.683594 385.441406 75.921875 C 385.351562 75.710938 385.046875 75.894531 385.136719 76.101562 Z M 385.136719 76.101562 " fill-opacity="1" fill-rule="nonzero"/><path fill="#000000" d="M 389.796875 77.46875 C 392.007812 83.078125 393.449219 88.992188 394.746094 94.871094 C 396.074219 100.902344 397.167969 106.996094 398.046875 113.109375 C 398.078125 113.335938 398.417969 113.238281 398.382812 113.015625 C 397.53125 107.0625 396.457031 101.136719 395.191406 95.261719 C 393.886719 89.21875 392.402344 83.132812 390.136719 77.375 C 390.054688 77.164062 389.714844 77.257812 389.796875 77.46875 Z M 389.796875 77.46875 " fill-opacity="1" fill-rule="nonzero"/><path fill="#000000" d="M 395.410156 78.878906 C 396.976562 84.695312 398.597656 90.5 400.011719 96.359375 C 401.308594 101.730469 402.699219 107.328125 402.742188 112.886719 C 402.742188 113.113281 403.09375 113.113281 403.09375 112.886719 C 403.054688 107.449219 401.707031 101.988281 400.460938 96.730469 C 399.035156 90.710938 397.355469 84.757812 395.75 78.78125 C 395.691406 78.5625 395.351562 78.65625 395.410156 78.878906 Z M 395.410156 78.878906 " fill-opacity="1" fill-rule="nonzero"/><path fill="#000000" d="M 401.273438 81.109375 C 401.949219 86.230469 403.382812 91.1875 404.515625 96.214844 C 405.90625 102.390625 406.433594 108.609375 405.5 114.894531 C 405.46875 115.117188 405.804688 115.214844 405.839844 114.988281 C 406.691406 109.273438 406.367188 103.613281 405.246094 97.960938 C 404.128906 92.320312 402.382812 86.824219 401.625 81.109375 C 401.597656 80.886719 401.246094 80.882812 401.273438 81.109375 Z M 401.273438 81.109375 " fill-opacity="1" fill-rule="nonzero"/><path fill="#000000" d="M 406.171875 80.289062 C 409.128906 91.449219 410.179688 103.449219 409.597656 114.984375 C 409.585938 115.214844 409.9375 115.210938 409.949219 114.984375 C 410.53125 103.421875 409.476562 91.382812 406.511719 80.191406 C 406.453125 79.972656 406.113281 80.066406 406.171875 80.289062 Z M 406.171875 80.289062 " fill-opacity="1" fill-rule="nonzero"/><path fill="#000000" d="M 411.777344 81.648438 C 412.335938 92.105469 411.847656 102.601562 411.777344 113.0625 C 411.777344 113.289062 412.128906 113.289062 412.128906 113.0625 C 412.199219 102.601562 412.6875 92.101562 412.128906 81.648438 C 412.117188 81.421875 411.765625 81.421875 411.777344 81.648438 Z M 411.777344 81.648438 " fill-opacity="1" fill-rule="nonzero"/><path fill="#000000" d="M 415.289062 82.988281 C 416.222656 93.660156 414.613281 104.316406 414.582031 114.984375 C 414.582031 115.214844 414.933594 115.214844 414.933594 114.984375 C 414.964844 104.316406 416.574219 93.660156 415.640625 82.988281 C 415.621094 82.765625 415.269531 82.761719 415.289062 82.988281 Z M 415.289062 82.988281 " fill-opacity="1" fill-rule="nonzero"/><path fill="#000000" d="M 464.488281 59.863281 C 464.207031 59.792969 463.847656 58.988281 463.699219 58.765625 C 463.285156 58.136719 462.839844 57.539062 462.347656 56.972656 C 461.191406 55.644531 459.691406 54.703125 457.9375 54.457031 C 457.714844 54.425781 457.621094 54.765625 457.84375 54.796875 C 460.015625 55.101562 461.613281 56.484375 462.882812 58.199219 C 463.222656 58.660156 463.777344 60.046875 464.394531 60.203125 C 464.613281 60.261719 464.707031 59.917969 464.488281 59.863281 Z M 464.488281 59.863281 " fill-opacity="1" fill-rule="nonzero"/><path fill="#000000" d="M 419.488281 83.121094 C 419.488281 83.121094 419.488281 104.152344 419.488281 114.511719 C 419.488281 114.828125 419.800781 114.828125 419.800781 114.511719 C 419.800781 114.199219 419.488281 114.199219 419.488281 114.511719 C 419.488281 114.828125 419.800781 114.828125 419.800781 114.511719 C 419.800781 104.152344 419.800781 93.480469 419.800781 83.121094 C 419.800781 82.808594 419.488281 82.808594 419.488281 83.121094 C 419.488281 83.121094 419.488281 82.808594 419.488281 83.121094 Z M 419.488281 83.121094 " fill-opacity="1" fill-rule="nonzero"/><path fill="#000000" d="M 425.441406 83.882812 C 423.90625 90.628906 422.507812 97.5625 422.699219 104.503906 C 422.761719 106.890625 422.839844 109.277344 422.921875 111.660156 C 422.957031 112.570312 422.988281 113.480469 423.027344 114.386719 C 423.042969 114.679688 422.972656 115.160156 423.113281 115.433594 C 423.183594 115.574219 423.398438 115.535156 423.433594 115.394531 C 423.464844 115.265625 423.449219 115.117188 423.449219 114.984375 C 423.449219 114.757812 423.097656 114.757812 423.097656 114.984375 C 423.097656 115.617188 423.417969 115.171875 423.394531 114.695312 C 423.351562 113.863281 423.324219 113.03125 423.292969 112.199219 C 423.207031 109.820312 423.132812 107.4375 423.066406 105.054688 C 422.863281 97.933594 424.203125 90.902344 425.78125 83.976562 C 425.832031 83.753906 425.492188 83.660156 425.441406 83.882812 Z M 425.441406 83.882812 " fill-opacity="1" fill-rule="nonzero"/><path fill="#000000" d="M 429.652344 82.941406 C 427.523438 93.4375 429.0625 104.324219 428.308594 114.9375 C 428.289062 115.164062 428.644531 115.164062 428.660156 114.9375 C 429.410156 104.359375 427.871094 93.496094 429.992188 83.035156 C 430.035156 82.8125 429.699219 82.71875 429.652344 82.941406 Z M 429.652344 82.941406 " fill-opacity="1" fill-rule="nonzero"/><path fill="#000000" d="M 434.082031 82.941406 C 432.394531 93.699219 433.445312 104.527344 433.46875 115.34375 C 433.46875 115.574219 433.820312 115.574219 433.820312 115.34375 C 433.796875 104.5625 432.738281 93.757812 434.421875 83.035156 C 434.457031 82.8125 434.117188 82.71875 434.082031 82.941406 Z M 434.082031 82.941406 " fill-opacity="1" fill-rule="nonzero"/><path fill="#000000" d="M 464.289062 73.972656 C 461.820312 79.519531 459.832031 85.28125 458.0625 91.085938 C 456.386719 96.585938 454.824219 102.238281 454.164062 107.964844 C 454.136719 108.191406 454.488281 108.1875 454.515625 107.964844 C 455.152344 102.425781 456.671875 96.96875 458.261719 91.644531 C 460.035156 85.707031 462.074219 79.8125 464.59375 74.152344 C 464.683594 73.945312 464.382812 73.765625 464.289062 73.972656 Z M 464.289062 73.972656 " fill-opacity="1" fill-rule="nonzero"/><path fill="#000000" d="M 457.722656 78.242188 C 454.628906 88.675781 452.640625 99.429688 450.617188 110.113281 C 450.574219 110.335938 450.910156 110.429688 450.953125 110.207031 C 452.980469 99.523438 454.96875 88.773438 458.0625 78.335938 C 458.125 78.117188 457.785156 78.027344 457.722656 78.242188 Z M 457.722656 78.242188 " fill-opacity="1" fill-rule="nonzero"/><path fill="#000000" d="M 453.980469 80.121094 C 451.765625 90.539062 447.5625 100.964844 447.484375 111.730469 C 447.480469 111.957031 447.832031 111.957031 447.835938 111.730469 C 447.914062 101 452.113281 90.601562 454.316406 80.214844 C 454.363281 79.996094 454.027344 79.898438 453.980469 80.121094 Z M 453.980469 80.121094 " fill-opacity="1" fill-rule="nonzero"/><path fill="#000000" d="M 449.292969 81.109375 C 449.238281 86.90625 447.40625 92.570312 445.953125 98.125 C 444.796875 102.542969 443.308594 107.570312 444.363281 112.148438 C 444.414062 112.371094 444.753906 112.277344 444.703125 112.054688 C 443.558594 107.097656 445.390625 101.613281 446.652344 96.84375 C 448.011719 91.707031 449.597656 86.46875 449.644531 81.109375 C 449.648438 80.882812 449.296875 80.882812 449.292969 81.109375 Z M 449.292969 81.109375 " fill-opacity="1" fill-rule="nonzero"/><path fill="#000000" d="M 445.933594 82.941406 C 443.847656 87.988281 442.625 93.441406 441.53125 98.777344 C 440.558594 103.523438 439.445312 108.65625 439.773438 113.53125 C 439.789062 113.757812 440.140625 113.761719 440.125 113.53125 C 439.789062 108.535156 440.960938 103.3125 441.957031 98.449219 C 443.019531 93.253906 444.246094 87.949219 446.269531 83.035156 C 446.359375 82.824219 446.019531 82.734375 445.933594 82.941406 Z M 445.933594 82.941406 " fill-opacity="1" fill-rule="nonzero"/><path fill="#000000" d="M 440.320312 82.941406 C 439.050781 88.261719 437.964844 93.625 437.136719 99.035156 C 436.335938 104.273438 435.726562 109.632812 436.023438 114.941406 C 436.039062 115.167969 436.390625 115.171875 436.375 114.941406 C 435.78125 104.296875 438.203125 93.332031 440.65625 83.035156 C 440.710938 82.816406 440.371094 82.722656 440.320312 82.941406 Z M 440.320312 82.941406 " fill-opacity="1" fill-rule="nonzero"/><path fill="#000000" d="M 393.25 53.492188 C 390.613281 53.292969 388.921875 55.699219 388.09375 57.917969 C 387.179688 60.363281 387.421875 63.054688 389.3125 64.921875 C 391.40625 66.988281 394.597656 67.980469 397.34375 68.777344 C 400.261719 69.625 403.285156 70.183594 406.300781 70.53125 C 406.539062 70.558594 406.535156 70.1875 406.300781 70.164062 C 401.359375 69.597656 396.089844 68.570312 391.683594 66.164062 C 389.277344 64.851562 387.785156 62.996094 387.976562 60.144531 C 388.15625 57.425781 390.101562 53.621094 393.25 53.859375 C 393.484375 53.878906 393.484375 53.511719 393.25 53.492188 Z M 393.25 53.492188 " fill-opacity="1" fill-rule="nonzero"/><path fill="#000000" d="M 454.546875 53.988281 C 454.417969 54.035156 454.273438 54.070312 454.171875 54.167969 C 454.058594 54.269531 454.132812 54.421875 454.25 54.472656 C 454.785156 54.695312 455.839844 54.394531 456.40625 54.382812 C 458.265625 54.347656 459.214844 55.453125 460.03125 57.035156 C 461.414062 59.71875 459.457031 62.148438 457.386719 63.695312 C 453.039062 66.953125 447.3125 68.285156 442.164062 69.667969 C 437.070312 71.03125 431.972656 72.003906 426.683594 71.859375 C 419.882812 71.671875 413.085938 70.691406 406.304688 70.164062 C 406.066406 70.144531 406.070312 70.511719 406.304688 70.53125 C 413.277344 71.074219 420.269531 72.085938 427.265625 72.242188 C 432.679688 72.359375 437.917969 71.199219 443.117188 69.789062 C 448.121094 68.433594 453.695312 67.0625 457.859375 63.796875 C 459.453125 62.546875 460.882812 60.933594 460.859375 58.792969 C 460.839844 56.929688 459.304688 54.351562 457.390625 54.066406 C 456.859375 53.988281 456.3125 54.011719 455.78125 54.035156 C 455.507812 54.046875 455.234375 54.070312 454.960938 54.09375 C 454.824219 54.105469 454.691406 54.113281 454.558594 54.121094 C 454.332031 54.097656 454.359375 54.171875 454.644531 54.34375 C 454.867188 54.265625 454.769531 53.910156 454.546875 53.988281 Z M 454.546875 53.988281 " fill-opacity="1" fill-rule="nonzero"/><path fill="#4b5fad" d="M 427.136719 14.910156 C 423.785156 31.039062 436.894531 22.75 427.046875 14.183594 L 427.128906 15.335938 C 428.644531 12.328125 436.710938 7.222656 439.515625 10.964844 C 444.695312 17.199219 429.425781 15.171875 426.957031 14.535156 L 427.046875 14.183594 C 425.5625 11.160156 420.800781 3.714844 417.488281 7.128906 C 412.140625 12.644531 425.375 13.375 427.308594 14.625 L 427.128906 15.335938 C 425.527344 19.914062 422.636719 25.101562 420.378906 22.664062 C 414.871094 17.964844 423.5625 14.042969 426.957031 14.535156 L 427.046875 14.183594 C 424.335938 8.578125 423.339844 1.8125 427.929688 0.0351562 C 433.03125 0.398438 430.507812 10.917969 427.128906 15.335938 " fill-opacity="1" fill-rule="nonzero"/><path fill="#000000" d="M 427.058594 14.886719 C 426.550781 17.414062 425.941406 20.558594 427.097656 23.003906 C 427.546875 23.953125 428.503906 24.484375 429.472656 23.941406 C 430.65625 23.273438 430.929688 21.609375 430.847656 20.382812 C 430.679688 17.867188 428.898438 15.71875 427.105469 14.125 C 427.054688 14.078125 426.960938 14.105469 426.964844 14.183594 C 426.992188 14.566406 427.019531 14.949219 427.046875 15.335938 C 427.050781 15.414062 427.15625 15.453125 427.199219 15.378906 C 428.613281 12.773438 431.808594 10.914062 434.535156 10.058594 C 436.046875 9.585938 437.789062 9.511719 439.0625 10.582031 C 439.847656 11.242188 440.835938 12.679688 440.367188 13.75 C 439.625 15.429688 436.207031 15.273438 434.761719 15.277344 C 432.585938 15.289062 430.394531 15.0625 428.25 14.710938 C 427.933594 14.65625 427.621094 14.597656 427.308594 14.535156 C 426.933594 14.457031 427.203125 14.4375 427.125 14.160156 C 426.816406 13.023438 425.832031 11.816406 425.183594 10.855469 C 424.007812 9.117188 422.128906 6.523438 419.84375 6.273438 C 418.308594 6.105469 416.296875 7.414062 416.15625 9.082031 C 416.027344 10.640625 417.691406 11.488281 418.886719 12.027344 C 420.949219 12.960938 423.199219 13.421875 425.371094 14.019531 C 425.761719 14.125 426.148438 14.242188 426.53125 14.371094 C 427.128906 14.574219 427.238281 14.578125 427.078125 15.203125 C 426.5 17.464844 425.238281 19.882812 423.816406 21.730469 C 423.265625 22.441406 422.527344 23.140625 421.59375 23.203125 C 420.902344 23.25 420.269531 22.5 419.855469 22.011719 C 419.214844 21.261719 418.847656 20.296875 418.867188 19.3125 C 418.9375 15.742188 424.398438 14.9375 426.957031 14.617188 C 426.992188 14.613281 427.027344 14.597656 427.035156 14.558594 C 427.28125 13.597656 426.371094 12.480469 426.035156 11.582031 C 425.421875 9.9375 425.015625 8.21875 424.863281 6.472656 C 424.730469 4.921875 424.933594 3.328125 425.707031 1.964844 C 426.535156 0.503906 428.214844 -0.402344 429.609375 0.824219 C 431.410156 2.402344 430.75 5.914062 430.3125 7.910156 C 429.738281 10.523438 428.65625 13.140625 427.058594 15.292969 C 426.996094 15.378906 427.136719 15.460938 427.199219 15.375 C 428.890625 13.101562 429.941406 10.351562 430.546875 7.59375 C 431 5.539062 431.308594 2.902344 430.042969 1.066406 C 428.902344 -0.585938 427.023438 -0.0585938 425.941406 1.351562 C 424.179688 3.652344 424.558594 6.804688 425.203125 9.445312 C 425.417969 10.335938 425.71875 11.203125 426.039062 12.058594 C 426.226562 12.558594 427.046875 13.847656 426.921875 14.335938 C 426.839844 14.660156 424.710938 14.808594 424.429688 14.867188 C 423.640625 15.03125 422.839844 15.257812 422.09375 15.578125 C 420.597656 16.214844 418.855469 17.316406 418.714844 19.132812 C 418.613281 20.476562 419.246094 21.707031 420.199219 22.613281 C 422.015625 24.339844 423.625 22.398438 424.683594 20.789062 C 425.886719 18.964844 426.847656 16.765625 427.386719 14.648438 C 427.398438 14.613281 427.382812 14.574219 427.351562 14.554688 C 424.15625 12.648438 419.441406 13.394531 416.765625 10.4375 C 415.839844 9.417969 416.535156 8.234375 417.324219 7.402344 C 418.628906 6.027344 420.238281 6.292969 421.683594 7.261719 C 423.050781 8.183594 424.113281 9.605469 425.042969 10.9375 C 425.570312 11.695312 427.125 13.539062 426.878906 14.515625 C 426.867188 14.558594 426.890625 14.605469 426.933594 14.617188 C 430.417969 15.476562 434.539062 15.839844 438.066406 15.175781 C 439.140625 14.976562 440.53125 14.511719 440.660156 13.246094 C 440.824219 11.664062 439.003906 10.042969 437.660156 9.679688 C 435.269531 9.027344 432.464844 10.558594 430.550781 11.824219 C 429.527344 12.5 428.585938 13.3125 427.785156 14.234375 C 427.539062 14.519531 427.179688 14.882812 427.207031 15.25 C 427.1875 14.992188 427.167969 14.738281 427.152344 14.480469 C 427.121094 14.0625 427.613281 14.8125 427.816406 15.007812 C 429.492188 16.648438 430.871094 18.921875 430.679688 21.351562 C 430.585938 22.535156 429.621094 24.558594 428.121094 23.890625 C 427.214844 23.488281 426.929688 22.234375 426.777344 21.363281 C 426.40625 19.253906 426.800781 16.996094 427.21875 14.929688 C 427.238281 14.828125 427.078125 14.785156 427.058594 14.886719 Z M 427.058594 14.886719 " fill-opacity="1" fill-rule="nonzero"/></svg>